<svg width="28" height="30" viewBox="0 0 28 30" fill="none" xmlns="http://www.w3.org/2000/svg">
<path d="M24.5002 5.00001H2.3335V7.50001H5.01683L8.8435 18.75C9.08419 19.4794 9.52958 20.1113 10.1186 20.5588C10.7076 21.0064 11.4114 21.2478 12.1335 21.25H22.1668V18.75H12.1335C11.8937 18.7499 11.6598 18.6706 11.4636 18.523C11.2674 18.3754 11.1184 18.1666 11.0368 17.925L10.5002 16.25H21.3268C21.8332 16.2492 22.3256 16.072 22.7297 15.745C23.1337 15.4181 23.4276 14.9591 23.5668 14.4375L25.6668 6.58751C25.7143 6.42336 25.7296 6.2505 25.7119 6.07973C25.6941 5.90895 25.6437 5.74392 25.5638 5.59495C25.4839 5.44597 25.3762 5.31625 25.2474 5.21389C25.1185 5.11153 24.9714 5.03872 24.8152 5.00001C24.7108 4.98181 24.6045 4.98181 24.5002 5.00001ZM21.2918 13.75H9.62516L7.50183 7.50001H22.9485L21.2918 13.75Z" fill="#0A0A0A"/>
<path d="M12.25 26.25C13.2165 26.25 14 25.4105 14 24.375C14 23.3395 13.2165 22.5 12.25 22.5C11.2835 22.5 10.5 23.3395 10.5 24.375C10.5 25.4105 11.2835 26.25 12.25 26.25Z" fill="#0A0A0A"/>
<path d="M19.25 26.25C20.2165 26.25 21 25.4105 21 24.375C21 23.3395 20.2165 22.5 19.25 22.5C18.2835 22.5 17.5 23.3395 17.5 24.375C17.5 25.4105 18.2835 26.25 19.25 26.25Z" fill="#0A0A0A"/>
</svg>
