<?xml version="1.0" encoding="UTF-8"?>
<svg id="Layer_1" xmlns="http://www.w3.org/2000/svg" xmlns:xlink="http://www.w3.org/1999/xlink" viewBox="0 0 98 98">
  <defs>
    <style>
      .cls-1 {
        fill: none;
        stroke: url(#linear-gradient);
        stroke-miterlimit: 10;
        stroke-width: 2px;
      }
    </style>
    <linearGradient id="linear-gradient" x1="8.96" y1="49" x2="89.04" y2="49" gradientUnits="userSpaceOnUse">
      <stop offset="0" stop-color="#27b25b"/>
      <stop offset=".35" stop-color="#1a8041"/>
      <stop offset=".67" stop-color="#104023"/>
      <stop offset=".67" stop-color="#103f23"/>
      <stop offset="1" stop-color="#112618"/>
    </linearGradient>
  </defs>
  <path id="g1513" class="cls-1" d="M22.97,73.24h-6.51c-3.59,0-6.51-2.91-6.51-6.51v-11.39c0-3.59,2.91-6.51,6.51-6.51h6.51v24.4ZM75.03,73.24h6.51c3.59,0,6.51-2.91,6.51-6.51v-11.39c0-3.59-2.91-6.51-6.51-6.51h-6.51v24.4ZM49,9.79c-6.81,0-13.19,1.84-18.7,5.03l4.89,8.46c4.07-2.36,8.78-3.73,13.81-3.73s9.74,1.37,13.81,3.73l4.89-8.46c-5.51-3.19-11.89-5.03-18.7-5.03ZM79.91,73.24v3.58c0,3.59-2.91,6.51-6.51,6.51h-19.52M53.88,83.32c0,2.7-2.19,4.88-4.88,4.88s-4.88-2.19-4.88-4.88,2.19-4.88,4.88-4.88,4.88,2.19,4.88,4.88ZM62.91,57.24c1.49-2.46,2.36-5.32,2.36-8.41,0-8.98-7.28-16.27-16.27-16.27s-16.27,7.28-16.27,16.27,7.28,16.27,16.27,16.27c3.08,0,5.95-.87,8.41-2.36l7.86,2.36-2.36-7.86ZM43.71,53.72h10.57M43.71,43.96h10.57M81.54,48.84v-1.63c0-12.04-6.54-22.55-16.27-28.18M32.73,19.03c-9.72,5.63-16.27,16.14-16.27,28.18v1.63"/>
</svg>