<?xml version="1.0" encoding="UTF-8"?>
<svg id="Layer_1" xmlns="http://www.w3.org/2000/svg" xmlns:xlink="http://www.w3.org/1999/xlink" viewBox="0 0 98 98">
  <defs>
    <style>
      .cls-1 {
        fill: none;
        stroke: url(#linear-gradient);
        stroke-linecap: round;
        stroke-linejoin: round;
        stroke-width: 2px;
      }
    </style>
    <linearGradient id="linear-gradient" x1="18.87" y1="49.03" x2="79.13" y2="49.03" gradientUnits="userSpaceOnUse">
      <stop offset="0" stop-color="#27b25b"/>
      <stop offset=".35" stop-color="#1a8041"/>
      <stop offset=".67" stop-color="#104023"/>
      <stop offset=".67" stop-color="#103f23"/>
      <stop offset="1" stop-color="#112618"/>
    </linearGradient>
  </defs>
  <path class="cls-1" d="M78.13,75.9l-12.95,12.95v-12.95h12.95ZM78.13,75.9V9.22H19.87v79.63h45.32l12.95-12.95ZM26.34,15.69h12.95M26.34,22.16h19.42M53.86,37.7l6.47,6.47,3.24-3.24-6.47-6.47-3.24,3.24ZM38.88,64.81l-5.67-5.67M29.58,68.46l9.71-3.24,29.13-29.13-6.47-6.47-29.13,29.13-3.24,9.71ZM53.86,37.7l6.47,6.47M50.62,40.94l-11.33-11.33-9.71,9.71,11.33,11.33M47.38,57.13l11.33,11.33,9.71-9.71-11.33-11.33M40.1,40.13l4.86-4.86M62.76,53.08l-4.86,4.86"/>
</svg>