<?xml version="1.0" encoding="UTF-8"?>
<svg id="Layer_1" xmlns="http://www.w3.org/2000/svg" xmlns:xlink="http://www.w3.org/1999/xlink" viewBox="0 0 98 98">
  <defs>
    <style>
      .cls-1 {
        fill: none;
        stroke: url(#linear-gradient);
        stroke-linecap: round;
        stroke-linejoin: round;
        stroke-width: 2px;
      }
    </style>
    <linearGradient id="linear-gradient" x1="9" y1="49" x2="89" y2="49" gradientUnits="userSpaceOnUse">
      <stop offset="0" stop-color="#27b25b"/>
      <stop offset=".35" stop-color="#1a8041"/>
      <stop offset=".67" stop-color="#104023"/>
      <stop offset=".67" stop-color="#103f23"/>
      <stop offset="1" stop-color="#112618"/>
    </linearGradient>
  </defs>
  <path class="cls-1" d="M31.03,43.32c3.79,0,6.86,3.07,6.86,6.86M85.36,43.32c-3.79,0-6.86,3.07-6.86,6.86M78.5,21.2c0,3.79,3.07,6.86,6.86,6.86M58.2,50.29h0M65.33,50.29h17.56c1.42,0,2.57-1.15,2.57-2.57v-24.04c0-1.42-1.15-2.57-2.57-2.57h-24.7M30.93,33.95v13.77c0,1.42,1.15,2.57,2.57,2.57h31.83M51.01,38.52c1.12,2.87,3.92,4.9,7.19,4.9,4.26,0,7.72-3.45,7.72-7.72s-3.45-7.72-7.72-7.72c-2.96,0-5.53,1.67-6.83,4.11M23.95,31.88h3.8c4.42,3.13,9.48,5.24,14.81,6.16l5.73,1c1.85.32,3.67-.72,4.32-2.48h0c.68-1.81-.08-3.84-1.77-4.78l-8.16-4.51c-1.05-.58-1.7-1.68-1.7-2.88h0c0-1.82,1.47-3.29,3.29-3.29h17.24l-8.34-6.43c-1.79-1.38-3.98-2.13-6.24-2.13h-22.99M23.95,10h-13.95v25.37h13.95V10ZM51.3,77.6h-8.56c-3.65,0-7.16-1.45-9.74-4.04l-7.71-7.71c-1.53-1.53-4.01-1.54-5.55-.01h0c-1.55,1.53-1.55,4.04-.01,5.58l8.61,8.61c3.88,3.88,9.15,6.07,14.65,6.07h31.06M74.04,65.22l-.23-.17c-2.32-1.68-5.1-2.59-7.96-2.59h0c-4,0-7.79,1.77-10.37,4.82l-2.07,2.46h-10.01c-2.17,0-3.92,1.76-3.92,3.92h0c0,2.17,1.76,3.92,3.92,3.92h17.26M88,62.63h-13.95v25.37h13.95v-25.37Z"/>
</svg>