<?xml version="1.0" encoding="UTF-8"?>
<svg id="Layer_1" xmlns="http://www.w3.org/2000/svg" xmlns:xlink="http://www.w3.org/1999/xlink" viewBox="0 0 98 98">
  <defs>
    <style>
      .cls-1 {
        fill: url(#linear-gradient-2);
      }

      .cls-2 {
        fill: none;
        stroke: url(#linear-gradient);
        stroke-linecap: round;
        stroke-linejoin: round;
        stroke-width: 2px;
      }
    </style>
    <linearGradient id="linear-gradient" x1="8.67" y1="49" x2="89.33" y2="49" gradientUnits="userSpaceOnUse">
      <stop offset="0" stop-color="#27b25b"/>
      <stop offset=".35" stop-color="#1a8041"/>
      <stop offset=".67" stop-color="#104023"/>
      <stop offset=".67" stop-color="#103f23"/>
      <stop offset="1" stop-color="#112618"/>
    </linearGradient>
    <linearGradient id="linear-gradient-2" x1="44.14" y1="43.06" x2="53.86" y2="43.06" xlink:href="#linear-gradient"/>
  </defs>
  <path class="cls-2" d="M62.05,19.63l-13.05-9.95-13.05,9.95M19.46,31.87l-9.79,7.34v49.12h78.65v-49.12l-9.79-7.34M78.54,19.63H19.46v29.37l29.54,24.48,29.54-24.48v-29.37ZM19.46,78.37l19.74-13.05M58.79,65.32l19.74,13.05"/>
  <path class="cls-1" d="M53.86,36.61h-3.81c.67.53,1.15,1.29,1.29,2.35h2.51v1.15h-2.49c-.23,2.35-2.1,3.85-5.05,3.95,1.8,1.87,3.76,4.22,5.7,6.6h-2.21c-1.8-2.17-3.48-4.18-5.65-6.48v-1.43h1.27c2.49,0,3.83-1.04,3.99-2.63h-5.26v-1.15h5.19c-.32-1.34-1.55-2.01-3.55-2.01h-1.64v-1.5h9.71v1.15Z"/>
</svg>