<svg width="28" height="28" viewBox="0 0 28 28" fill="none" xmlns="http://www.w3.org/2000/svg">
<path d="M11.6668 21C13.7376 20.9996 15.7488 20.3063 17.38 19.0307L22.5087 24.1593L24.1583 22.5097L19.0297 17.381C20.306 15.7496 20.9997 13.738 21.0002 11.6667C21.0002 6.52049 16.813 2.33333 11.6668 2.33333C6.52066 2.33333 2.3335 6.52049 2.3335 11.6667C2.3335 16.8128 6.52066 21 11.6668 21ZM11.6668 4.66666C15.5273 4.66666 18.6668 7.80616 18.6668 11.6667C18.6668 15.5272 15.5273 18.6667 11.6668 18.6667C7.80633 18.6667 4.66683 15.5272 4.66683 11.6667C4.66683 7.80616 7.80633 4.66666 11.6668 4.66666Z" fill="#0A0A0A"/>
<path d="M13.314 10.017C13.7561 10.4603 14 11.046 14 11.6667H16.3333C16.3343 11.0535 16.2138 10.4462 15.9787 9.87989C15.7436 9.31358 15.3986 8.79949 14.9636 8.36733C13.1973 6.60333 10.1348 6.60333 8.36963 8.36733L10.017 10.0193C10.9036 9.13499 12.432 9.13733 13.314 10.017Z" fill="#0A0A0A"/>
</svg>
