<?xml version="1.0" encoding="UTF-8"?>
<svg id="Layer_1" xmlns="http://www.w3.org/2000/svg" xmlns:xlink="http://www.w3.org/1999/xlink" viewBox="0 0 98 98">
  <defs>
    <style>
      .cls-1 {
        fill: none;
        stroke: url(#linear-gradient);
        stroke-miterlimit: 10;
        stroke-width: 2px;
      }
    </style>
    <linearGradient id="linear-gradient" x1="15.13" y1="48.93" x2="82.87" y2="48.93" gradientUnits="userSpaceOnUse">
      <stop offset="0" stop-color="#27b25b"/>
      <stop offset=".35" stop-color="#1a8041"/>
      <stop offset=".67" stop-color="#104023"/>
      <stop offset=".67" stop-color="#103f23"/>
      <stop offset="1" stop-color="#112618"/>
    </linearGradient>
  </defs>
  <path class="cls-1" d="M81.87,77.55v10.15c0,.42-.34.77-.77.77H16.9c-.42,0-.77-.34-.77-.77v-10.15c0-.42.34-.77.77-.77h64.2c.42,0,.77.34.77.77ZM24.61,69.1V30.93c0-2.34-1.9-4.24-4.24-4.24h0c-2.34,0-4.24,1.9-4.24,4.24v38.17M81.87,69.1V30.93c0-2.34-1.9-4.24-4.24-4.24h0c-2.34,0-4.24,1.9-4.24,4.24v38.17M24.61,69.1c0-2.34-1.9-4.24-4.24-4.24s-4.24,1.9-4.24,4.24,1.9,4.24,4.24,4.24h57.25c2.34,0,4.24-1.9,4.24-4.24s-1.9-4.24-4.24-4.24-4.24,1.9-4.24,4.24M73.39,30.93h-30.46M24.61,30.93h9.08M20.87,76.78v2.55M24.27,76.78v2.55M27.67,76.78v2.55M31.26,76.82v3.83M34.91,76.78v2.55M38.31,76.78v2.55M41.71,76.78v2.55M45.3,76.82v3.83M48.94,76.78v2.55M52.34,76.78v2.55M55.74,76.78v2.55M59.33,76.82v3.83M62.98,76.78v2.55M66.38,76.78v2.55M69.78,76.78v2.55M73.37,76.82v3.83M77.01,76.78v2.55M30.87,64.86h32.47M63.33,63.15v3.44M30.87,63.15v3.44M67.06,35.48v25.1M68.77,60.58h-3.44M68.77,35.48h-3.44M38.28,57.67l4.62-9.22.04-34.96c0-5.45-9.22-5.46-9.23,0l-.04,34.96,4.61,9.23ZM33.67,17.69h9.26M33.67,48.33h9.26M38.28,57.67V17.69"/>
</svg>