<?xml version="1.0" encoding="UTF-8"?>
<svg id="Layer_1" xmlns="http://www.w3.org/2000/svg" xmlns:xlink="http://www.w3.org/1999/xlink" viewBox="0 0 98 98">
  <defs>
    <style>
      .cls-1 {
        fill: none;
        stroke: url(#linear-gradient);
        stroke-linecap: round;
        stroke-linejoin: round;
        stroke-width: 2px;
      }
    </style>
    <linearGradient id="linear-gradient" x1="15.15" y1="49" x2="82.85" y2="49" gradientUnits="userSpaceOnUse">
      <stop offset="0" stop-color="#27b25b"/>
      <stop offset=".35" stop-color="#1a8041"/>
      <stop offset=".67" stop-color="#104023"/>
      <stop offset=".67" stop-color="#103f23"/>
      <stop offset="1" stop-color="#112618"/>
    </linearGradient>
  </defs>
  <path id="g943" class="cls-1" d="M35.86,24.2c0,2.72-2.21,4.93-4.93,4.93h-14.78l19.71-19.71v14.78ZM16.15,78.4h65.69v-32.85H16.15v32.85ZM16.15,29.13v16.42M75.28,45.55V14.35c0-2.72-2.21-4.93-4.93-4.93h-34.49M16.15,78.4v5.26c0,2.72,2.21,4.93,4.93,4.93h49.27c2.72,0,4.93-2.21,4.93-4.93v-5.26M55.01,68.54l-4.89-12.95c-.1-.25-.45-.25-.55,0l-4.93,12.95M46.17,65.32h7.32M66.69,55.41h-3.72s0,5.06,0,6.55c0,1.82.02,6.58.02,6.58,0,0,2.74-.01,3.8-.03,3.19-.06,5.2-2.92,5.2-6.54s-1.81-6.57-5.31-6.57ZM36.25,56.53c-1.05-.71-2.31-1.12-3.67-1.12-3.63,0-6.57,2.94-6.57,6.57s2.94,6.57,6.57,6.57c1.47,0,2.69-.49,3.61-1.3.19-.17.37-.35.53-.55"/>
</svg>