<svg xmlns="http://www.w3.org/2000/svg" width="154" height="15" viewBox="0 0 154 15" fill="none">
  <path opacity="0.35" d="M153.556 14.764C147.232 14.3399 142.117 14.0677 137.035 13.6632C119.642 12.2578 102.322 10.5017 84.8732 9.43663C58.9863 7.84683 32.9408 8.92013 6.86055 12.1513C2.16773 12.7318 -0.861773 10.2696 0.267737 6.27182C0.566683 5.21869 2.86567 3.89034 4.29829 3.74936C16.2191 2.53482 28.1737 1.23794 40.0947 0.582717C65.6875 -0.825459 90.9509 0.791483 116.083 3.33526C123.733 4.11334 131.514 4.85954 138.797 6.74369C143.787 8.03043 149.779 8.80705 153.57 14.7658L153.556 14.764Z" fill="#49B958"/>
</svg>
