<svg width="48" height="48" viewBox="0 0 48 48" fill="none" xmlns="http://www.w3.org/2000/svg">
<path d="M29.7 31.4248V30.7498C29.925 30.5998 30.075 30.4498 30.225 30.2248C31.95 28.4248 32.625 26.0248 32.85 24.5248C33.675 24.3748 35.175 23.9248 36.075 22.5748C37.2 20.9998 37.275 18.8248 36.375 16.0498C36.3 15.8998 36.225 15.7498 36.075 15.6748L35.625 15.3748C35.625 14.1748 35.475 11.0248 33.225 8.5498C31.2 6.2998 28.125 5.1748 24 5.1748C19.875 5.1748 16.8 6.2998 14.775 8.5498C12.525 11.0998 12.3 14.2498 12.375 15.3748L11.925 15.6748C11.775 15.7498 11.7 15.8998 11.625 16.0498C10.725 18.8248 10.8 20.9998 11.925 22.5748C12.9 23.9248 14.325 24.3748 15.15 24.5248C15.375 26.0998 15.975 28.4248 17.775 30.2248C17.925 30.3748 18.15 30.5998 18.3 30.7498V31.4248C15.45 31.9498 3.97499 34.6498 4.12499 42.2998C4.12499 42.6748 4.49999 43.0498 4.87499 43.0498H24H43.05C43.425 43.0498 43.8 42.7498 43.8 42.2998C44.025 34.6498 32.55 31.9498 29.7 31.4248ZM24 35.9998C21.45 35.9998 19.8 34.9498 19.8 34.2748V31.7248C20.925 32.2498 22.275 32.5498 23.775 32.5498H23.925H24.15C25.65 32.5498 27 32.2498 28.125 31.7248V34.2748C28.2 35.0248 26.55 35.9998 24 35.9998ZM13.125 21.6748C12.375 20.5498 12.3 18.8998 12.975 16.7248L13.5 16.3498C13.725 16.1998 13.875 15.8998 13.8 15.6748C13.8 15.6748 13.5 12.0748 15.825 9.5248C17.55 7.6498 20.25 6.6748 23.925 6.5998C27.6 6.5998 30.3 7.5748 32.025 9.5248C34.35 12.1498 34.05 15.6748 34.05 15.6748C34.05 15.9748 34.125 16.1998 34.35 16.3498L34.875 16.7248C35.55 18.8998 35.475 20.5498 34.725 21.6748C34.275 22.2748 33.675 22.6498 33.15 22.8748C34.125 21.5248 34.575 20.3248 34.35 19.1248C34.2 18.0748 33.525 17.3998 33.15 17.0248C32.85 9.52481 27.6 8.6998 25.275 8.6998C24.6 8.6998 24.075 8.7748 23.85 8.7748C23.625 8.6998 23.1 8.6998 22.425 8.6998C20.175 8.6998 14.925 9.52481 14.55 17.0248C14.175 17.3998 13.5 18.0748 13.35 19.1248C13.2 20.3248 13.575 21.5248 14.55 22.8748C14.175 22.6498 13.575 22.2748 13.125 21.6748ZM31.725 16.6498C26.55 16.9498 22.8 14.3998 22.8 14.3998C22.5 14.1748 22.05 14.2498 21.825 14.4748C20.325 16.1248 17.625 16.4998 16.275 16.5748C16.65 11.2498 19.875 10.1248 22.575 10.1248C23.325 10.1248 23.85 10.1998 23.85 10.1998C23.925 10.1998 24.075 10.1998 24.15 10.1998C24.15 10.1998 24.675 10.1248 25.425 10.1248C28.125 10.1248 31.35 11.3248 31.725 16.6498ZM16.575 22.9498C16.575 22.7998 16.5 22.5748 16.425 22.4248C15.375 21.2248 14.925 20.1748 15.075 19.2748C15.15 18.5998 15.6 18.2248 15.75 18.0748C16.725 18.0748 20.25 17.9248 22.5 15.9748C23.7 16.6498 26.775 18.2248 30.825 18.2248C31.35 18.2248 31.875 18.2248 32.4 18.1498C32.625 18.3748 33 18.7498 33.075 19.3498C33.225 20.2498 32.7 21.2998 31.725 22.4998C31.575 22.6498 31.5 22.7998 31.575 23.0248C31.575 23.0248 31.575 23.1748 31.575 23.3998L27.225 25.7248C26.85 25.3498 26.325 25.1248 25.725 25.1248C24.525 25.1248 23.55 26.0998 23.55 27.2998C23.55 28.4998 24.525 29.4748 25.725 29.4748C26.925 29.4748 27.75 28.4998 27.75 27.2998C27.75 27.2248 27.75 27.1498 27.75 27.0748L31.2 25.1998C30.9 26.4748 30.375 27.9748 29.175 29.1748C27.975 30.3748 26.25 31.0498 24.225 31.0498H24H23.85C21.75 31.0498 20.1 30.4498 18.9 29.1748C16.5 26.8498 16.575 23.0248 16.575 22.9498ZM26.25 27.2998C26.25 27.6748 25.95 27.9748 25.575 27.9748C25.2 27.9748 24.9 27.6748 24.9 27.2998C24.9 26.9248 25.2 26.6248 25.575 26.6248C25.95 26.6248 26.25 26.9248 26.25 27.2998ZM18.3 32.9248V34.2748C18.3 35.9998 20.4 37.2748 23.25 37.4998V41.5498H5.69999C6.29999 35.9248 15.45 33.5998 18.3 32.9248ZM24.75 41.5498V37.4998C27.6 37.2748 29.7 35.9998 29.7 34.2748V32.9248C32.55 33.5248 41.7 35.8498 42.3 41.5498H24.75Z" fill="#787878"/>
</svg>
