<svg width="20" height="21" viewBox="0 0 20 21" fill="none" xmlns="http://www.w3.org/2000/svg">
<path d="M9.99984 19.4584C5.05817 19.4584 1.0415 15.4417 1.0415 10.5001C1.0415 5.55841 5.05817 1.54175 9.99984 1.54175C14.9415 1.54175 18.9582 5.55841 18.9582 10.5001C18.9582 15.4417 14.9415 19.4584 9.99984 19.4584ZM9.99984 2.79175C5.74984 2.79175 2.2915 6.25008 2.2915 10.5001C2.2915 14.7501 5.74984 18.2084 9.99984 18.2084C14.2498 18.2084 17.7082 14.7501 17.7082 10.5001C17.7082 6.25008 14.2498 2.79175 9.99984 2.79175Z" fill="#9D9D9D"/>
<path d="M10 11.9584C9.65833 11.9584 9.375 11.6751 9.375 11.3334V7.16675C9.375 6.82508 9.65833 6.54175 10 6.54175C10.3417 6.54175 10.625 6.82508 10.625 7.16675V11.3334C10.625 11.6751 10.3417 11.9584 10 11.9584Z" fill="#9D9D9D"/>
<path d="M9.99984 14.6667C9.8915 14.6667 9.78317 14.6417 9.68317 14.6C9.58317 14.5583 9.4915 14.5 9.40817 14.425C9.33317 14.3417 9.27484 14.2583 9.23317 14.15C9.1915 14.05 9.1665 13.9417 9.1665 13.8333C9.1665 13.725 9.1915 13.6167 9.23317 13.5167C9.27484 13.4167 9.33317 13.325 9.40817 13.2417C9.4915 13.1667 9.58317 13.1083 9.68317 13.0667C9.88317 12.9833 10.1165 12.9833 10.3165 13.0667C10.4165 13.1083 10.5082 13.1667 10.5915 13.2417C10.6665 13.325 10.7248 13.4167 10.7665 13.5167C10.8082 13.6167 10.8332 13.725 10.8332 13.8333C10.8332 13.9417 10.8082 14.05 10.7665 14.15C10.7248 14.2583 10.6665 14.3417 10.5915 14.425C10.5082 14.5 10.4165 14.5583 10.3165 14.6C10.2165 14.6417 10.1082 14.6667 9.99984 14.6667Z" fill="#787878"/>
</svg>
