<svg width="48" height="48" viewBox="0 0 48 48" fill="none" xmlns="http://www.w3.org/2000/svg">
<rect width="48" height="48" rx="24" fill="#23B35D" fill-opacity="0.1"/>
<path d="M13.981 12.0104C14.0445 12.0102 14.108 12.0099 14.1715 12.0095C14.3462 12.0087 14.5208 12.0095 14.6955 12.0106C14.8839 12.0115 15.0722 12.0109 15.2606 12.0105C15.6297 12.0099 15.9988 12.0107 16.368 12.0119C16.798 12.0133 17.228 12.0134 17.658 12.0133C18.4257 12.0134 19.1933 12.0146 19.9609 12.0165C20.7053 12.0184 21.4497 12.0194 22.1941 12.0195C22.2399 12.0195 22.2856 12.0195 22.3328 12.0195C22.4014 12.0195 22.4014 12.0195 22.4714 12.0195C22.5634 12.0195 22.6554 12.0195 22.7475 12.0196C22.8156 12.0196 22.8156 12.0196 22.8851 12.0196C23.5948 12.0197 24.3045 12.0206 25.0143 12.0216C25.2712 12.022 25.5282 12.0222 25.7852 12.0223C26.1932 12.0225 26.6011 12.0231 27.0091 12.0243C27.1954 12.0249 27.3818 12.0253 27.5681 12.0252C27.739 12.0252 27.9099 12.0256 28.0807 12.0265C28.1423 12.0267 28.2038 12.0268 28.2653 12.0266C29.2146 12.0244 30.1399 12.305 30.8569 12.9456C30.8869 12.9713 30.9169 12.9969 30.9478 13.0233C31.724 13.6979 32.258 14.5859 32.3438 15.6216C32.3484 15.741 32.3486 15.8602 32.3482 15.9796C32.3483 16.0144 32.3483 16.0491 32.3484 16.0849C32.3485 16.2012 32.3483 16.3174 32.3481 16.4337C32.3482 16.518 32.3482 16.6022 32.3482 16.6865C32.3483 16.8936 32.3482 17.1008 32.3481 17.3079C32.3479 17.5561 32.3479 17.8043 32.3479 18.0525C32.348 18.5105 32.3478 18.9685 32.3476 19.4265C32.3474 19.8799 32.3473 20.3334 32.3472 20.7868C32.3472 20.815 32.3472 20.8432 32.3472 20.8722C32.3472 21.0155 32.3472 21.1587 32.3472 21.3019C32.3471 22.3162 32.3469 23.3304 32.3465 24.3446C32.3462 25.3299 32.3459 26.3152 32.3458 27.3004C32.3458 27.346 32.3458 27.346 32.3458 27.3925C32.3457 27.6975 32.3457 28.0025 32.3456 28.3076C32.3455 28.929 32.3454 29.5504 32.3453 30.1718C32.3453 30.2003 32.3453 30.2289 32.3453 30.2583C32.345 32.1659 32.3444 34.0734 32.3438 35.981C30.6605 35.9843 28.9773 35.9868 27.294 35.9884C27.095 35.9885 26.896 35.9887 26.697 35.9889C26.6574 35.989 26.6178 35.989 26.577 35.989C25.9367 35.9897 25.2963 35.9908 24.656 35.9921C23.9983 35.9935 23.3406 35.9943 22.683 35.9946C22.2776 35.9948 21.8722 35.9954 21.4668 35.9966C21.1883 35.9974 20.9098 35.9976 20.6313 35.9974C20.4709 35.9973 20.3106 35.9974 20.1502 35.9982C18.6137 36.0053 18.6137 36.0053 17.9527 35.7052C17.9247 35.6929 17.8967 35.6806 17.8678 35.6679C16.8957 35.2247 16.2001 34.4193 15.8131 33.4363C15.7797 33.3347 15.7536 33.2382 15.7309 33.134C15.7246 33.105 15.7183 33.076 15.7117 33.0461C15.707 33.0241 15.7023 33.0021 15.6974 32.9795C15.9814 32.972 16.2654 32.9662 16.5496 32.9627C16.6815 32.961 16.8134 32.9587 16.9453 32.955C17.0728 32.9514 17.2002 32.9495 17.3277 32.9486C17.3997 32.9477 17.4716 32.9452 17.5436 32.9426C17.8643 32.9425 17.8643 32.9425 17.9963 33.0503C18.0897 33.1669 18.1525 33.2719 18.1998 33.4135C18.2666 33.4519 18.2666 33.4519 18.3448 33.4858C18.3951 33.5199 18.4449 33.5546 18.4944 33.5898C18.775 33.7786 19.0706 33.8876 19.4103 33.8886C19.4686 33.8889 19.4686 33.8889 19.5282 33.8892C19.5919 33.8892 19.5919 33.8892 19.657 33.8893C19.7023 33.8895 19.7476 33.8896 19.7943 33.8898C19.92 33.8903 20.0457 33.8906 20.1715 33.8908C20.3071 33.8911 20.4426 33.8916 20.5782 33.8921C20.8131 33.8929 21.048 33.8935 21.2829 33.8941C21.6226 33.8949 21.9622 33.8959 22.3018 33.897C22.8528 33.8987 23.4038 33.9003 23.9548 33.9017C24.4901 33.9032 25.0254 33.9047 25.5606 33.9063C25.5936 33.9064 25.6266 33.9065 25.6606 33.9066C25.8261 33.9071 25.9916 33.9076 26.1572 33.9081C27.5303 33.9122 28.9034 33.916 30.2766 33.9197C30.275 32.17 30.2733 30.4203 30.2708 28.6706C30.2708 28.6447 30.2707 28.6188 30.2707 28.5921C30.2699 28.0292 30.2691 27.4664 30.2683 26.9035C30.2679 26.6275 30.2675 26.3515 30.2671 26.0755C30.267 26.048 30.267 26.0205 30.2669 25.9922C30.2657 25.102 30.2647 24.2118 30.264 23.3215C30.2632 22.4067 30.262 21.4918 30.2604 20.577C30.2602 20.4477 30.26 20.3185 30.2598 20.1893C30.2597 20.1511 30.2597 20.1511 30.2597 20.1122C30.259 19.7029 30.2587 19.2935 30.2585 18.8842C30.2583 18.4726 30.2578 18.061 30.2568 17.6494C30.2563 17.4264 30.256 17.2035 30.2561 16.9805C30.2562 16.7763 30.2558 16.5722 30.2551 16.368C30.2549 16.2942 30.2549 16.2203 30.2551 16.1465C30.2564 15.5649 30.211 15.1627 29.8089 14.7131C29.6452 14.5532 29.4637 14.4454 29.2611 14.3424C29.2375 14.3303 29.2138 14.3182 29.1894 14.3058C28.9171 14.1744 28.6446 14.128 28.3439 14.1295C28.3153 14.1294 28.2868 14.1292 28.2574 14.1291C28.1623 14.1287 28.0671 14.1288 27.972 14.1289C27.9029 14.1287 27.8338 14.1285 27.7647 14.1283C27.5752 14.1277 27.3858 14.1276 27.1963 14.1275C26.9918 14.1274 26.7874 14.1269 26.5829 14.1264C26.2288 14.1256 25.8746 14.125 25.5205 14.1246C25.0085 14.1241 24.4965 14.1232 23.9845 14.1222C23.1538 14.1205 22.3231 14.1192 21.4924 14.1181C20.6854 14.117 19.8785 14.1157 19.0716 14.1143C19.0467 14.1143 19.0218 14.1142 18.9962 14.1142C18.7463 14.1137 18.4964 14.1133 18.2466 14.1128C16.1517 14.109 14.0568 14.1057 11.9619 14.1028C12.0026 14.0389 12.0434 13.9749 12.0841 13.911C12.1068 13.8753 12.1295 13.8397 12.1528 13.803C12.2177 13.702 12.2845 13.6028 12.3535 13.5046C12.3885 13.4546 12.3885 13.4546 12.4242 13.4037C12.4482 13.3696 12.4721 13.3356 12.4968 13.3005C12.5479 13.2276 12.599 13.1548 12.65 13.0819C12.6748 13.0466 12.6996 13.0112 12.7251 12.9748C12.8399 12.8106 12.9534 12.6456 13.0667 12.4804C13.0945 12.4399 13.1228 12.3997 13.1518 12.36C13.203 12.2866 13.203 12.2866 13.2531 12.1625C13.4121 11.9452 13.7381 12.0076 13.981 12.0104Z" fill="#47B039"/>
<path d="M11.9621 15.694C17.8025 15.694 23.6429 15.694 29.6602 15.694C29.6602 16.3742 29.6602 17.0544 29.6602 17.7552C24.502 17.7552 19.3438 17.7552 14.0293 17.7552C14.0338 19.5303 14.0383 21.3054 14.0429 23.1344C14.0441 23.6949 14.0454 24.2554 14.0466 24.833C14.0481 25.3353 14.0481 25.3353 14.0496 25.8377C14.0503 26.0615 14.0508 26.2853 14.0512 26.5091C14.0516 26.7674 14.0522 27.0256 14.0532 27.2839C14.0537 27.4159 14.0541 27.548 14.0541 27.68C14.0542 27.8217 14.0548 27.9634 14.0555 28.1051C14.0554 28.1459 14.0553 28.1866 14.0553 28.2287C14.0594 28.822 14.1792 29.3048 14.5733 29.7611C14.8831 30.0551 15.3058 30.2398 15.7327 30.2407C15.769 30.2409 15.769 30.2409 15.8061 30.2411C15.887 30.2415 15.9679 30.2414 16.0488 30.2413C16.1075 30.2414 16.1663 30.2417 16.225 30.2419C16.3861 30.2425 16.5472 30.2426 16.7083 30.2426C16.8821 30.2428 17.0559 30.2433 17.2297 30.2438C17.5308 30.2446 17.8319 30.2452 18.1329 30.2455C18.5682 30.2461 19.0035 30.247 19.4388 30.248C20.1451 30.2497 20.8513 30.251 21.5576 30.2521C22.2436 30.2532 22.9297 30.2544 23.6157 30.2559C23.658 30.256 23.7003 30.2561 23.7439 30.2561C23.956 30.2566 24.1682 30.257 24.3803 30.2575C26.1403 30.2612 27.9003 30.2644 29.6602 30.2674C29.6602 30.9476 29.6602 31.6278 29.6602 32.3286C28.376 32.3508 28.376 32.3508 27.9773 32.3564C27.9499 32.3568 27.9225 32.3572 27.8942 32.3576C26.9721 32.3702 26.0499 32.3701 25.1277 32.3697C24.9381 32.3696 24.7484 32.3696 24.5588 32.3696C24.5311 32.3696 24.5034 32.3696 24.4749 32.3696C24.4186 32.3696 24.3623 32.3696 24.306 32.3697C23.7867 32.3698 23.2674 32.3696 22.7481 32.3694C22.3075 32.3693 21.8669 32.3693 21.4263 32.3695C20.9071 32.3697 20.3878 32.3697 19.8686 32.3696C19.8127 32.3696 19.7569 32.3696 19.7011 32.3696C19.6736 32.3696 19.6462 32.3696 19.618 32.3696C19.4294 32.3696 19.2408 32.3696 19.0522 32.3697C18.425 32.3699 17.7978 32.3689 17.1705 32.3654C17.0408 32.3648 16.9111 32.3643 16.7814 32.3639C16.58 32.3631 16.3787 32.3614 16.1774 32.3589C16.1052 32.3581 16.033 32.3576 15.9608 32.3574C15.2514 32.3552 14.6467 32.2095 14.0293 31.8585C13.9932 31.8384 13.9571 31.8183 13.9199 31.7976C13.6678 31.6479 13.4567 31.4599 13.247 31.2573C13.1987 31.211 13.1493 31.1658 13.0998 31.1207C12.4544 30.5154 12.0351 29.6274 11.9621 28.7485C11.9569 28.5718 11.9574 28.395 11.9577 28.2181C11.9577 28.1642 11.9577 28.1102 11.9576 28.0562C11.9576 27.9081 11.9577 27.76 11.9579 27.6119C11.958 27.4496 11.958 27.2874 11.958 27.1251C11.958 26.8103 11.9581 26.4954 11.9584 26.1806C11.9586 25.8163 11.9586 25.4521 11.9587 25.0878C11.9589 24.1263 11.9594 23.1647 11.9598 22.2032C11.9606 20.0551 11.9613 17.9071 11.9621 15.694Z" fill="#24AB40"/>
<path d="M32.9603 15.7664C33.0352 15.7828 33.11 15.7995 33.1848 15.8163C33.2474 15.8302 33.2474 15.8302 33.3111 15.8444C33.4753 15.8859 33.6225 15.9473 33.774 16.0218C33.8033 16.036 33.8326 16.0502 33.8628 16.0649C34.473 16.3701 35.0415 16.8377 35.3901 17.4298C35.403 17.4516 35.4158 17.4733 35.4291 17.4957C35.6398 17.858 35.7956 18.2163 35.8979 18.6232C35.9041 18.6468 35.9103 18.6704 35.9168 18.6947C35.9863 18.9911 35.982 19.2876 35.9828 19.59C35.9832 19.6514 35.9837 19.7127 35.9842 19.7741C35.9854 19.942 35.9861 20.1099 35.9868 20.2779C35.9875 20.4221 35.9884 20.5663 35.9893 20.7105C35.9925 21.2266 35.9947 21.7428 35.9966 22.2589C35.9968 22.2996 35.9969 22.3404 35.9971 22.3824C36.0002 23.1923 36.0028 24.0023 36.0046 24.8122C36.005 24.9901 36.0054 25.1679 36.0058 25.3458C36.0059 25.4121 36.0059 25.4121 36.0061 25.4797C36.0078 26.1958 36.0116 26.9119 36.0163 27.628C36.0211 28.3638 36.0238 29.0997 36.0246 29.8356C36.025 30.2485 36.0264 30.6614 36.0302 31.0743C36.0333 31.4259 36.0347 31.7775 36.0336 32.1291C36.0331 32.3083 36.0335 32.4875 36.0362 32.6667C36.0537 33.8537 36.0537 33.8537 35.7847 34.1736C35.6948 34.2615 35.6016 34.3372 35.4984 34.4091C35.3707 34.5034 35.2645 34.6198 35.1544 34.7335C35.1149 34.7724 35.0752 34.8112 35.0354 34.8498C34.9516 34.9333 34.873 35.0197 34.7957 35.1092C34.6598 35.266 34.5139 35.4111 34.3656 35.5561C34.3147 35.606 34.2639 35.6559 34.2132 35.7059C34.1911 35.7275 34.1689 35.7492 34.1461 35.7715C34.0819 35.8363 34.0819 35.8363 34.0266 35.9169C34.0015 35.9486 34.0015 35.9486 33.9757 35.981C33.9518 35.981 33.9279 35.981 33.9032 35.981C33.9032 35.9458 33.9032 35.9106 33.9032 35.8742C33.9019 33.7849 33.8998 31.6955 33.8968 29.6061C33.8964 29.3552 33.896 29.1043 33.8957 28.8534C33.8957 28.8285 33.8956 28.8035 33.8956 28.7778C33.8944 27.969 33.8938 27.1602 33.8933 26.3514C33.8929 25.4965 33.8919 24.6416 33.8904 23.7866C33.8894 23.2746 33.889 22.7626 33.889 22.2506C33.889 21.8995 33.8885 21.5483 33.8875 21.1972C33.887 20.9946 33.8867 20.792 33.887 20.5895C33.8873 20.4038 33.887 20.2182 33.8861 20.0326C33.8859 19.9656 33.8859 19.8986 33.8862 19.8317C33.8887 19.2492 33.8105 18.7233 33.3854 18.2849C33.2777 18.1868 33.1797 18.0987 33.0472 18.0362C32.9603 17.9723 32.9603 17.9723 32.9385 17.8755C32.9389 17.8365 32.9393 17.7976 32.9397 17.7574C32.9397 17.7133 32.9397 17.6691 32.9397 17.6236C32.9407 17.5759 32.9416 17.5283 32.9426 17.4791C32.9429 17.4298 32.9432 17.3805 32.9434 17.3312C32.944 17.2015 32.9458 17.0719 32.9478 16.9422C32.9497 16.8099 32.9505 16.6775 32.9514 16.5452C32.9534 16.2856 32.9565 16.026 32.9603 15.7664Z" fill="#72B732"/>
<path d="M15.625 18.3699C16.3072 18.3699 16.9894 18.3699 17.6922 18.3699C17.6922 22.0931 17.6922 25.8164 17.6922 29.6525C17.01 29.6525 16.3278 29.6525 15.625 29.6525C15.625 25.9292 15.625 22.206 15.625 18.3699Z" fill="#18A942"/>
</svg>
