<svg width="116" height="7" viewBox="0 0 116 7" fill="none" xmlns="http://www.w3.org/2000/svg">
<path opacity="0.35" d="M115.838 5.21453C111.051 5.14543 107.191 5.11723 103.334 5.0368C90.1304 4.7532 76.9233 4.33135 63.7334 4.18175C44.1632 3.95602 24.9092 4.77435 5.9814 6.4372C2.57544 6.73609 -0.0862701 5.81938 0.103945 4.23843C0.155099 3.82195 1.65331 3.2672 2.69899 3.19014C11.3933 2.5327 20.0995 1.84252 28.8852 1.40384C47.7469 0.461462 66.8565 0.707348 86.0197 1.31775C91.8532 1.50504 97.7794 1.67785 103.52 2.30336C107.452 2.7303 112.048 2.94238 115.848 5.21503L115.838 5.21453Z" fill="#23B35D"/>
</svg>
