<svg width="55" height="55" viewBox="0 0 55 55" fill="none" xmlns="http://www.w3.org/2000/svg">
<path d="M8.02083 35.5208L38.7292 4.35413C40.1042 2.97913 42.1667 2.97913 43.5417 4.35413L50.4167 11.2291C51.7917 12.6041 51.7917 14.6666 50.4167 16.0416L19.4792 46.9791L3.4375 51.5625L8.02083 35.5208Z" stroke="#282828" stroke-width="1.5" stroke-linecap="round" stroke-linejoin="round"/>
<path d="M44.6875 22L33 10.3125" stroke="#282828" stroke-width="1.5" stroke-linecap="round" stroke-linejoin="round"/>
<path d="M19.4779 46.9791V42.3958L14.8945 40.1041L12.6029 35.5208H8.01953" stroke="#282828" stroke-width="1.5" stroke-linecap="round" stroke-linejoin="round"/>
<path d="M12.6029 49.0416L5.95703 42.3958" stroke="#282828" stroke-width="1.5" stroke-linecap="round" stroke-linejoin="round"/>
<path d="M38.957 16.0416L14.8945 40.1041" stroke="#282828" stroke-width="1.5" stroke-linecap="round" stroke-linejoin="round"/>
<path d="M16.0417 27.5L3.4375 14.8958L14.8958 3.4375L27.5 16.0417" stroke="#282828" stroke-width="1.5" stroke-linecap="round" stroke-linejoin="round"/>
<path d="M38.9583 27.5L51.5625 40.1042L40.1042 51.5625L27.5 38.9583" stroke="#282828" stroke-width="1.5" stroke-linecap="round" stroke-linejoin="round"/>
<path d="M35.5195 46.9791L40.1029 42.3958" stroke="#282828" stroke-width="1.5" stroke-linecap="round" stroke-linejoin="round"/>
<path d="M30.9375 42.3958L35.5208 37.8125" stroke="#282828" stroke-width="1.5" stroke-linecap="round" stroke-linejoin="round"/>
<path d="M12.6055 24.0625L17.1888 19.4791" stroke="#282828" stroke-width="1.5" stroke-linecap="round" stroke-linejoin="round"/>
<path d="M8.01953 19.4791L12.6029 14.8958" stroke="#282828" stroke-width="1.5" stroke-linecap="round" stroke-linejoin="round"/>
</svg>
