<svg width="28" height="28" viewBox="0 0 28 28" fill="none" xmlns="http://www.w3.org/2000/svg">
<path d="M13.9987 2.33301C10.9167 2.37231 7.97204 3.61409 5.79258 5.79356C3.61312 7.97302 2.37134 10.9177 2.33203 13.9997C2.34644 15.7951 2.77504 17.5629 3.58446 19.1656C4.39388 20.7682 5.56229 22.1625 6.9987 23.2397V23.333H7.11536C9.09074 24.8467 11.51 25.6671 13.9987 25.6671C16.4874 25.6671 18.9067 24.8467 20.882 23.333H20.9987V23.2397C22.4351 22.1625 23.6035 20.7682 24.4129 19.1656C25.2224 17.5629 25.651 15.7951 25.6654 13.9997C25.6261 10.9177 24.3843 7.97302 22.2048 5.79356C20.0254 3.61409 17.0807 2.37231 13.9987 2.33301ZM9.4137 22.0847C9.58401 21.3047 10.0159 20.6064 10.6376 20.1056C11.2594 19.6048 12.0337 19.3316 12.832 19.3313H15.1654C15.9637 19.3316 16.738 19.6048 17.3598 20.1056C17.9815 20.6064 18.4134 21.3047 18.5837 22.0847C17.194 22.9023 15.611 23.3334 13.9987 23.3334C12.3864 23.3334 10.8034 22.9023 9.4137 22.0847ZM20.5437 20.5797C20.0999 19.5191 19.3527 18.6133 18.3958 17.9761C17.4389 17.3389 16.315 16.9986 15.1654 16.998H12.832C11.6824 16.9986 10.5585 17.3389 9.60162 17.9761C8.64473 18.6133 7.89747 19.5191 7.4537 20.5797C6.57947 19.7198 5.88325 18.6961 5.40481 17.5671C4.92638 16.4381 4.67511 15.2259 4.66536 13.9997C4.69563 11.5337 5.68867 9.17729 7.43249 7.43347C9.17632 5.68965 11.5327 4.6966 13.9987 4.66634C16.4647 4.6966 18.8211 5.68965 20.5649 7.43347C22.3087 9.17729 23.3018 11.5337 23.332 13.9997C23.3223 15.2259 23.071 16.4381 22.5926 17.5671C22.1141 18.6961 21.4179 19.7198 20.5437 20.5797Z" fill="#0A0A0A"/>
<path d="M13.9999 7.00026C13.3832 6.98589 12.7699 7.09678 12.1972 7.32622C11.6245 7.55565 11.1043 7.89887 10.6681 8.3351C10.2319 8.77134 9.88866 9.29153 9.65922 9.86421C9.42979 10.4369 9.3189 11.0502 9.33327 11.6669C9.3189 12.2837 9.42979 12.897 9.65922 13.4696C9.88866 14.0423 10.2319 14.5625 10.6681 14.9988C11.1043 15.435 11.6245 15.7782 12.1972 16.0076C12.7699 16.2371 13.3832 16.348 13.9999 16.3336C14.6167 16.348 15.23 16.2371 15.8026 16.0076C16.3753 15.7782 16.8955 15.435 17.3318 14.9988C17.768 14.5625 18.1112 14.0423 18.3406 13.4696C18.5701 12.897 18.681 12.2837 18.6666 11.6669C18.681 11.0502 18.5701 10.4369 18.3406 9.86421C18.1112 9.29153 17.768 8.77134 17.3318 8.3351C16.8955 7.89887 16.3753 7.55565 15.8026 7.32622C15.23 7.09678 14.6167 6.98589 13.9999 7.00026ZM13.9999 14.0003C13.6895 14.0153 13.3794 13.9652 13.0896 13.8532C12.7997 13.7413 12.5364 13.5699 12.3167 13.3502C12.0969 13.1305 11.9256 12.8672 11.8136 12.5773C11.7017 12.2874 11.6516 11.9773 11.6666 11.6669C11.6516 11.3565 11.7017 11.0464 11.8136 10.7565C11.9256 10.4667 12.0969 10.2034 12.3167 9.98366C12.5364 9.76392 12.7997 9.59257 13.0896 9.48062C13.3794 9.36867 13.6895 9.31859 13.9999 9.33359C14.3103 9.31859 14.6204 9.36867 14.9103 9.48062C15.2002 9.59257 15.4635 9.76392 15.6832 9.98366C15.9029 10.2034 16.0743 10.4667 16.1862 10.7565C16.2982 11.0464 16.3483 11.3565 16.3333 11.6669C16.3483 11.9773 16.2982 12.2874 16.1862 12.5773C16.0743 12.8672 15.9029 13.1305 15.6832 13.3502C15.4635 13.5699 15.2002 13.7413 14.9103 13.8532C14.6204 13.9652 14.3103 14.0153 13.9999 14.0003Z" fill="#0A0A0A"/>
</svg>
