<svg width="20" height="20" viewBox="0 0 20 20" fill="none" xmlns="http://www.w3.org/2000/svg">
<path d="M8.33333 18.3333H11.6667C15.8333 18.3333 17.5 16.6666 17.5 12.5V7.49996C17.5 3.33329 15.8333 1.66663 11.6667 1.66663H8.33333C4.16667 1.66663 2.5 3.33329 2.5 7.49996V12.5C2.5 16.6666 4.16667 18.3333 8.33333 18.3333Z" stroke="#787878" stroke-width="1.5" stroke-linecap="round" stroke-linejoin="round"/>
<path d="M13.75 6.31665V7.14998C13.75 7.83332 13.1917 8.39998 12.5 8.39998H7.5C6.81667 8.39998 6.25 7.84165 6.25 7.14998V6.31665C6.25 5.63332 6.80833 5.06665 7.5 5.06665H12.5C13.1917 5.06665 13.75 5.62498 13.75 6.31665Z" stroke="#787878" stroke-width="1.5" stroke-linecap="round" stroke-linejoin="round"/>
<path d="M6.7801 11.6667H6.78973" stroke="#787878" stroke-width="2" stroke-linecap="round" stroke-linejoin="round"/>
<path d="M9.99604 11.6667H10.0057" stroke="#787878" stroke-width="2" stroke-linecap="round" stroke-linejoin="round"/>
<path d="M13.2119 11.6667H13.2216" stroke="#787878" stroke-width="2" stroke-linecap="round" stroke-linejoin="round"/>
<path d="M6.7801 14.5833H6.78973" stroke="#787878" stroke-width="2" stroke-linecap="round" stroke-linejoin="round"/>
<path d="M9.99604 14.5833H10.0057" stroke="#787878" stroke-width="2" stroke-linecap="round" stroke-linejoin="round"/>
<path d="M13.2119 14.5833H13.2216" stroke="#787878" stroke-width="2" stroke-linecap="round" stroke-linejoin="round"/>
</svg>
