<svg width="20" height="20" viewBox="0 0 20 20" fill="none" xmlns="http://www.w3.org/2000/svg">
<path d="M14.6169 6.9252C15.7491 6.9252 16.6669 6.00738 16.6669 4.8752C16.6669 3.74301 15.7491 2.8252 14.6169 2.8252C13.4847 2.8252 12.5669 3.74301 12.5669 4.8752C12.5669 6.00738 13.4847 6.9252 14.6169 6.9252Z" stroke="#787878" stroke-width="1.5" stroke-miterlimit="10" stroke-linecap="round" stroke-linejoin="round"/>
<path d="M5.3835 6.9252C6.51569 6.9252 7.43349 6.00738 7.43349 4.8752C7.43349 3.74301 6.51569 2.8252 5.3835 2.8252C4.25132 2.8252 3.3335 3.74301 3.3335 4.8752C3.3335 6.00738 4.25132 6.9252 5.3835 6.9252Z" stroke="#787878" stroke-width="1.5" stroke-miterlimit="10" stroke-linecap="round" stroke-linejoin="round"/>
<path d="M14.6169 17.1752C15.7491 17.1752 16.6669 16.2574 16.6669 15.1252C16.6669 13.993 15.7491 13.0752 14.6169 13.0752C13.4847 13.0752 12.5669 13.993 12.5669 15.1252C12.5669 16.2574 13.4847 17.1752 14.6169 17.1752Z" stroke="#787878" stroke-width="1.5" stroke-miterlimit="10" stroke-linecap="round" stroke-linejoin="round"/>
<path d="M5.3835 17.1752C6.51569 17.1752 7.43349 16.2574 7.43349 15.1252C7.43349 13.993 6.51569 13.0752 5.3835 13.0752C4.25132 13.0752 3.3335 13.993 3.3335 15.1252C3.3335 16.2574 4.25132 17.1752 5.3835 17.1752Z" stroke="#787878" stroke-width="1.5" stroke-miterlimit="10" stroke-linecap="round" stroke-linejoin="round"/>
</svg>
