<svg width="20" height="20" viewBox="0 0 20 20" fill="none" xmlns="http://www.w3.org/2000/svg">
<path d="M18.3333 5.00008V7.01675C18.3333 8.33342 17.5 9.16675 16.1833 9.16675H13.3333V3.34175C13.3333 2.41675 14.0917 1.66675 15.0167 1.66675C15.925 1.67508 16.7583 2.04175 17.3583 2.64175C17.9583 3.25008 18.3333 4.08341 18.3333 5.00008Z" stroke="#787878" stroke-width="1.5" stroke-miterlimit="10" stroke-linecap="round" stroke-linejoin="round"/>
<path d="M1.66669 5.83341V17.5001C1.66669 18.1917 2.45 18.5834 3 18.1667L4.42502 17.1001C4.75835 16.8501 5.22502 16.8834 5.52502 17.1834L6.90834 18.5751C7.23334 18.9001 7.76671 18.9001 8.09171 18.5751L9.4917 17.1751C9.78337 16.8834 10.25 16.8501 10.575 17.1001L12 18.1667C12.55 18.5751 13.3334 18.1834 13.3334 17.5001V3.33341C13.3334 2.41675 14.0834 1.66675 15 1.66675H5.83335H5.00002C2.50002 1.66675 1.66669 3.15841 1.66669 5.00008V5.83341Z" stroke="#787878" stroke-width="1.5" stroke-miterlimit="10" stroke-linecap="round" stroke-linejoin="round"/>
<path opacity="0.4" d="M5 7.5H10" stroke="#787878" stroke-width="1.5" stroke-linecap="round" stroke-linejoin="round"/>
<path opacity="0.4" d="M5.625 10.8333H9.375" stroke="#787878" stroke-width="1.5" stroke-linecap="round" stroke-linejoin="round"/>
</svg>
