<svg width="20" height="21" viewBox="0 0 20 21" fill="none" xmlns="http://www.w3.org/2000/svg">
<path d="M9.99974 6.99997C10.4551 6.99997 10.9098 7.17548 11.2545 7.52019L16.6879 12.9535C16.7094 12.975 16.7227 13.0058 16.7227 13.0416C16.7227 13.0775 16.7094 13.1082 16.6879 13.1297C16.6663 13.1513 16.6356 13.1646 16.5997 13.1646C16.5639 13.1646 16.5332 13.1513 16.5116 13.1297L11.0783 7.69641C10.483 7.10115 9.51645 7.10115 8.92119 7.69641L3.48785 13.1297C3.46633 13.1513 3.43559 13.1645 3.39974 13.1645C3.36389 13.1645 3.33315 13.1513 3.31163 13.1297C3.2901 13.1082 3.27682 13.0775 3.27682 13.0416C3.27682 13.0058 3.2901 12.975 3.31163 12.9535L8.74496 7.52019C9.08967 7.17548 9.54443 6.99997 9.99974 6.99997Z" fill="#474747" stroke="#474747"/>
</svg>
