<svg xmlns="http://www.w3.org/2000/svg" width="18" height="18" viewBox="0 0 18 18" fill="none">
  <mask id="mask0_2184_22288" style="mask-type:alpha" maskUnits="userSpaceOnUse" x="0" y="0" width="18" height="18">
    <rect width="18" height="18" fill="#D9D9D9"/>
  </mask>
  <g mask="url(#mask0_2184_22288)">
    <path d="M6.75053 10.973L13.5812 4.71373C13.7362 4.57124 13.9336 4.5 14.1733 4.5C14.413 4.5 14.6107 4.571 14.7664 4.71301C14.9221 4.85501 15 5.03575 15 5.25523C15 5.47469 14.9221 5.65565 14.7664 5.79812L7.46213 12.471C7.25881 12.657 7.02161 12.75 6.75053 12.75C6.47946 12.75 6.24226 12.657 6.03894 12.471L3.23361 9.91423C3.07787 9.77234 3 9.59176 3 9.37247C3 9.15319 3.07761 8.97231 3.23282 8.82984C3.38803 8.68736 3.58558 8.61611 3.82547 8.61611C4.06534 8.61611 4.26313 8.68736 4.41885 8.82984L6.75053 10.973Z" fill="white"/>
  </g>
</svg>
