<svg xmlns="http://www.w3.org/2000/svg" width="416" height="23" viewBox="0 0 416 23" fill="none">
  <path opacity="0.35" d="M415.595 9.21922C398.405 9.43181 384.548 9.68028 370.694 9.78222C323.268 10.1081 275.811 10.047 228.452 10.7469C158.184 11.775 89.1932 15.7004 21.4867 21.9636C9.30324 23.0897 -0.373628 20.7479 0.095114 16.3037C0.222345 15.1329 5.52432 13.452 9.26683 13.1475C40.3817 10.5685 71.5346 7.89681 103.007 5.92279C170.574 1.68317 239.191 0.750674 308.05 0.834601C329.011 0.86427 350.304 0.845526 370.991 2.1105C385.16 2.97274 401.685 3.1768 415.632 9.21976L415.595 9.21922Z" fill="#49B958"/>
</svg>
