<svg width="193" height="21" viewBox="0 0 193 21" fill="none" xmlns="http://www.w3.org/2000/svg">
<path opacity="0.35" d="M192.251 10.1229C184.34 10.2259 177.96 10.3859 171.587 10.3995C149.771 10.423 127.955 10.0598 106.156 10.4575C73.8112 11.0372 41.9401 14.5199 10.5679 20.3466C4.9227 21.3941 0.565674 18.9927 0.955247 14.5553C1.0596 13.3863 3.56292 11.7406 5.2954 11.4602C19.7009 9.08153 34.1275 6.61054 48.6736 4.83863C79.9022 1.03292 111.484 0.538207 143.137 1.06059C152.773 1.22372 162.562 1.34059 172.023 2.73624C178.504 3.68797 186.093 3.9971 192.268 10.1237L192.251 10.1229Z" fill="#23B35D"/>
</svg>

