<svg xmlns="http://www.w3.org/2000/svg" width="154" height="13" viewBox="0 0 154 13" fill="none">
  <path opacity="0.35" d="M153.555 12.4217C147.231 12.0893 142.116 11.876 137.034 11.559C119.641 10.4575 102.321 9.08125 84.8722 8.24654C58.9853 7.00058 32.9398 7.84175 6.85958 10.3741C2.16675 10.8291 -0.862749 8.89935 0.266761 5.76621C0.565707 4.94086 2.8647 3.8998 4.29731 3.78931C16.2181 2.83745 28.1727 1.82106 40.0937 1.30755C65.6865 0.203929 90.95 1.47116 116.082 3.46477C123.732 4.07457 131.513 4.65939 138.796 6.13603C143.786 7.14448 149.778 7.75313 153.569 12.4231L153.555 12.4217Z" fill="#49B958"/>
</svg>
