<svg width="24" height="24" viewBox="0 0 24 24" fill="none" xmlns="http://www.w3.org/2000/svg">
<g id="authentication 1">
<path id="Vector" fill-rule="evenodd" clip-rule="evenodd" d="M10.76 3.945C11.07 3.752 11.499 3.5 12.002 3.5C12.504 3.5 12.934 3.752 13.242 3.945C13.301 3.981 13.356 4.015 13.408 4.049C13.672 4.216 13.855 4.332 14.043 4.382C14.246 4.436 14.479 4.428 14.803 4.415L14.972 4.409C15.33 4.398 15.826 4.391 16.252 4.639C16.682 4.887 16.927 5.321 17.096 5.639L17.179 5.797C17.328 6.081 17.433 6.282 17.577 6.425C17.721 6.569 17.921 6.675 18.205 6.824L18.363 6.907C18.681 7.076 19.115 7.319 19.363 7.75C19.61 8.176 19.603 8.672 19.592 9.03L19.586 9.2C19.573 9.524 19.565 9.757 19.619 9.96C19.669 10.147 19.784 10.33 19.951 10.594L20.055 10.759C20.247 11.068 20.5 11.497 20.5 12C20.5 12.503 20.247 12.932 20.055 13.24L19.951 13.406C19.784 13.67 19.668 13.854 19.617 14.041C19.563 14.245 19.572 14.477 19.584 14.801L19.59 14.971C19.602 15.329 19.608 15.825 19.361 16.251C19.112 16.681 18.679 16.925 18.361 17.094L18.203 17.177C17.919 17.327 17.718 17.432 17.574 17.576C17.43 17.719 17.325 17.92 17.176 18.204L17.093 18.362C16.923 18.68 16.68 19.113 16.25 19.362C15.824 19.609 15.328 19.602 14.97 19.591L14.8 19.584C14.476 19.572 14.243 19.564 14.04 19.617C13.853 19.667 13.67 19.783 13.408 19.95L13.241 20.055C12.931 20.248 12.502 20.5 11.999 20.5C11.497 20.5 11.067 20.248 10.759 20.055C10.703 20.0214 10.6477 19.9867 10.593 19.951C10.329 19.784 10.146 19.668 9.958 19.618C9.755 19.564 9.522 19.572 9.198 19.584L9.029 19.591C8.671 19.602 8.175 19.608 7.749 19.361C7.319 19.113 7.075 18.679 6.905 18.361L6.822 18.203C6.673 17.919 6.568 17.718 6.424 17.575C6.28 17.431 6.08 17.325 5.796 17.177L5.638 17.093C5.32 16.924 4.886 16.681 4.638 16.251C4.391 15.824 4.398 15.328 4.409 14.97L4.415 14.8C4.428 14.476 4.436 14.243 4.382 14.04C4.332 13.852 4.216 13.67 4.049 13.405L3.945 13.24C3.752 12.931 3.5 12.502 3.5 11.999C3.5 11.496 3.752 11.067 3.945 10.759L4.049 10.593C4.216 10.329 4.332 10.145 4.382 9.958C4.437 9.754 4.428 9.522 4.416 9.198L4.41 9.028C4.398 8.67 4.392 8.174 4.639 7.748C4.888 7.318 5.321 7.074 5.639 6.905L5.797 6.822C6.081 6.672 6.282 6.567 6.426 6.423C6.57 6.28 6.675 6.079 6.824 5.795L6.907 5.637C7.077 5.319 7.32 4.886 7.75 4.637C8.176 4.39 8.672 4.397 9.03 4.409L9.2 4.415C9.524 4.427 9.757 4.435 9.96 4.382C10.148 4.332 10.331 4.216 10.595 4.049L10.76 3.945Z" fill="#15C557"/>
<path id="Vector_2" fill-rule="evenodd" clip-rule="evenodd" d="M15.5746 9.17984C15.6822 9.25513 15.774 9.35089 15.8446 9.46165C15.9152 9.57242 15.9633 9.69601 15.9862 9.82537C16.009 9.95473 16.0062 10.0873 15.9778 10.2156C15.9493 10.3438 15.8959 10.4652 15.8206 10.5728L13.0706 14.5008C12.8944 14.7526 12.6626 14.9603 12.3932 15.108C12.1238 15.2557 11.8239 15.3393 11.5169 15.3524C11.21 15.3654 10.9041 15.3076 10.6231 15.1833C10.3421 15.059 10.0935 14.8717 9.8966 14.6358L8.2316 12.6398C8.14755 12.5389 8.08421 12.4224 8.04518 12.297C8.00615 12.1716 7.9922 12.0398 8.00414 11.909C8.01607 11.7782 8.05365 11.651 8.11472 11.5348C8.1758 11.4185 8.25918 11.3154 8.3601 11.2313C8.46102 11.1473 8.5775 11.0839 8.70291 11.0449C8.82831 11.0059 8.96017 10.9919 9.09096 11.0039C9.22175 11.0158 9.34891 11.0534 9.46518 11.1145C9.58145 11.1755 9.68455 11.2589 9.7686 11.3598L11.4306 13.3538L14.1806 9.42684C14.2559 9.31919 14.3517 9.22744 14.4624 9.15681C14.5732 9.08619 14.6968 9.03808 14.8261 9.01524C14.9555 8.99239 15.0881 8.99526 15.2163 9.02367C15.3446 9.05209 15.466 9.10549 15.5736 9.18084L15.5746 9.17984Z" fill="#83FFB3"/>
</g>
</svg>
