<svg width="16" height="17" viewBox="0 0 16 17" fill="none" xmlns="http://www.w3.org/2000/svg">
<g id="vuesax/linear/shield-security">
<g id="shield-security">
<path id="Vector" d="M6.99344 1.84543L3.66677 3.09876C2.9001 3.38543 2.27344 4.2921 2.27344 5.10543V10.0588C2.27344 10.8454 2.79344 11.8788 3.42677 12.3521L6.29344 14.4921C7.23344 15.1988 8.7801 15.1988 9.7201 14.4921L12.5868 12.3521C13.2201 11.8788 13.7401 10.8454 13.7401 10.0588V5.10543C13.7401 4.28543 13.1134 3.37876 12.3468 3.0921L9.0201 1.84543C8.45344 1.63876 7.54677 1.63876 6.99344 1.84543Z" stroke="#787878" stroke-width="1.2" stroke-linecap="round" stroke-linejoin="round"/>
<path id="Vector_2" d="M8.00033 8.69255C8.73671 8.69255 9.33366 8.09559 9.33366 7.35921C9.33366 6.62283 8.73671 6.02588 8.00033 6.02588C7.26395 6.02588 6.66699 6.62283 6.66699 7.35921C6.66699 8.09559 7.26395 8.69255 8.00033 8.69255Z" stroke="#787878" stroke-width="1.2" stroke-miterlimit="10" stroke-linecap="round" stroke-linejoin="round"/>
<path id="Vector_3" d="M8 8.69189V10.6919" stroke="#787878" stroke-width="1.2" stroke-miterlimit="10" stroke-linecap="round" stroke-linejoin="round"/>
</g>
</g>
</svg>
