<svg xmlns="http://www.w3.org/2000/svg" width="24" height="24" viewBox="0 0 24 24" fill="none">
  <path d="M18.1909 23.0845C17.9215 23.0845 17.6535 23.0018 17.4229 22.8371L11.9995 18.9478L6.57619 22.8371C6.3515 22.9988 6.08147 23.0853 5.80466 23.0844C5.52786 23.0834 5.25843 22.995 5.03486 22.8318C4.811 22.6696 4.64402 22.4409 4.55772 22.1783C4.47141 21.9157 4.47018 21.6325 4.55419 21.3691L6.57686 14.8411L1.20219 11.0538C0.979447 10.8894 0.814023 10.6591 0.72932 10.3956C0.644617 10.132 0.644922 9.84851 0.730193 9.58513C0.816312 9.3225 0.982698 9.09352 1.20589 8.9305C1.42908 8.76747 1.69781 8.67862 1.97419 8.67646L8.63086 8.66646L10.7502 2.30046C10.8377 2.03821 11.0054 1.81012 11.2297 1.6485C11.454 1.48687 11.7234 1.3999 11.9999 1.3999C12.2763 1.3999 12.5458 1.48687 12.77 1.6485C12.9943 1.81012 13.1621 2.03821 13.2495 2.30046L15.3329 8.66646L22.0235 8.67646C22.3003 8.67802 22.5695 8.76676 22.793 8.93006C23.0164 9.09336 23.1827 9.32292 23.2683 9.58613C23.3538 9.84934 23.3543 10.1328 23.2695 10.3963C23.1848 10.6598 23.0192 10.8898 22.7962 11.0538L17.4215 14.8411L19.4442 21.3691C19.5283 21.6324 19.5271 21.9155 19.441 22.1782C19.3548 22.4408 19.1879 22.6695 18.9642 22.8318C18.7399 22.9962 18.469 23.0847 18.1909 23.0845Z" fill="#23B35D"/>
</svg>
