<svg width="24" height="24" viewBox="0 0 24 24" fill="none" xmlns="http://www.w3.org/2000/svg">
<path d="M11.001 10H13.001V15H11.001V10ZM11 16H13V18H11V16Z" fill="#F23C2F"/>
<path d="M13.765 4.20018C13.417 3.54518 12.739 3.13818 11.997 3.13818C11.255 3.13818 10.577 3.54518 10.229 4.20118L2.89102 18.0642C2.72819 18.3686 2.64753 18.7102 2.657 19.0553C2.66647 19.4005 2.76574 19.7371 2.94502 20.0322C3.12172 20.3286 3.37266 20.5737 3.67307 20.7435C3.97348 20.9133 4.31297 21.0017 4.65802 21.0002H19.336C20.044 21.0002 20.685 20.6382 21.05 20.0322C21.229 19.737 21.3281 19.4004 21.3376 19.0553C21.3471 18.7103 21.2666 18.3687 21.104 18.0642L13.765 4.20018ZM4.65802 19.0002L11.997 5.13718L19.341 19.0002H4.65802Z" fill="#F23C2F"/>
</svg>
