<svg width="24" height="24" viewBox="0 0 24 24" fill="none" xmlns="http://www.w3.org/2000/svg">
<circle cx="12" cy="12" r="10" fill="url(#paint0_linear_5113_49711)"/>
<path d="M9.41914 16V14.56C10.2111 13.912 10.8711 13.356 11.3991 12.892C11.9351 12.42 12.3591 12.004 12.6711 11.644C12.9911 11.284 13.2191 10.956 13.3551 10.66C13.4911 10.364 13.5591 10.068 13.5591 9.772C13.5591 9.42 13.4631 9.148 13.2711 8.956C13.0871 8.756 12.8271 8.656 12.4911 8.656C12.1391 8.656 11.8471 8.764 11.6151 8.98C11.3831 9.196 11.2391 9.492 11.1831 9.868H9.33514C9.42314 9.052 9.75514 8.412 10.3311 7.948C10.9071 7.476 11.6511 7.24 12.5631 7.24C13.4911 7.24 14.2151 7.48 14.7351 7.96C15.2551 8.432 15.5151 9.092 15.5151 9.94C15.5151 10.34 15.4471 10.724 15.3111 11.092C15.1831 11.46 14.9671 11.84 14.6631 12.232C14.3591 12.624 13.9431 13.056 13.4151 13.528C12.8951 13.992 12.2431 14.524 11.4591 15.124L11.0151 14.584H15.6831V16H9.41914Z" fill="white"/>
<defs>
<linearGradient id="paint0_linear_5113_49711" x1="14.7344" y1="-10.139" x2="34.7958" y2="4.69396" gradientUnits="userSpaceOnUse">
<stop stop-color="#790C65"/>
<stop offset="0.605" stop-color="#AF058F"/>
<stop offset="1" stop-color="#C447AD"/>
</linearGradient>
</defs>
</svg>
