<svg width="24" height="24" viewBox="0 0 24 24" fill="none" xmlns="http://www.w3.org/2000/svg">
<circle cx="12" cy="12" r="10" fill="url(#paint0_linear_5113_49719)"/>
<path d="M12.5838 16.12C11.9758 16.12 11.4278 16.012 10.9398 15.796C10.4598 15.572 10.0678 15.248 9.76381 14.824C9.46781 14.392 9.29581 13.868 9.24781 13.252H11.0838C11.1478 13.748 11.2998 14.116 11.5398 14.356C11.7798 14.588 12.1038 14.704 12.5118 14.704C12.8638 14.704 13.1558 14.6 13.3878 14.392C13.6278 14.184 13.7478 13.88 13.7478 13.48C13.7478 13.096 13.6318 12.788 13.3998 12.556C13.1758 12.316 12.7918 12.196 12.2478 12.196H11.4798V10.804H12.2118C12.6838 10.804 13.0238 10.7 13.2318 10.492C13.4398 10.284 13.5438 10.02 13.5438 9.7C13.5438 9.396 13.4638 9.148 13.3038 8.956C13.1438 8.756 12.8718 8.656 12.4878 8.656C12.1598 8.656 11.8758 8.756 11.6358 8.956C11.3958 9.156 11.2478 9.46 11.1918 9.868H9.34381C9.41581 9.324 9.58781 8.856 9.85981 8.464C10.1318 8.072 10.4958 7.772 10.9518 7.564C11.4078 7.348 11.9398 7.24 12.5478 7.24C13.1558 7.24 13.6758 7.336 14.1078 7.528C14.5478 7.712 14.8878 7.976 15.1278 8.32C15.3678 8.664 15.4878 9.076 15.4878 9.556C15.4878 9.956 15.3958 10.308 15.2118 10.612C15.0278 10.916 14.7958 11.152 14.5158 11.32C14.2438 11.488 13.9678 11.572 13.6878 11.572L13.6758 11.32C14.0998 11.32 14.4638 11.424 14.7678 11.632C15.0718 11.832 15.3038 12.104 15.4638 12.448C15.6238 12.784 15.7038 13.16 15.7038 13.576C15.7038 14.096 15.5678 14.548 15.2958 14.932C15.0238 15.316 14.6518 15.612 14.1798 15.82C13.7078 16.02 13.1758 16.12 12.5838 16.12Z" fill="white"/>
<defs>
<linearGradient id="paint0_linear_5113_49719" x1="14.7344" y1="-10.139" x2="34.7958" y2="4.69396" gradientUnits="userSpaceOnUse">
<stop stop-color="#790C65"/>
<stop offset="0.605" stop-color="#AF058F"/>
<stop offset="1" stop-color="#C447AD"/>
</linearGradient>
</defs>
</svg>
