<svg width="24" height="24" viewBox="0 0 24 24" fill="none" xmlns="http://www.w3.org/2000/svg">
<circle cx="12" cy="12" r="10" fill="url(#paint0_linear_5113_49736)"/>
<path d="M12.0182 16.12C11.1302 16.12 10.4022 15.892 9.83423 15.436C9.26623 14.98 8.91423 14.34 8.77823 13.516H10.6142C10.6782 13.884 10.8382 14.176 11.0942 14.392C11.3502 14.6 11.6422 14.704 11.9702 14.704C12.3462 14.704 12.6462 14.576 12.8702 14.32C13.1022 14.056 13.2182 13.66 13.2182 13.132C13.2182 12.628 13.1102 12.244 12.8942 11.98C12.6782 11.708 12.3822 11.572 12.0062 11.572C11.7902 11.572 11.5862 11.624 11.3942 11.728C11.2022 11.824 11.0422 11.984 10.9142 12.208H9.23423L9.67823 7.36H14.6462V8.776H10.3262L11.3102 8.644L11.0942 11.344L10.4942 11.26C10.7022 10.932 10.9542 10.684 11.2502 10.516C11.5542 10.34 11.9382 10.252 12.4022 10.252C12.9542 10.252 13.4382 10.372 13.8542 10.612C14.2702 10.852 14.5942 11.188 14.8262 11.62C15.0582 12.052 15.1742 12.564 15.1742 13.156C15.1742 13.78 15.0422 14.312 14.7782 14.752C14.5142 15.192 14.1462 15.532 13.6742 15.772C13.2022 16.004 12.6502 16.12 12.0182 16.12Z" fill="white"/>
<defs>
<linearGradient id="paint0_linear_5113_49736" x1="14.7344" y1="-10.139" x2="34.7958" y2="4.69396" gradientUnits="userSpaceOnUse">
<stop stop-color="#790C65"/>
<stop offset="0.605" stop-color="#AF058F"/>
<stop offset="1" stop-color="#C447AD"/>
</linearGradient>
</defs>
</svg>
