<svg xmlns="http://www.w3.org/2000/svg" width="51" height="38" viewBox="0 0 51 38" fill="none">
<g clip-path="url(#clip0_5022_33544)">
<path d="M0.89563 33.8096H2.44555L3.1343 36.5076L3.82305 33.8096H5.37298V37.8851H4.39733V34.7852L3.53615 37.8851H2.73245L1.87128 34.7852V37.8851H0.89563V33.8096Z" fill="black"/>
<path d="M5.83243 35.8183C5.82376 35.6544 5.86247 35.4914 5.94392 35.3489C6.02537 35.2064 6.14612 35.0903 6.29176 35.0146C6.56974 34.8519 6.88855 34.7722 7.21041 34.7852C7.89916 34.7852 8.58791 34.9576 8.58791 35.7608V37.0238C8.56964 37.2781 8.60893 37.5331 8.70286 37.7701H7.72673C7.68072 37.6825 7.66077 37.5836 7.66926 37.4851C7.54162 37.6101 7.38795 37.7055 7.21921 37.7642C7.05048 37.823 6.87084 37.8438 6.69313 37.8252C6.56605 37.8425 6.43671 37.8312 6.31455 37.7922C6.19239 37.7531 6.08048 37.6873 5.98699 37.5995C5.89351 37.5117 5.8208 37.4041 5.77417 37.2847C5.72754 37.1652 5.70818 37.0368 5.71748 36.9089C5.71748 35.9332 6.75061 36.0477 7.43936 35.8758C7.61178 35.8183 7.66878 35.7608 7.66878 35.5908C7.66878 35.3613 7.38378 35.3058 7.20946 35.3058C6.92446 35.3058 6.75013 35.4207 6.75013 35.6501H5.83243V35.8183ZM7.09498 37.3107C7.55431 37.3107 7.72626 37.0257 7.66878 36.4496C7.55383 36.507 7.26693 36.5645 7.09498 36.622C6.86556 36.6795 6.69313 36.737 6.69313 37.0238C6.69313 37.2552 6.86556 37.3107 7.09498 37.3107Z" fill="black"/>
<path d="M10.0223 34.5558H9.04663V33.8096H10.0223V34.5558ZM9.04663 34.9021H10.0223V37.8295H9.04663V34.9021Z" fill="black"/>
<path d="M10.4814 33.8096H11.4571V37.8851H10.4814V33.8096Z" fill="black"/>
<path d="M13.524 33.8096H15.0739L15.7627 36.5076L16.4514 33.8096H18.0013V37.8851H17.0257V34.7852L16.1645 37.8851H15.3608L14.4996 34.7852V37.8851H13.524V33.8096Z" fill="black"/>
<path d="M19.3219 36.622C19.3116 36.71 19.3204 36.7993 19.3477 36.8836C19.375 36.9679 19.4201 37.0454 19.48 37.1107C19.5399 37.1761 19.6131 37.2278 19.6948 37.2623C19.7764 37.2968 19.8645 37.3133 19.9531 37.3108C20.0714 37.3129 20.188 37.2817 20.2894 37.2209C20.3909 37.16 20.4732 37.0718 20.5269 36.9664H21.4432C21.3537 37.2699 21.1619 37.5329 20.9002 37.7108C20.6386 37.8887 20.3233 37.9704 20.0082 37.942C19.797 37.9631 19.5838 37.9379 19.3833 37.8683C19.1828 37.7986 18.9998 37.6862 18.8471 37.5388C18.6944 37.3914 18.5756 37.2125 18.4989 37.0146C18.4223 36.8166 18.3896 36.6044 18.4032 36.3926C18.4086 36.1782 18.4575 35.9672 18.5468 35.7723C18.6361 35.5774 18.7641 35.4026 18.9229 35.2586C19.0817 35.1146 19.2681 35.0043 19.4708 34.9344C19.6735 34.8645 19.8883 34.8365 20.1021 34.8521C20.316 34.8676 20.5245 34.9264 20.7149 35.0248C20.9054 35.1233 21.0739 35.2594 21.2102 35.4248C21.3466 35.5903 21.4479 35.7817 21.5081 35.9875C21.5683 36.1933 21.5862 36.4091 21.5605 36.622H19.3219ZM20.5274 36.0482C20.532 35.9717 20.5203 35.895 20.493 35.8233C20.4658 35.7516 20.4237 35.6865 20.3695 35.6323C20.3153 35.5781 20.2502 35.536 20.1785 35.5088C20.1068 35.4815 20.0302 35.4698 19.9536 35.4744C19.7953 35.4724 19.6421 35.5305 19.525 35.637C19.4078 35.7435 19.3354 35.8904 19.3223 36.0482H20.5274Z" fill="black"/>
<path d="M24.6575 37.8276H23.7412V37.4832C23.6566 37.6171 23.537 37.7253 23.3954 37.7961C23.2537 37.8669 23.0954 37.8977 22.9375 37.885C22.0189 37.885 21.6175 37.0813 21.6175 36.2776C21.6175 35.5314 22.0193 34.7852 22.8805 34.7852C23.0457 34.7783 23.2102 34.8112 23.3601 34.8812C23.5099 34.9511 23.6408 35.056 23.7417 35.187V33.7521H24.7173V37.8276H24.6575ZM22.5338 36.3351C22.5338 36.737 22.7062 37.1963 23.1076 37.1963C23.5669 37.1963 23.6814 36.737 23.6814 36.3926C23.6814 35.9907 23.5089 35.5889 23.1076 35.5889C22.71 35.5314 22.5361 35.9907 22.5361 36.3351H22.5338Z" fill="black"/>
<path d="M26.0949 34.5558H25.1192V33.8096H26.0949V34.5558ZM25.1192 34.9021H26.0949V37.8295H25.1192V34.9021Z" fill="black"/>
<path d="M26.4972 35.8183C26.4885 35.6544 26.5272 35.4914 26.6087 35.3489C26.6901 35.2064 26.8109 35.0903 26.9565 35.0146C27.2345 34.8519 27.5533 34.7722 27.8751 34.7852C28.5639 34.7852 29.2526 34.9576 29.2526 35.7608V37.0238C29.2344 37.2781 29.2737 37.5331 29.3676 37.7701H28.3915C28.3455 37.6825 28.3255 37.5836 28.334 37.4851C28.2064 37.6101 28.0527 37.7055 27.8839 37.7642C27.7152 37.823 27.5356 37.8438 27.3579 37.8252C27.2308 37.8425 27.1014 37.8312 26.9793 37.7922C26.8571 37.7531 26.7452 37.6873 26.6517 37.5995C26.5582 37.5117 26.4855 37.4041 26.4389 37.2847C26.3923 37.1652 26.3729 37.0368 26.3822 36.9089C26.3822 35.9332 27.4153 36.0477 28.1041 35.8758C28.2765 35.8183 28.3335 35.7608 28.3335 35.5908C28.3335 35.3613 28.0485 35.3058 27.8742 35.3058C27.5892 35.3058 27.4149 35.4207 27.4149 35.6501H26.4972V35.8183ZM27.7027 37.3107C28.162 37.3107 28.334 37.0257 28.2765 36.4496C28.1616 36.507 27.8747 36.5645 27.7027 36.622C27.5308 36.6795 27.3009 36.737 27.3009 37.0238C27.3009 37.2552 27.5308 37.3107 27.7027 37.3107Z" fill="black"/>
<path d="M31.2609 33.8096H32.8108L33.4995 36.5076L34.1883 33.8096H35.7382V37.8851H34.7626V34.7852L33.9014 37.8851H33.0977L32.2365 34.7852V37.8851H31.2609V33.8096Z" fill="black"/>
<path d="M37.0587 36.622C37.0484 36.71 37.0572 36.7993 37.0845 36.8836C37.1118 36.9679 37.1569 37.0454 37.2168 37.1107C37.2767 37.1761 37.3499 37.2278 37.4316 37.2623C37.5132 37.2968 37.6013 37.3133 37.6899 37.3108C37.8083 37.3129 37.9248 37.2817 38.0262 37.2209C38.1277 37.16 38.21 37.0718 38.2638 36.9664H39.18C39.0906 37.2699 38.8987 37.5329 38.637 37.7108C38.3754 37.8887 38.0602 37.9704 37.745 37.942C37.5338 37.9631 37.3206 37.9379 37.1201 37.8683C36.9196 37.7986 36.7366 37.6862 36.5839 37.5388C36.4312 37.3914 36.3124 37.2125 36.2358 37.0146C36.1591 36.8166 36.1264 36.6044 36.14 36.3926C36.1454 36.1782 36.1943 35.9672 36.2836 35.7723C36.3729 35.5774 36.5009 35.4026 36.6597 35.2586C36.8185 35.1146 37.005 35.0043 37.2076 34.9344C37.4103 34.8645 37.6251 34.8365 37.839 34.8521C38.0528 34.8676 38.2613 34.9264 38.4517 35.0248C38.6422 35.1233 38.8107 35.2594 38.9471 35.4248C39.0834 35.5903 39.1847 35.7817 39.245 35.9875C39.3052 36.1933 39.323 36.4091 39.2973 36.622H37.0587ZM38.2642 36.0482C38.2688 35.9717 38.2571 35.895 38.2299 35.8233C38.2026 35.7516 38.1605 35.6865 38.1063 35.6323C38.0521 35.5781 37.987 35.536 37.9153 35.5088C37.8436 35.4815 37.767 35.4698 37.6904 35.4744C37.5321 35.4724 37.379 35.5305 37.2618 35.637C37.1447 35.7435 37.0722 35.8904 37.0591 36.0482H38.2642Z" fill="black"/>
<path d="M41.2491 35.5319H40.6748V36.8519C40.6748 37.0813 40.7897 37.1369 41.0192 37.1369H41.2486V37.8257H40.7323C39.9286 37.8257 39.6991 37.5962 39.6991 36.7925V35.4744H39.2398V34.8432H39.6991V33.9245H40.6748V34.8432H41.2491V35.5319Z" fill="black"/>
<path d="M41.4789 34.9001H42.3975V35.4169C42.4524 35.2364 42.5682 35.0805 42.7251 34.9758C42.8821 34.8711 43.0705 34.8241 43.2582 34.8427H43.4876V35.7038C43.3792 35.657 43.261 35.6373 43.1433 35.6464C43.0489 35.6418 42.9545 35.6561 42.8657 35.6884C42.7769 35.7207 42.6954 35.7704 42.6259 35.8345C42.5565 35.8986 42.5005 35.9758 42.4612 36.0618C42.4219 36.1477 42.4001 36.2407 42.397 36.3351V37.7701H41.4214V34.9001H41.4789Z" fill="black"/>
<path d="M44.6357 34.5558H43.66V33.8096H44.6357V34.5558ZM43.66 34.9021H44.6357V37.8295H43.66V34.9021Z" fill="black"/>
<path d="M46.989 35.9907C46.9784 35.8777 46.9248 35.773 46.8394 35.6983C46.7539 35.6235 46.6431 35.5844 46.5296 35.5889C46.0128 35.5889 45.8984 36.0482 45.8984 36.4501C45.8984 36.8519 46.0708 37.1963 46.4722 37.1963C46.5443 37.2026 46.617 37.194 46.6857 37.1711C46.7544 37.1481 46.8177 37.1112 46.8715 37.0627C46.9253 37.0142 46.9686 36.9552 46.9986 36.8893C47.0286 36.8233 47.0448 36.7519 47.046 36.6795H47.9627C47.9495 36.8611 47.9002 37.0383 47.8177 37.2006C47.7352 37.3629 47.621 37.5071 47.482 37.6248C47.343 37.7424 47.1819 37.8311 47.0082 37.8857C46.8345 37.9402 46.6516 37.9596 46.4703 37.9425C46.0592 37.9425 45.665 37.7792 45.3743 37.4886C45.0836 37.1979 44.9203 36.8037 44.9203 36.3926C44.9203 35.9815 45.0836 35.5873 45.3743 35.2966C45.665 35.006 46.0592 34.8427 46.4703 34.8427C46.8128 34.8049 47.1562 34.9046 47.4253 35.1199C47.6943 35.3351 47.8669 35.6483 47.9052 35.9907H46.989Z" fill="black"/>
<path d="M48.9984 36.8519C48.9967 36.919 49.0115 36.9856 49.0416 37.0457C49.0716 37.1057 49.116 37.1574 49.1709 37.1963C49.2756 37.26 49.3933 37.2993 49.5152 37.3112C49.6877 37.3112 49.9746 37.2537 49.9746 37.0262C49.9746 36.7987 49.6896 36.7412 49.5152 36.7412C48.8839 36.5688 48.1377 36.5688 48.1377 35.7656C48.1377 35.0768 48.8839 34.8469 49.4577 34.8469C50.089 34.8469 50.7778 35.0193 50.8353 35.8226H49.9166C49.9166 35.7076 49.8591 35.5931 49.8016 35.5931C49.7079 35.5684 49.6127 35.5493 49.5166 35.5357C49.3442 35.5357 49.1148 35.5357 49.1148 35.7651C49.1148 36.0501 49.7461 36.1095 50.2073 36.1669C50.4051 36.1949 50.5872 36.29 50.7231 36.4364C50.8589 36.5827 50.9403 36.7714 50.9535 36.9706C50.9535 37.7743 50.2073 38.0038 49.5185 38.0038C48.8298 38.0038 48.0798 37.7701 48.0798 36.9664H48.9984V36.8519Z" fill="black"/>
<path d="M38.6664 6.31418C38.437 4.65168 37.1165 3.73112 35.2796 3.73112C32.4672 3.73112 31.3761 6.20112 31.3761 8.6678C31.3761 11.1345 32.4686 13.6045 35.2796 13.6045C37.2889 13.6045 38.494 12.4564 38.6664 10.5046H43.0312C42.7994 14.8095 39.642 17.3375 35.3946 17.3375C30.343 17.3375 27.0712 13.49 27.0712 8.61032C27.0712 3.8475 30.343 0 35.3946 0C39.0108 0 42.9138 2.29615 43.0312 6.31418H38.6664Z" fill="black"/>
<path d="M8.12862 16.9338H12.4335L14.3278 24.3386H14.3853L16.2787 16.9338H20.5836V28.0697H17.8286V19.6318H17.7711L15.4184 28.0697H13.1798L10.8261 19.6318H10.7687V28.0697H8.01367V16.9338H8.12862Z" fill="black"/>
<path d="M24.7174 16.9338H27.6449L31.8353 28.0697H28.792L28.1032 26.0604H24.2006L23.5119 28.0697H20.527L24.7174 16.9338ZM24.9469 23.9367H27.4724L26.2669 20.0332H26.2094L24.9469 23.9367Z" fill="black"/>
<path d="M31.8356 16.9338H34.763V28.0697H31.8356V16.9338Z" fill="black"/>
<path d="M36.0832 16.9338H39.0106V25.6016H44.2356V28.1272H36.0832V16.9338Z" fill="black"/>
<path d="M20.9854 2.29614V0.34436H16.623V2.81436C18.0358 2.38821 19.5122 2.21282 20.9854 2.29614Z" fill="black"/>
<path d="M16.6232 11.4802C16.6232 13.0876 16.0494 13.6614 15.0733 13.6614C13.9808 13.6614 13.4108 13.0302 13.4108 11.9396V10.3911H9.33337V11.1373C9.33337 14.8684 10.7683 17.394 15.1882 17.394C19.0918 17.394 21.0431 15.4997 21.0431 11.7686V3.78857C19.4352 4.01897 17.924 4.6951 16.6807 5.74035V11.4802H16.6232Z" fill="black"/>
<path d="M26.2091 0.34436H21.8467V2.41061C23.4086 2.62457 24.9009 3.19326 26.2091 4.07311V0.34436Z" fill="black"/>
<path d="M21.8467 3.67368V17.0483H26.2091V4.30496C24.8233 3.75995 23.3301 3.54386 21.8467 3.67368Z" fill="black"/>
</g>
<defs>
<clipPath id="clip0_5022_33544">
<rect width="50.0546" height="38" fill="white" transform="translate(0.89563)"/>
</clipPath>
</defs>
</svg>