<svg width="64" height="24" viewBox="0 0 64 24" fill="none" xmlns="http://www.w3.org/2000/svg">
<path d="M24.6342 14.4485V23.7393L37.2989 23.7659V21.8679H27.9203V19.9433H37.2989V18.1117H27.9203V16.373H37.2989V14.475L24.6342 14.4485Z" fill="black"/>
<path d="M45.1454 14.4485V20.3813L41.2244 14.4485H38.4136V23.7393H39.4826V17.9392L43.647 23.7393H46.4445V14.4485H45.1454Z" fill="black"/>
<path d="M56.9484 14.3887L56.9484 23.745H63.6605V21.8336H58.779V19.8955H63.6605V18.051H58.7731V16.3H63.6605V14.3887H56.9484Z" fill="black"/>
<path d="M59.5039 13.331C61.9736 13.331 63.6605 12.2947 63.6605 10.3905C63.6605 8.70655 62.5674 7.91638 60.1382 7.51482C58.3837 7.22984 58.0329 6.98372 58.0329 6.45263C58.0329 5.93448 58.5187 5.63655 59.4499 5.63655C60.6645 5.63655 61.3933 6.08993 61.9331 6.64693L63.4986 5.39043C62.6214 4.44482 61.2988 3.77124 59.4094 3.77124C57.1286 3.77124 55.5901 4.80752 55.5901 6.50444C55.5901 8.20136 56.6968 8.95266 59.0045 9.38013C60.8669 9.71692 61.1908 9.97599 61.1908 10.546C61.1908 11.1159 60.5295 11.4657 59.5579 11.4657C58.2893 11.4657 57.4121 11.0123 56.6158 10.2739L55.1178 11.634C56.13 12.6833 57.628 13.331 59.5039 13.331Z" fill="black"/>
<path d="M31.4896 3.77128L29.0254 6.46982L26.8361 3.77128L22.9224 3.77124L27.2989 8.17409L22.7775 12.9242H26.6911L28.9388 9.89701L31.4745 12.9242L35.3882 12.9241L30.5652 8.09923L35.2432 3.77127L31.4896 3.77128Z" fill="black"/>
<path d="M19.1295 3.77124L19.1163 8.41156V12.9242H21.7605V3.77124H19.1295Z" fill="black"/>
<path d="M19.3354 23.9484C21.8639 23.9484 23.591 22.8901 23.591 20.9454C23.591 19.2256 22.4719 18.4186 19.9848 18.0085C18.1886 17.7175 17.8294 17.4661 17.8294 16.9237C17.8294 16.3946 18.3268 16.0903 19.2802 16.0903C20.5237 16.0903 21.2698 16.5533 21.8225 17.1222L23.4252 15.8389C22.5271 14.8732 21.1731 14.1853 19.2387 14.1853C16.9036 14.1853 15.3285 15.2436 15.3285 16.9767C15.3285 18.7097 16.4615 19.477 18.8242 19.9135C20.7309 20.2575 21.0625 20.5221 21.0625 21.1042C21.0625 21.6862 20.3855 22.0434 19.3907 22.0434C18.0919 22.0434 17.1938 21.5804 16.3786 20.8263L14.8449 22.2154C15.8812 23.287 17.4149 23.9484 19.3354 23.9484Z" fill="black"/>
<path d="M51.8792 23.9484C54.4077 23.9484 56.1348 22.8901 56.1348 20.9454C56.1348 19.2256 55.0156 18.4186 52.5286 18.0085C50.7324 17.7175 50.3731 17.4661 50.3731 16.9237C50.3731 16.3946 50.8705 16.0903 51.8239 16.0903C53.0674 16.0903 53.8136 16.5533 54.3662 17.1222L55.969 15.8389C55.0709 14.8732 53.7168 14.1853 51.7825 14.1853C49.4474 14.1853 47.8723 15.2436 47.8723 16.9767C47.8723 18.7097 49.0053 19.477 51.368 19.9135C53.2747 20.2575 53.6063 20.5221 53.6063 21.1042C53.6063 21.6862 52.9293 22.0434 51.9345 22.0434C50.6357 22.0434 49.7376 21.5804 48.9224 20.8263L47.3887 22.2154C48.4249 23.287 49.9586 23.9484 51.8792 23.9484Z" fill="black"/>
<path d="M36.4052 3.77124V12.9242H46.6511V11.0544H38.6189V9.15839H46.2737V7.35396H38.6189V5.64105H46.5379V3.77124H36.4052Z" fill="black"/>
<path d="M47.5432 3.77124V12.9242H54.3042V10.9628H49.757V3.77124H47.5432Z" fill="black"/>
<path d="M0.403625 3.3645V23.7043H3.97496V12.9092H12.093C16.0904 12.9092 18.0993 11.1955 18.0993 8.14681C18.0993 5.2575 16.2933 3.3645 12.0727 3.3645H0.403625ZM3.97496 10.28V6.00868H12.3024C13.662 6.00868 14.4062 6.93131 14.4062 8.08703C14.4062 9.68113 13.4791 10.28 12.2007 10.28H3.97496Z" fill="black"/>
<path d="M8.76934 23.9999C10.0581 23.9999 10.9172 23.6777 11.7361 23.0199C12.3536 23.5435 12.9711 23.7851 13.7766 23.9462L14.4075 22.1876C14.0317 22.1205 13.5618 21.9997 13.1054 21.6507C13.6155 20.8586 13.8303 20.0263 13.8303 18.657H11.763C11.7898 19.0732 11.7898 19.8384 11.6421 20.3351L9.81644 18.6436C11.4139 17.8516 11.763 17.1804 11.763 16.2272C11.763 15.0728 10.7293 14.1062 8.82304 14.1062C7.02418 14.1062 5.7623 14.9117 5.7623 16.3615C5.7623 17.1267 6.1516 17.6771 6.84967 18.3886C5.68175 18.9792 5.05081 19.8518 5.05081 20.9526C5.05081 23.1005 6.95706 23.9999 8.76934 23.9999ZM8.62167 17.5562C8.04443 16.9924 7.92361 16.7776 7.92361 16.3883C7.92361 15.9051 8.28607 15.6366 8.79619 15.6366C9.27946 15.6366 9.66877 15.9319 9.66877 16.3749C9.66877 16.8716 9.40028 17.1267 8.62167 17.5562ZM8.98413 22.1608C8.05785 22.1608 7.44034 21.6775 7.44034 20.8049C7.44034 20.2948 7.6417 19.8786 8.0847 19.5565L10.3668 21.7312C10.0312 21.9997 9.5748 22.1608 8.98413 22.1608Z" fill="black"/>
<ellipse cx="20.4384" cy="1.32209" rx="1.32209" ry="1.32209" fill="black"/>
</svg>
