<svg xmlns="http://www.w3.org/2000/svg" width="27" height="38" viewBox="0 0 27 38" fill="none">
<path d="M10.1046 29.5315C8.6757 29.5324 7.51807 30.6914 7.51868 32.1201C7.51929 33.5489 8.67794 34.707 10.1068 34.7067C11.5357 34.7064 12.6938 33.548 12.6938 32.119C12.6929 30.6896 11.5339 29.5315 10.1046 29.5315ZM11.0363 33.0508C10.5932 33.4953 9.89759 33.565 9.37521 33.2169C8.85278 32.8689 8.64918 32.2001 8.88892 31.6198C9.12866 31.0397 9.74498 30.7098 10.3607 30.8321C10.9765 30.9542 11.42 31.4946 11.42 32.1224C11.4203 32.4705 11.2823 32.8044 11.0363 33.0508ZM15.7531 29.5315C15.2898 29.5315 14.8353 29.6573 14.4377 29.8951C14.4377 29.083 14.4377 28.3539 14.4377 28.0101C14.4377 27.0136 13.1622 27.1133 13.1622 27.1133V32.1241C13.1631 33.5529 14.322 34.7105 15.7509 34.7099C17.1798 34.7093 18.3377 33.5506 18.3374 32.1219C18.3371 30.6928 17.1787 29.5347 15.7498 29.5347L15.7531 29.5315ZM16.6832 33.0508C16.2406 33.4945 15.5462 33.5639 15.0247 33.2164C14.5032 32.8689 14.2997 32.2013 14.5386 31.6221C14.7776 31.0426 15.3925 30.7127 16.0073 30.8342C16.6222 30.9554 17.0658 31.494 17.0668 32.1207C17.0687 32.4696 16.9305 32.8047 16.6832 33.0508ZM21.395 29.5298C20.3043 29.5301 19.331 30.2144 18.9614 31.2404C18.5918 32.2666 18.9053 33.4141 19.7451 34.1099C20.585 34.8058 21.771 34.9002 22.7104 34.3463V34.6518H23.9842V32.0542C23.95 30.6494 22.8004 29.5284 21.395 29.5298ZM22.3217 33.0508C21.8788 33.4928 21.1855 33.5604 20.6654 33.2126C20.1454 32.8646 19.9433 32.1979 20.1828 31.6198C20.4223 31.0418 21.0366 30.7133 21.6503 30.835C22.2641 30.9568 22.7064 31.4949 22.707 32.1207C22.7072 32.4696 22.5686 32.8041 22.3217 33.0508ZM5.26992 32.1489C5.26946 31.6414 5.11674 31.1454 4.83143 30.7256C5.35959 30.3934 5.25829 29.6046 5.25829 29.6046H2.71884C1.30856 29.6046 0.165298 30.7478 0.165298 32.1581C0.165298 33.5684 1.30856 34.7116 2.71884 34.7116H3.05102C3.47544 34.7128 3.8486 34.9929 3.96807 35.3999C4.08762 35.8073 3.92498 36.2446 3.56848 36.4749C3.21194 36.7052 2.74642 36.6735 2.42437 36.3971C2.10233 36.1205 2.00049 35.6654 2.17408 35.2779L1.02976 34.7614C0.5592 35.8038 0.958196 37.0334 1.95128 37.6008C2.94436 38.1683 4.20611 37.8878 4.86537 36.9533C5.52463 36.0186 5.36541 34.7358 4.4976 33.9908C4.99514 33.5077 5.27406 32.8424 5.26992 32.1489ZM1.8004 33.0658C1.43308 32.6994 1.31983 32.1489 1.51258 31.6673C1.70534 31.1857 2.16691 30.8653 2.68562 30.8535H2.78527C3.36386 30.8828 3.85286 31.2922 3.98339 31.8567C4.11399 32.421 3.85441 33.0036 3.34748 33.284C2.84053 33.5644 2.20911 33.4746 1.8004 33.0641V33.0658ZM24.524 27.1415V34.6984H25.7995C25.7995 34.6984 25.7995 29.0349 25.7995 28.04C25.7995 27.0452 24.524 27.1415 24.524 27.1415ZM5.76148 27.1415V34.6984H7.03703V28.0383C7.03703 27.0402 5.76148 27.1415 5.76148 27.1415ZM15.788 9.47516C15.0412 8.72507 14.0416 8.28032 12.9845 8.22784H12.6523C10.6959 8.27591 9.02074 9.64391 8.58279 11.5514C8.14484 13.4588 9.05544 15.4205 10.795 16.3172C12.5346 17.2138 14.6607 16.8174 15.9602 15.3541C17.2597 13.8907 17.4021 11.7327 16.3062 10.1112C16.1538 9.88347 15.9803 9.67048 15.788 9.47516Z" fill="black"/>
<path d="M17.7859 0H8.18125C3.761 0 0.177689 3.58331 0.177689 8.00356V17.6049C0.177994 21.4367 2.8936 24.7309 6.65498 25.4623C6.57127 25.0154 6.52897 24.5618 6.52875 24.1071C6.52875 23.9908 6.52875 23.8746 6.5387 23.7583C6.5387 23.7218 6.5387 23.6869 6.5387 23.6503C6.5387 23.5651 6.54535 23.4804 6.55865 23.3963C6.55865 23.3409 6.56473 23.2855 6.57689 23.2302C6.58521 23.1554 6.59517 23.0807 6.6068 23.0076C6.61843 22.9345 6.62838 22.8781 6.64001 22.8133L6.65829 22.7169C6.7048 22.4767 6.76017 22.2403 6.82435 22.0078C6.91467 21.6963 7.02563 21.3911 7.15654 21.0943L9.52657 22.1656L10.9383 22.8033C10.7551 23.2123 10.6611 23.6556 10.6625 24.1037C10.6623 24.628 10.7913 25.1442 11.0379 25.6068H16.6615C17.3238 24.3746 17.0997 22.8538 16.1101 21.8649C16.0487 21.8052 15.9855 21.7487 15.9191 21.6989C15.8527 21.649 15.7929 21.5976 15.7265 21.5494C15.1856 21.1527 14.532 20.9397 13.8613 20.9415C13.8613 20.9415 13.1339 20.9415 12.7702 20.9415C8.10958 20.9415 4.33143 17.1633 4.33143 12.5028C4.33143 7.84221 8.10958 4.06406 12.7702 4.06406C12.8449 4.06406 12.923 4.06406 12.996 4.06406H21.1607C21.1607 4.06406 21.4929 6.68652 19.754 7.76606C19.8736 7.94325 19.9843 8.12482 20.0862 8.31083C21.9942 11.6546 21.3978 15.8658 18.6362 18.5483C18.8023 18.6861 18.9468 18.8306 19.0946 18.9801L19.1694 19.0548C19.2242 19.1129 19.2773 19.1727 19.3355 19.2325L19.4268 19.3338C19.475 19.3903 19.5215 19.4484 19.5696 19.4999L19.6643 19.6178C19.7075 19.6743 19.7507 19.7324 19.7922 19.7839L19.8869 19.9151C19.9267 19.9716 19.9649 20.0297 20.0031 20.0812L20.0945 20.224C20.131 20.2822 20.1642 20.3403 20.1991 20.3901L20.2855 20.5429C20.317 20.6011 20.3486 20.6592 20.3785 20.719C20.4084 20.7787 20.4333 20.8269 20.4598 20.8851C20.4864 20.9432 20.5163 21.003 20.5429 21.0611C20.5695 21.1192 20.5927 21.1757 20.6176 21.2272C20.6425 21.2787 20.6675 21.3451 20.6907 21.4049C20.714 21.4647 20.7355 21.5245 20.7588 21.5859C20.782 21.6474 20.802 21.7039 20.8219 21.7636C20.8419 21.8234 20.8618 21.8899 20.8817 21.953C20.9016 22.0161 20.9166 22.0709 20.9332 22.129C20.9498 22.1872 20.9681 22.2619 20.9847 22.33C21.0013 22.3981 21.0129 22.4463 21.0262 22.5044C21.0395 22.5625 21.0544 22.6456 21.0677 22.7169C21.081 22.7884 21.0893 22.8299 21.0993 22.8831C21.1092 22.9362 21.1209 23.0358 21.1308 23.1122C21.1408 23.1886 21.1458 23.2185 21.1524 23.2783C21.1624 23.3647 21.1674 23.4527 21.174 23.5407C21.174 23.5856 21.174 23.6304 21.184 23.6753C21.1917 23.8081 21.1956 23.9421 21.1956 24.0772C21.1954 24.3312 21.1821 24.5851 21.1557 24.8378C23.9729 23.5302 25.7792 20.7108 25.7895 17.6049V8.00356C25.7895 3.58331 22.2061 0 17.7859 0Z" fill="black"/>
</svg>