<svg xmlns="http://www.w3.org/2000/svg" width="102" height="20" viewBox="0 0 102 20" fill="none">
<path fill-rule="evenodd" clip-rule="evenodd" d="M23.6803 0.47937L16.7789 19.6149H20.4387L22.0072 15.2231H28.804L30.3725 19.6149H34.0323L27.1309 0.47937H23.6803ZM27.5492 11.877H23.1574L25.3533 5.81221L27.5492 11.877ZM72.7215 0.583936H76.1722L83.1781 19.6149H79.5183L77.9498 15.2231H71.153L69.48 19.7194L65.8202 19.6149L72.7215 0.583936ZM74.4991 5.81221L76.695 11.877H72.3033L74.4991 5.81221ZM35.9144 0.583936H38.6331L48.3577 12.7135V0.583936H52.0175V19.7194H49.508L39.5742 7.27613V19.7194H35.9144V0.583936ZM67.8069 3.82547V0.583936H54.1088V3.82547H59.128V19.6149H62.7878V3.82547H67.8069ZM101.059 19.6149L95.0985 11.3542C95.8305 11.1451 96.4579 10.7268 96.8762 10.204C97.8172 9.15831 98.3401 7.69439 98.3401 6.23048C98.3401 4.76656 97.8172 3.30264 96.8762 2.25698C95.8305 1.10676 94.3666 0.583936 91.9616 0.583936H84.8511V19.7194H88.5109V11.9816H91.5433L97.0853 19.7194H101.059V19.6149ZM91.9616 3.82547H88.6155V8.63548H91.9616C92.7981 8.74005 93.6346 8.53092 94.262 7.90352C94.6803 7.3807 94.8894 6.85787 94.8894 6.23047C94.8894 5.60308 94.6803 4.97569 94.262 4.55743C93.6346 4.0346 92.7981 3.7209 91.9616 3.82547ZM15.8379 0.583936H11.8644L5.06761 10.0994L11.8644 19.6149H15.8379L9.0411 10.0994L15.8379 0.583936ZM3.91739 0.583936H0.571289V19.7194H3.91739V0.583936Z" fill="black"/>
<path d="M3.91736 0.583923H5.06758V19.7194H3.91736V0.583923Z" fill="black"/>
</svg>