<svg width="134" height="30" viewBox="0 0 134 30" fill="none" xmlns="http://www.w3.org/2000/svg">
<g clip-path="url(#clip0_8401_268)">
<path fill-rule="evenodd" clip-rule="evenodd" d="M15.4594 0.0571289C23.721 0.0571289 30.3867 6.75406 30.3867 14.9844C30.3867 23.2147 23.721 29.943 15.4594 29.943C7.19777 29.943 0.532135 23.246 0.532135 14.9844C0.532135 6.72277 7.22907 0.0571289 15.4594 0.0571289ZM15.4594 2.90489C22.1563 2.90489 27.5702 8.31877 27.5702 15.0157C27.5702 19.4595 25.1606 23.3712 21.5618 25.4679C22.3128 22.8392 22.6258 20.1479 22.5006 17.0498C23.2829 17.2689 23.721 17.394 24.5034 17.6444C23.5959 15.3599 22.6258 13.2945 21.3427 11.1978C20.2161 13.3571 18.6827 15.3912 17.1493 16.9872L19.6528 16.8308C17.4935 20.6799 14.458 22.5576 10.6088 23.0896C9.73259 18.7397 10.3898 11.6359 15.3029 8.31877L15.8036 10.6971C16.7738 9.16371 18.6514 7.12959 20.0596 5.72136C17.8378 4.84512 15.2716 4.56348 12.7681 5.03289C13.1749 5.37712 13.6756 5.81524 14.0825 6.15947C8.54342 8.50653 5.50789 12.3557 3.50507 16.8308C3.41119 16.2362 3.3799 15.6103 3.3799 15.0157C3.3799 8.31877 8.79377 2.90489 15.4594 2.90489Z" fill="black"/>
<path d="M43.718 22.2445C43.718 22.4635 43.718 22.6826 43.718 22.9016C43.1234 22.9016 42.5601 22.9016 41.9655 22.9016C41.9655 23.3085 41.9655 23.7466 41.9655 24.1534H43.9057C43.9057 24.3725 43.9057 24.5915 43.9057 24.8106H41.2144V20.4607H43.8744C43.8744 20.6798 43.8744 20.8988 43.8744 21.1179C43.2173 21.1179 42.5914 21.1179 41.9342 21.1179V22.2132C42.5288 22.2445 43.1234 22.2445 43.718 22.2445ZM38.1789 24.7793H35.5189V20.4607C35.7693 20.4607 36.0196 20.4607 36.27 20.4607V24.1221H38.2102C38.1789 24.3412 38.1789 24.5602 38.1789 24.7793ZM52.4177 20.492L51.4163 21.6499C51.2911 21.5873 51.166 21.556 51.0408 21.4934L51.4163 20.492C51.7293 20.492 52.0735 20.492 52.4177 20.492ZM54.2015 21.2743C54.1076 21.3369 54.045 21.4621 54.045 21.6812C54.045 22.0567 54.1702 22.1819 54.5144 22.2445L55.2029 22.307C55.8914 22.3696 56.2982 22.7452 56.2982 23.4962V23.7466C56.2982 23.9343 56.2669 24.1221 56.2043 24.2786C56.1417 24.435 56.0478 24.5602 55.9227 24.6541C55.7662 24.7793 55.5784 24.8106 55.3907 24.8419C55.2029 24.8732 54.9838 24.8732 54.7961 24.8732H53.3878C53.3878 24.6228 53.3878 24.3725 53.3878 24.1221H54.9212C54.9838 24.1221 55.0464 24.1221 55.109 24.1221C55.422 24.1221 55.6097 24.0595 55.5784 23.5901C55.5784 23.371 55.5158 23.2459 55.4532 23.1833C55.3594 23.1207 55.2342 23.0894 55.0777 23.0581L54.358 22.9955C54.1076 22.9642 53.826 22.9016 53.6382 22.7139C53.4504 22.5261 53.3252 22.2445 53.3252 21.775C53.3252 21.7125 53.3252 21.6499 53.3252 21.556C53.3565 21.0866 53.513 20.8049 53.7947 20.6485C54.0763 20.492 54.4518 20.4607 54.8274 20.4607H56.1104C56.1104 20.711 56.1104 20.9614 56.1104 21.2118H54.7335C54.4831 21.2118 54.2954 21.2118 54.2015 21.2743ZM62.9325 24.7793V20.4607H64.8102C64.9666 20.4607 65.1857 20.5233 65.3735 20.6485C65.5612 20.7736 65.6864 20.9927 65.6864 21.3369V21.8689C65.6864 22.2445 65.4986 22.4322 65.3735 22.5574C65.4986 22.6513 65.6864 22.8703 65.6864 23.2146V23.903C65.6864 24.3725 65.2796 24.7793 64.8102 24.7793H62.9325ZM64.8728 22.9642C64.8415 22.9329 64.7476 22.8703 64.685 22.8703H63.6523V24.0908H64.685C64.7476 24.0908 64.8102 24.0595 64.8728 23.9969C64.9041 23.9656 64.9354 23.903 64.9354 23.8092V23.152C64.9666 23.1207 64.9354 23.0268 64.8728 22.9642ZM64.9041 21.2118C64.8415 21.1492 64.7789 21.1179 64.685 21.1179H63.6523V22.2132H64.7163C64.7789 22.2132 64.8415 22.1819 64.9041 22.1193C64.9666 22.0567 64.9979 21.9628 64.9979 21.9002V21.3995C64.9666 21.3682 64.9354 21.2743 64.9041 21.2118ZM91.9734 22.2445H93.7259C93.7259 22.4635 93.7259 22.6826 93.7259 22.9016H91.9734V24.1534H93.9137C93.9137 24.3725 93.9137 24.5915 93.9137 24.8106H91.2537V20.4607C92.1299 20.4607 93.0374 20.4607 93.9137 20.4607C93.9137 20.6798 93.9137 20.8988 93.9137 21.1179H91.9734V22.2445ZM87.8739 24.7793H85.4643V20.4607C85.7146 20.4607 85.965 20.4607 86.2153 20.4607V24.1221H87.8739C87.8739 24.3412 87.8739 24.5602 87.8739 24.7793ZM82.5852 21.1492H81.4899V24.7793C81.2396 24.7793 80.9892 24.7793 80.7389 24.7793V21.1492H79.6436C79.6436 20.9301 79.6436 20.711 79.6436 20.492H82.5852C82.5852 20.711 82.5852 20.9301 82.5852 21.1492ZM76.7332 21.1492H75.6379V24.7793C75.3876 24.7793 75.1372 24.7793 74.8869 24.7793V21.1492H73.7916C73.7916 20.9301 73.7916 20.711 73.7916 20.492H76.7332C76.7332 20.711 76.7332 20.9301 76.7332 21.1492ZM69.1913 23.8717L68.9723 24.8106H68.1899L69.3791 20.492C69.6921 20.492 70.005 20.492 70.3492 20.492L71.5384 24.8106C71.288 24.8106 71.0064 24.8106 70.7561 24.8106L70.5057 23.8717H69.1913ZM69.3478 23.2146H70.2866L69.8172 21.3369L69.3478 23.2146ZM49.4761 21.1492C49.1005 21.1492 48.7563 21.1492 48.3808 21.1492V24.7793C48.1304 24.7793 47.8801 24.7793 47.6297 24.7793V21.1492C47.2542 21.1492 46.91 21.1492 46.5344 21.1492C46.5344 20.9301 46.5344 20.711 46.5344 20.492H49.4761C49.4761 20.711 49.4761 20.9301 49.4761 21.1492Z" fill="black"/>
<path d="M38.617 8.6941L39.681 14.7652H42.0594L44.6881 5.22046H42.3723L40.9328 11.4167L39.9314 5.22046H38.8987H38.3354H37.3027L36.3013 11.4167L34.8617 5.22046H32.546L35.1747 14.7652H37.553L38.617 8.6941Z" fill="black"/>
<path d="M46.1589 14.7652L46.597 12.7936H49.0067L49.4448 14.7652H51.6041L48.9754 5.22046H46.597L43.9996 14.7652H46.1589ZM47.8175 7.56751L48.6312 11.1663H47.0039L47.8175 7.56751Z" fill="black"/>
<path d="M54.7648 11.1977H56.0791L57.3622 14.7652H59.7406L58.0507 10.7909C58.7704 10.5405 59.2399 9.91463 59.2399 9.16357V7.03557C59.2399 6.15934 58.6453 5.50216 57.8629 5.3144C57.3622 5.18922 56.8615 5.22052 56.3295 5.22052H52.7307V14.7652H54.7648V11.1977ZM54.7648 7.06687H56.486C56.8615 7.06687 57.2057 7.25463 57.2057 7.69275V8.63157C57.2057 9.10098 56.8928 9.32004 56.486 9.32004H54.7648V7.06687Z" fill="black"/>
<path d="M65.3422 14.8591C66.3436 14.8591 66.9382 14.5775 67.4389 14.2019V9.13231H64.2156V10.9474H65.4048C65.4048 11.5732 65.4048 12.1052 65.4048 12.7624C65.217 12.7937 64.9979 12.825 64.7789 12.825H63.9652C62.8074 12.825 62.5257 12.0114 62.5257 11.1351V8.75678C62.5257 7.84925 62.9325 7.19207 64.0278 7.19207H67.2824V5.15796H63.9026C62.025 5.15796 60.6794 6.28455 60.4916 8.22478C60.4916 8.38125 60.4603 8.53772 60.4603 8.69419V11.4481C60.4603 13.4509 61.8372 14.8591 63.7149 14.8591H65.3422Z" fill="black"/>
<path d="M70.2554 14.7652L70.6935 12.7936H73.1031L73.5412 14.7652H75.7005L73.0718 5.22046H70.6935L68.0961 14.7652H70.2554ZM71.8827 7.56751L72.6963 11.1663H71.069L71.8827 7.56751Z" fill="black"/>
<path d="M83.6179 8.91316V14.7652H85.5895V5.22046H83.0234L81.1144 12.3242L79.2368 5.22046H76.6707V14.7652H78.6109V8.91316L80.0817 14.7652H82.1471L83.6179 8.91316Z" fill="black"/>
<path d="M89.3134 14.7652V5.22046H87.2793V14.7652H89.3134Z" fill="black"/>
<path d="M98.0445 14.7652V5.22046H96.073V10.916L93.0061 5.22046H91.0033V14.7652H92.9436V9.06963L96.0417 14.7652H98.0445Z" fill="black"/>
<path d="M118.354 14.7652V5.22046H116.383V10.916L113.316 5.22046H111.313V14.7652H113.253V9.06963L116.352 14.7652H118.354Z" fill="black"/>
<path d="M125.615 8.91316H121.953V7.06681H125.99V5.22046H119.919V14.7652H125.99V12.9188H121.953V10.7282H125.615V8.91316Z" fill="black"/>
<path d="M133.657 7.06681V5.22046H127.023V7.06681H129.339V14.7652H131.373V7.06681H133.657Z" fill="black"/>
<path d="M104.116 14.8591C105.117 14.8591 105.712 14.5775 106.212 14.2019V9.13231H102.989V10.9474H104.178C104.178 11.5732 104.178 12.1052 104.178 12.7624C103.99 12.7937 103.771 12.825 103.552 12.825H102.739C101.581 12.825 101.299 12.0114 101.299 11.1351V8.75678C101.299 7.84925 101.706 7.19207 102.801 7.19207H106.056V5.15796H102.676C100.798 5.15796 99.4527 6.28455 99.2649 8.22478C99.2649 8.38125 99.2336 8.53772 99.2336 8.69419V11.4481C99.2336 13.4509 100.611 14.8591 102.488 14.8591H104.116Z" fill="black"/>
<path fill-rule="evenodd" clip-rule="evenodd" d="M107.84 12.9814H109.811V14.9217H107.84V12.9814Z" fill="black"/>
</g>
<defs>
<clipPath id="clip0_8401_268">
<rect width="133.125" height="30" fill="white" transform="translate(0.532135)"/>
</clipPath>
</defs>
</svg>
