<svg width="39" height="38" viewBox="0 0 39 38" fill="none" xmlns="http://www.w3.org/2000/svg">
<path d="M0.386719 38H38.3121V0H0.386719V38Z" fill="black"/>
<path fill-rule="evenodd" clip-rule="evenodd" d="M34.5382 0.0012207L27.4441 10.885L27.4506 10.8802L38.3053 0.0012207H34.5382Z" fill="#FAFAFE"/>
<path fill-rule="evenodd" clip-rule="evenodd" d="M15.7112 26.0537C15.7112 26.3893 15.9898 26.5569 16.6624 26.5569C17.3329 26.5569 17.6123 26.3893 17.6123 26.0537V16.4992C17.6123 14.0055 18.5901 12.9695 21.3038 12.9695H21.8073C22.1988 12.9695 22.3374 12.6326 22.3374 12.0993C22.3374 11.4559 21.9743 11.3156 20.9116 11.3156C17.891 11.3156 15.7112 12.6599 15.7112 16.3303V26.0537ZM24.2399 26.0537C24.2399 26.3893 24.5193 26.5569 25.1908 26.5569C25.861 26.5569 26.1407 26.3893 26.1407 26.0537V11.8201C26.1407 11.4835 25.861 11.3156 25.1908 11.3156C24.5193 11.3156 24.2399 11.4835 24.2399 11.8201V26.0537ZM29.5804 18.404L34.9774 12.4363C35.1737 12.2127 35.312 12.0437 35.312 11.8761C35.312 11.5392 34.5857 11.2002 34.1107 11.2002C33.7748 11.2002 33.4954 11.4559 33.2436 11.7355L27.3423 18.2921C27.0647 18.6 27.0075 18.768 27.0075 18.9369C27.0075 19.1046 27.0647 19.2725 27.3423 19.5804L33.2436 26.1367C33.4954 26.4166 33.7748 26.6723 34.1107 26.6723C34.5857 26.6723 35.312 26.3333 35.312 25.9961C35.312 25.8288 35.1737 25.6612 34.9774 25.4376L29.5804 19.4688C29.329 19.1892 29.1893 19.0486 29.1893 18.9369C29.1893 18.8239 29.329 18.6847 29.5804 18.404Z" fill="#FAFAFE"/>
<path fill-rule="evenodd" clip-rule="evenodd" d="M13.6127 25.0329V19.5724C13.6127 19.2317 13.3337 19.0617 12.6629 19.0617C11.991 19.0617 11.7116 19.2317 11.7116 19.5724V24.1276C11.7116 24.8346 11.4043 25.1173 9.9781 25.1173C7.09752 25.1173 5.30813 22.9106 5.30813 19.1474C5.30813 15.2125 7.51653 12.9776 11.2925 12.9776H12.3824C12.7746 12.9776 12.9146 12.6382 12.9146 12.1016C12.9146 11.4503 12.5514 11.3086 11.4884 11.3086H11.0408C6.6512 11.3086 3.26733 13.7415 3.26733 19.1761C3.26733 24.3823 6.23075 26.7032 9.94948 26.7032C12.9146 26.7032 13.6127 25.8816 13.6127 25.0329Z" fill="#FAFAFE"/>
<path fill-rule="evenodd" clip-rule="evenodd" d="M19.3484 17.9604C19.9225 17.9604 20.3889 18.4261 20.3889 19.0027C20.3889 19.5782 19.9225 20.0455 19.3484 20.0455C18.7744 20.0455 18.3079 19.5782 18.3079 19.0027C18.3079 18.4261 18.7744 17.9604 19.3484 17.9604Z" fill="#FAFAFE"/>
</svg>
