<svg xmlns="http://www.w3.org/2000/svg" width="42" height="38" viewBox="0 0 42 38" fill="none">
<rect x="0.516022" width="22.3333" height="38" fill="black"/>
<path d="M26.7641 11.838C26.9758 11.808 27.2462 11.8002 27.2175 11.4591C27.2057 11.3141 27.1587 11.1978 27.0463 11.1599C26.393 10.9208 25.7058 11.2801 25.4066 11.4853C25.2903 11.565 26.1774 11.9739 26.7641 11.838V11.838Z" fill="white"/>
<path fill-rule="evenodd" clip-rule="evenodd" d="M40.5131 0.0149702H21.8593C22.036 1.25875 22.1533 2.1716 22.2793 3.40031L22.2774 3.40024L22.2796 3.42044C22.2524 3.42946 21.9168 3.54714 21.9494 3.8393C21.9886 4.17247 22.1323 4.25217 22.1323 4.25217L21.9729 4.33056C21.9729 4.33056 21.7966 4.06925 21.7966 4.0797C21.7966 4.04516 21.7984 4.00856 21.8003 3.97138C21.8126 3.72733 21.8262 3.45849 21.3262 3.58322C21.2166 3.82888 21.3226 3.96893 21.4183 4.09548C21.4972 4.19979 21.5692 4.29493 21.5078 4.43249C21.1971 4.45041 21.1553 4.32972 21.1253 4.24348C21.0964 4.15997 21.0786 4.10875 20.8388 4.24695C20.8715 4.10324 20.7683 3.72433 20.6154 3.74394C20.6077 3.76916 20.5986 3.79637 20.5891 3.8251C20.5165 4.04339 20.4147 4.34973 20.6272 4.54486C20.5066 4.59108 20.3704 4.56695 20.2731 4.48216C20.2461 4.44145 20.2624 4.38969 20.2833 4.32322C20.3182 4.21263 20.3658 4.06131 20.2483 3.85238C19.9526 3.98172 19.9556 4.19567 19.9584 4.40015C19.961 4.58604 19.9634 4.76411 19.7413 4.86366C19.4927 4.83186 19.556 4.71064 19.6397 4.55043C19.728 4.38145 19.8389 4.16911 19.6303 3.9726C19.1717 4.07972 18.994 4.56706 19.1821 4.85452C19.1764 4.99347 19.1159 5.09473 19.0568 5.19369C19.0075 5.27617 18.9592 5.35706 18.9443 5.45685C18.7144 5.42025 18.6164 5.33535 18.5902 5.24649C18.5797 5.1895 18.6281 5.14222 18.6823 5.08928C18.7822 4.99171 18.9018 4.87494 18.7078 4.64285C18.4634 4.68216 18.4228 4.90317 18.394 5.05938C18.3654 5.21468 18.3486 5.30596 18.1552 5.09102C18.1133 4.90547 17.9905 4.73824 17.8938 4.71864C17.7083 4.84928 17.6208 5.06619 17.741 5.25302L17.937 5.51435C17.9244 5.51104 17.9458 5.54799 17.9669 5.5844L17.9669 5.5844C17.9876 5.62016 18.008 5.6554 17.9957 5.65152C17.673 5.3902 17.2418 5.20599 16.9675 5.50258C16.9988 5.74763 17.1881 5.78828 17.4895 5.85301L17.4895 5.85301C17.5272 5.8611 17.5666 5.86957 17.6077 5.87886C17.2479 5.91204 17.113 6.02021 17.0004 6.11058C16.9666 6.13769 16.9348 6.16319 16.8995 6.1846C16.8453 5.8745 16.4907 5.82251 16.1556 5.77337L16.1443 5.77172C16.0478 5.79652 15.9681 5.77284 15.9016 5.75306C15.8385 5.73429 15.7872 5.71903 15.7445 5.75213C15.9065 6.12491 16.2436 6.39244 16.6435 6.4655C16.7631 6.46649 16.8809 6.43536 16.9845 6.37533C17.1939 6.4746 17.2075 6.5174 17.2443 6.63299L17.2443 6.633C17.2516 6.65586 17.2598 6.68157 17.2706 6.71113C17.0703 6.8023 16.8929 6.77869 16.7128 6.75473H16.7128C16.5651 6.73508 16.4156 6.71518 16.2502 6.75816C16.2502 6.77122 16.1548 6.77122 16.1496 6.74639C16.1472 6.73499 16.1379 6.71531 16.1292 6.69685L16.1292 6.69685C16.1189 6.67515 16.1095 6.65515 16.113 6.65233C15.9562 6.34528 15.5329 6.46549 15.3095 6.53081C15.2768 6.77645 15.5211 6.97375 15.721 7.05344C15.9915 7.15274 16.079 7.07174 16.079 7.07174L16.1901 6.96983C16.2854 7.32359 16.4039 7.40517 16.5679 7.51804L16.5679 7.51805C16.6062 7.54441 16.6469 7.57248 16.6905 7.60613C16.6402 7.62474 16.5961 7.64272 16.5554 7.65938C16.3929 7.72573 16.2821 7.77101 16.0293 7.75116C15.6727 7.19064 14.6026 6.945 14.6444 7.20894C14.7972 7.78905 15.5864 7.92885 15.5864 7.92885C15.5864 7.92885 15.1722 8.08433 15.2441 8.22021C15.2723 8.27359 15.3728 8.31912 15.4797 8.36756C15.6448 8.4424 15.8253 8.52419 15.7785 8.65267C15.214 8.39136 15.1043 8.50244 15.4884 9.00414C15.211 9.01791 15.1321 8.84567 15.0544 8.67626C14.9994 8.55609 14.945 8.43735 14.8208 8.38745C14.6039 8.54945 14.7332 8.89047 14.7332 8.89047C14.704 8.86689 14.6621 8.81429 14.6118 8.75119C14.4754 8.58008 14.2776 8.33177 14.1048 8.37569C14.0277 8.4358 14.0277 8.69841 14.2158 8.87217C14.1612 8.88428 14.0989 8.89167 14.0349 8.89926C13.8294 8.92362 13.6064 8.95007 13.5625 9.14133C13.9336 9.43006 14.3269 9.42877 14.9096 9.35431C14.9834 9.3512 15.0563 9.338 15.1265 9.3151C15.2375 9.2772 15.4022 9.4353 15.4022 9.4353C15.2853 9.46199 15.2365 9.4939 15.1811 9.53007C15.1009 9.58245 15.007 9.64374 14.6731 9.71099C14.3034 9.8913 14.012 10.1252 14.012 10.4949C14.242 10.6099 14.5216 10.721 14.6731 10.4949C14.8301 10.2641 14.8604 10.2982 14.9058 10.3493C14.9319 10.3786 14.963 10.4136 15.0259 10.4074L15.2167 10.4688C15.1397 10.6629 14.8887 10.7583 14.6758 10.8393C14.4587 10.9219 14.281 10.9894 14.3674 11.1312C14.4942 11.3265 14.6376 11.5106 14.796 11.6813C14.796 11.6813 14.1871 11.3677 14.012 11.5911C13.8369 11.8145 14.2119 12.136 14.8508 12.2823C14.7854 12.3215 14.6707 12.3371 14.5544 12.353C14.2828 12.3901 14.0034 12.4283 14.3282 12.7696C13.7755 13.0074 13.9558 13.1747 14.4027 13.0545L14.6143 13.078C14.5841 13.0994 14.54 13.1258 14.4902 13.1556C14.3249 13.2544 14.0984 13.3898 14.1205 13.5013C14.1329 13.603 14.2641 13.5834 14.3953 13.5639C14.5118 13.5465 14.6282 13.5291 14.6614 13.5967C14.6833 13.7418 14.5694 13.8289 14.4911 13.8887C14.4574 13.9145 14.4303 13.9352 14.4236 13.9534C14.5758 14.0511 14.6976 13.9888 14.8142 13.9292C14.9408 13.8645 15.0612 13.803 15.2075 13.9534C15.1632 14.0389 15.0619 14.083 14.9633 14.126C14.818 14.1893 14.6788 14.2499 14.7372 14.4368C14.8253 14.5025 14.9408 14.5213 15.0562 14.54C15.1701 14.5585 15.2839 14.577 15.3708 14.6406C15.3708 14.6406 15.1383 15.0966 15.2585 15.1567C15.4371 15.2493 15.6079 15.0704 15.7234 14.9493C15.771 14.8995 15.8091 14.8595 15.8347 14.8523C15.8009 15.1281 15.9065 15.2103 15.9944 15.2787C16.073 15.3399 16.1374 15.39 16.0751 15.5578L16.0749 15.6033C16.0735 15.7884 16.0719 16.0204 16.2515 16.1144C16.6513 15.9838 16.6892 15.6676 16.68 15.1868C16.68 15.0195 17.1399 15.2965 17.1399 15.2965C17.2696 15.4028 17.1791 15.4972 17.0654 15.6159C16.9316 15.7555 16.7656 15.9286 16.8878 16.1941C17.2543 16.2462 17.4122 16.088 17.5771 15.9229C17.7019 15.7979 17.8307 15.6689 18.0571 15.6244C18.2198 15.7397 18.1015 15.9064 17.9924 16.0603L17.9924 16.0604C17.9481 16.1229 17.9053 16.1833 17.8834 16.2372C17.7773 16.2977 17.6638 16.315 17.5483 16.3327C17.3066 16.3697 17.0559 16.4081 16.8447 16.8448C17.2516 17.0138 17.4592 16.902 17.6124 16.8195C17.6274 16.8115 17.6419 16.8037 17.656 16.7964C17.7216 16.7483 17.7545 16.7115 17.7811 16.6818C17.8123 16.6469 17.8348 16.6217 17.8912 16.5991C17.8933 16.6356 17.8932 16.6782 17.8931 16.7235V16.7236C17.8927 16.8989 17.8921 17.1148 18.0219 17.174C18.1258 17.1657 18.1619 17.1362 18.2186 17.0898C18.2416 17.071 18.2682 17.0493 18.3041 17.0251C18.3635 17.0875 18.3261 17.1911 18.2871 17.299C18.2405 17.4281 18.1916 17.5635 18.3041 17.6418C18.4156 17.62 18.5085 17.5433 18.551 17.438C18.6249 17.5603 18.7781 17.6089 18.909 17.5516C18.973 17.3896 18.9887 17.016 18.7784 16.8827C18.8302 16.8197 18.9224 16.8531 19.0134 16.886C19.0942 16.9153 19.1741 16.9442 19.2239 16.9049C19.3134 17.0163 19.2709 17.1742 19.2285 17.3319C19.1774 17.5219 19.1263 17.7117 19.3062 17.8195C19.4774 17.8033 19.5521 17.702 19.6341 17.5909C19.7043 17.4958 19.7798 17.3935 19.9255 17.3308C19.9064 17.446 19.9395 17.5502 19.9704 17.6475C20.0281 17.8295 20.0781 17.9874 19.7648 18.1474C19.7648 18.2815 19.8665 18.3434 19.9651 18.4034C20.1038 18.4879 20.2363 18.5685 20.0706 18.8412C20.1652 19.0023 20.291 18.9643 20.4076 18.929C20.4262 18.9233 20.4446 18.9178 20.4625 18.9131L20.7448 18.5904C20.6588 18.9103 20.6494 19.246 20.7173 19.5703C20.6851 19.6512 20.6882 19.7355 20.6914 19.8199C20.6978 19.9917 20.7043 20.1639 20.4116 20.3085C20.3946 20.3949 20.38 20.4816 20.3655 20.5677C20.2774 21.0908 20.1924 21.5956 19.5911 21.9299C19.3931 22.3113 18.662 22.3985 17.9161 22.4874C17.1849 22.5745 16.4395 22.6634 16.1679 23.0327C16.2985 23.1633 17.5698 23.1254 17.7358 23.0745C17.8771 23.0046 17.9995 23.0494 18.1277 23.0964C18.2174 23.1293 18.31 23.1632 18.4139 23.1594C18.5995 23.1594 18.7971 23.1387 18.9951 23.118H18.9952C19.3922 23.0765 19.7907 23.0347 20.0967 23.1594C20.4899 23.1555 20.8423 23.162 21.188 23.1683L21.1882 23.1683C21.4169 23.1725 21.6425 23.1767 21.875 23.1777L21.9285 22.8341C22.9205 16.4242 22.9737 9.88788 22.2796 3.42044L22.2813 3.41988L22.2793 3.40031C22.7086 3.416 22.7317 3.88675 22.4851 4.21555C22.5548 4.53969 22.6575 4.32329 22.7214 4.18874L22.7373 4.15544C22.6615 3.6328 22.7843 3.43813 23.2403 3.3545C23.3032 3.60594 23.2396 3.72891 23.1941 3.81677C23.1357 3.92978 23.1072 3.98471 23.4167 4.18025C23.415 4.15499 23.4116 4.11984 23.4076 4.07786C23.3756 3.74198 23.3017 2.9685 23.678 3.31924C23.6943 3.34678 23.6901 3.38913 23.6854 3.43737C23.6776 3.51728 23.6683 3.61337 23.7473 3.68506C23.7999 3.60729 23.8231 3.52673 23.8418 3.46155L23.8418 3.46154C23.8571 3.40848 23.8694 3.36562 23.8923 3.34275C24.4149 3.09189 23.9955 3.93463 23.7486 3.99603C23.8975 4.27695 24.1562 4.0862 24.1902 3.92417C23.746 3.88236 24.4515 3.37411 24.7547 3.40156C24.8605 3.62238 24.4933 3.96338 24.2163 4.15545C24.3054 4.16039 24.3373 4.29664 24.3595 4.39131C24.3901 4.5217 24.4021 4.57321 24.5195 4.09403C24.5479 4.02367 24.6473 3.91624 24.7839 3.76865C24.8603 3.68605 24.9483 3.59087 25.0421 3.48256C25.2735 3.87849 25.2302 3.86974 25.1268 3.84884C25.0422 3.83174 24.9173 3.80649 24.8696 3.98819C24.7102 4.3096 25.2747 4.08227 25.2825 3.81572C25.2564 3.42375 25.9084 3.79481 25.5686 3.94638C25.5686 3.95234 25.559 3.96708 25.5471 3.98511C25.5019 4.05397 25.4252 4.17082 25.7359 4.03C26.0087 3.9491 25.9167 4.15475 25.8129 4.38678L25.8129 4.3868C25.786 4.44704 25.7582 4.50907 25.7359 4.56831L25.7509 4.55268C25.9374 4.35871 26.0402 4.25173 26.086 4.28608C26.1084 4.30289 26.1233 4.34116 26.1372 4.37711C26.172 4.46693 26.2012 4.54229 26.3291 4.2325C26.753 4.41464 26.6312 4.55901 26.5451 4.6612C26.4897 4.72688 26.449 4.77513 26.5773 4.80478C26.6354 4.77208 26.6764 4.72094 26.7143 4.67355C26.7915 4.57708 26.8563 4.49615 27.0281 4.61794C27.1499 4.75491 27.1296 4.8362 27.1094 4.91745C27.0981 4.96254 27.0869 5.00762 27.1 5.06219C27.1997 4.9875 27.3134 4.93372 27.4344 4.9041C27.5318 4.94424 27.5213 5.03556 27.5118 5.11886C27.5045 5.18196 27.4978 5.24046 27.539 5.26863C27.6996 4.9041 28.0145 5.37444 27.9387 5.51425C27.8757 5.62782 27.946 5.618 28.0487 5.60362C28.1825 5.58492 28.3713 5.55851 28.3934 5.78603C28.4099 5.897 28.3585 6.00708 28.2628 6.06564C28.5568 5.97027 28.6979 6.41188 28.5332 6.68758C28.8325 6.68758 28.8507 7.3095 28.6639 7.47152C28.6639 7.47152 28.9122 7.55775 28.8168 8.00981C28.7933 8.12095 28.7433 8.13284 28.7059 8.14173C28.687 8.14622 28.6714 8.14995 28.6639 8.1653C28.7946 8.68008 28.8403 9.08642 28.7384 10.0232C28.7376 10.2812 28.6076 10.5216 28.3922 10.6634C27.9729 11.1442 28.3603 11.639 28.6691 12.0332C28.7144 12.0911 28.7581 12.1468 28.7972 12.2C28.8505 12.2744 28.9257 12.3651 29.0081 12.4646C29.2977 12.8141 29.6768 13.2716 29.508 13.5065C29.4562 13.6897 29.1847 13.7966 28.9519 13.8882C28.7382 13.9724 28.5571 14.0437 28.609 14.1494C28.7567 14.4512 28.9148 14.8523 28.9148 14.8523C28.9148 14.8523 29.2349 15.2443 28.2732 15.4154C27.3351 15.5761 28.6979 15.8675 28.6979 15.8675C28.8262 16.0553 28.7109 16.1724 28.5755 16.3098L28.5755 16.3098C28.5441 16.3417 28.5117 16.3746 28.481 16.4097C28.3613 16.6219 28.3431 16.8765 28.4313 17.1035C28.8311 17.6614 28.8233 18.0364 28.2236 18.218C27.8081 18.3487 26.2311 18.5002 25.2917 18.4048L25.242 18.3985C24.9458 18.3604 24.5168 18.3052 24.4711 18.708C24.4753 18.9372 24.4603 19.1244 24.4459 19.3038V19.3038C24.4241 19.5764 24.4037 19.8308 24.4541 20.187C24.4541 20.6054 24.6411 20.9298 24.7921 21.1917L24.8304 21.2584C24.8913 21.3448 24.9471 21.4366 25.0039 21.5298C25.2688 21.9651 25.5521 22.4307 26.4453 22.5179C26.6711 22.5976 26.974 22.594 27.2794 22.5903C27.8401 22.5835 28.4096 22.5766 28.528 23.0849C28.4435 23.0808 28.3642 23.0985 28.2486 23.1244L28.2486 23.1244L28.2486 23.1244C28.1103 23.1554 27.92 23.1981 27.6069 23.2287C26.0676 23.2496 25.4892 23.1816 24.9181 23.1144C24.5633 23.0727 24.2114 23.0313 23.6336 23.0118C23.3938 23.0238 23.111 23.0624 22.8269 23.1013L22.8269 23.1013C22.492 23.1471 22.1555 23.1932 21.8854 23.196C21.7826 23.8406 21.6698 24.4864 21.547 25.1336L21.4164 25.8052L21.3798 25.9907L21.2988 26.3931C21.1803 26.9637 21.054 27.5355 20.9199 28.1087C21.5183 28.4693 22.1324 28.9749 22.1324 29.8882C22.1324 30.9883 21.2844 31.6651 19.9478 31.8115C19.3572 33.8436 18.6643 35.9019 17.869 37.9863H36.5163C41.6119 24.692 42.3123 12.6781 40.5131 0.0136108V0.0149702H40.5131ZM26.3369 31.8429C24.296 31.8429 22.8653 30.3939 22.8653 28.3857C22.8653 26.3396 24.2699 25.0043 26.3369 25.0043C28.4038 25.0043 29.7823 26.3775 29.7823 28.3857C29.7823 30.2907 28.4038 31.8416 26.3369 31.8416V31.8429ZM31.0848 31.6165C31.5958 31.7342 32.0676 31.8429 32.7077 31.8429L32.7037 31.8416C34.367 31.8416 35.4606 31.136 35.4554 29.8883C35.4554 28.7667 34.5328 28.2593 33.847 27.8822L33.8169 27.8657C33.7616 27.8358 33.7068 27.8064 33.6527 27.7773C32.9969 27.4253 32.445 27.129 32.445 26.7669C32.445 26.4259 32.9245 26.2612 33.6092 26.2612C33.9985 26.2807 34.3856 26.3313 34.7668 26.4128V25.1062C34.2848 25.0401 33.7991 25.0034 33.3126 24.9965C31.8087 24.9965 30.6903 25.6263 30.6903 26.7604C30.6903 27.7259 31.6128 28.4837 32.3418 28.8509C32.4591 28.9173 32.5711 28.9792 32.6769 29.0376C33.2949 29.3791 33.7007 29.6032 33.7007 29.9379C33.7007 30.3678 33.2355 30.5821 32.7704 30.5821C32.122 30.5821 31.4015 30.353 30.917 30.199C30.8801 30.1873 30.8446 30.176 30.8105 30.1653V31.5541C30.9039 31.5748 30.9949 31.5958 31.0848 31.6165Z" fill="white"/>
<path d="M26.3368 26.3879C25.1805 26.3879 24.6213 27.1836 24.6213 28.3831C24.6213 29.5825 25.2459 30.4579 26.3368 30.4579C27.4814 30.4579 28.0262 29.5616 28.0262 28.387C28.0262 27.1248 27.467 26.3918 26.3368 26.3918V26.3879Z" fill="white"/>
<path fill-rule="evenodd" clip-rule="evenodd" d="M28.2475 23.1246C28.1094 23.1553 27.9195 23.1976 27.6081 23.2287L27.6068 23.2379C26.0679 23.2588 25.4899 23.1908 24.919 23.1237C24.5642 23.0819 24.212 23.0405 23.6336 23.021C23.3984 23.0327 23.1222 23.0712 22.8439 23.11C22.5038 23.1574 22.1606 23.2052 21.8854 23.2052L21.9389 22.8616C22.9319 16.4463 22.9829 9.90176 22.2878 3.42773C22.719 3.44079 22.7425 3.91377 22.4955 4.24302C22.5659 4.57044 22.6688 4.35086 22.7334 4.21314C22.7384 4.20248 22.7432 4.1923 22.7477 4.18291C22.6706 3.66291 22.7947 3.46562 23.2507 3.38199C23.3136 3.63345 23.25 3.75667 23.2045 3.8447C23.1461 3.95794 23.1176 4.01295 23.4271 4.20774C23.4255 4.17996 23.4219 4.14026 23.4176 4.09268C23.3868 3.75091 23.3191 3.00266 23.6884 3.34673C23.7052 3.37431 23.7006 3.41674 23.6953 3.46506C23.6867 3.54494 23.6763 3.64093 23.7577 3.71257C23.8106 3.63361 23.8341 3.55264 23.8531 3.48748C23.8683 3.43512 23.8806 3.39296 23.9027 3.37026C24.4319 3.10895 24.0059 3.9569 23.759 4.02354C23.9093 4.30445 24.1679 4.11368 24.2006 3.95166C23.7564 3.91377 24.4593 3.40552 24.765 3.42906C24.8709 3.65116 24.509 3.99087 24.2268 4.18293C24.3158 4.18788 24.3477 4.32413 24.3699 4.4188C24.4005 4.5492 24.4125 4.6007 24.5299 4.12152C24.5618 4.05084 24.661 3.94277 24.7973 3.79418C24.8727 3.71203 24.9595 3.6175 25.0525 3.51006C25.2836 3.9056 25.2407 3.89686 25.1375 3.87586C25.0528 3.85865 24.9277 3.8332 24.88 4.0157C24.7206 4.3371 25.2838 4.10454 25.2929 3.84321C25.2655 3.45126 25.9188 3.81838 25.579 3.97387C25.5802 3.98035 25.5694 3.99727 25.5565 4.01752C25.5122 4.0871 25.4427 4.19613 25.7463 4.05749C26.0097 3.97787 25.9237 4.1758 25.8249 4.40328C25.7972 4.46695 25.7686 4.53293 25.7463 4.59579C25.7514 4.59048 25.7564 4.58524 25.7614 4.58006C25.9478 4.38616 26.0506 4.27921 26.0964 4.31357C26.1189 4.33038 26.1337 4.36865 26.1476 4.4046C26.1824 4.49441 26.2116 4.56978 26.3395 4.26001C26.7622 4.44197 26.6408 4.58624 26.5548 4.68841C26.4994 4.75423 26.4587 4.80258 26.5877 4.83227C26.6459 4.79952 26.6863 4.74826 26.7238 4.70081C26.7998 4.60444 26.8634 4.52374 27.0385 4.64543C27.1604 4.78251 27.14 4.86438 27.1197 4.94573C27.1085 4.99078 27.0973 5.03566 27.1104 5.08968C27.2101 5.01501 27.3238 4.96121 27.4448 4.93159C27.5423 4.97249 27.5317 5.0642 27.5222 5.14743C27.5149 5.21041 27.5083 5.26854 27.5493 5.29612C27.7101 4.93159 28.025 5.40326 27.9492 5.54176C27.8857 5.65719 27.9573 5.6474 28.0611 5.63319C28.1947 5.61492 28.3818 5.58932 28.4039 5.81352C28.4203 5.92451 28.3689 6.0346 28.2732 6.09313C28.5672 5.99776 28.7083 6.43938 28.5437 6.71507C28.8455 6.70331 28.8625 7.33177 28.6743 7.49902C28.6743 7.49902 28.9226 7.58524 28.8272 8.03731C28.8037 8.14846 28.7537 8.16034 28.7163 8.16924C28.6975 8.17372 28.6818 8.17745 28.6743 8.19279C28.8037 8.70759 28.8507 9.11393 28.7488 10.0507C28.737 10.3006 28.6044 10.5291 28.3934 10.6635C27.9742 11.1443 28.3616 11.639 28.6704 12.0333C28.7157 12.0911 28.7593 12.1469 28.7985 12.2C28.8517 12.2744 28.9269 12.3652 29.0094 12.4647C29.299 12.8142 29.6781 13.2716 29.5092 13.5066C29.4575 13.6898 29.1859 13.7967 28.9532 13.8883C28.7394 13.9724 28.5584 14.0437 28.6103 14.1494C28.758 14.4499 28.916 14.8524 28.916 14.8524C28.916 14.8524 29.2361 15.2509 28.2745 15.4155C27.3377 15.5762 28.6992 15.8676 28.6992 15.8676C28.828 16.056 28.7121 16.1733 28.5757 16.3114C28.5447 16.3428 28.5127 16.3752 28.4823 16.4098C28.3626 16.6219 28.3443 16.8765 28.4326 17.1036C28.8324 17.6602 28.818 18.0351 28.2249 18.2181C27.8094 18.3448 26.2323 18.499 25.2929 18.4049C25.278 18.403 25.2626 18.401 25.2468 18.3989C24.9486 18.3598 24.5196 18.3034 24.4724 18.708C24.4765 18.9372 24.4615 19.1244 24.4472 19.3038C24.4253 19.5764 24.405 19.8309 24.4554 20.187C24.4507 20.6002 24.6369 20.9216 24.7876 21.1818C24.8027 21.2079 24.8175 21.2335 24.8317 21.2584C24.8916 21.344 24.9467 21.4348 25.0026 21.5269C25.2677 21.9636 25.5511 22.4306 26.4466 22.5179C26.6743 22.5977 26.9777 22.5942 27.2832 22.5906C27.8437 22.5842 28.4109 22.5776 28.5293 23.085C28.4442 23.0808 28.3644 23.0986 28.2475 23.1246ZM27.045 11.16C26.3878 10.9209 25.7045 11.2802 25.4053 11.4853C25.2903 11.5637 26.1709 11.9739 26.7628 11.8381C26.7784 11.8359 26.7944 11.8338 26.8106 11.8317C27.0137 11.8051 27.2428 11.7751 27.2162 11.4592C27.2044 11.3141 27.1574 11.2005 27.045 11.16Z" fill="black"/>
<path fill-rule="evenodd" clip-rule="evenodd" d="M19.3768 31.8403C18.736 31.8403 18.2629 31.7314 17.751 31.6135C17.6617 31.593 17.5711 31.5721 17.4783 31.5515V30.1653L17.5848 30.199C18.0693 30.353 18.7898 30.5821 19.4382 30.5821C19.9033 30.5821 20.3697 30.3678 20.3697 29.9379C20.3697 29.6032 19.964 29.3791 19.346 29.0377C19.2402 28.9792 19.1282 28.9173 19.0109 28.8509C18.2831 28.4837 17.3594 27.7259 17.3594 26.7604C17.3594 25.6263 18.4778 24.9965 19.9817 24.9965C20.5064 25.0099 21.0299 25.0535 21.5496 25.1271C21.6724 24.48 21.7852 23.8341 21.888 23.1895C21.6337 23.1895 21.3871 23.1848 21.1364 23.1801H21.1363H21.1363C20.8098 23.1739 20.4763 23.1675 20.1097 23.1712C19.8036 23.0465 19.4043 23.0883 19.0071 23.1299C18.8092 23.1506 18.6119 23.1712 18.4269 23.1712C18.3237 23.175 18.2314 23.1412 18.1417 23.1083C18.0133 23.0613 17.8903 23.0163 17.7488 23.0863C17.5854 23.1372 16.3116 23.1804 16.1809 23.0445C16.4514 22.6743 17.1973 22.5855 17.9291 22.4985C18.6747 22.4098 19.4056 22.3228 19.6041 21.9417C20.2048 21.6049 20.2902 21.1001 20.3787 20.5776C20.3932 20.4921 20.4077 20.4061 20.4246 20.3203C20.7199 20.1783 20.7126 20.0053 20.7053 19.8325C20.7017 19.7477 20.6981 19.663 20.7304 19.5821C20.6625 19.2578 20.6719 18.9221 20.7578 18.6021L20.4756 18.9249C20.4573 18.9296 20.4387 18.9353 20.4199 18.941C20.3043 18.9763 20.1814 19.0137 20.0836 18.853C20.2501 18.5803 20.1174 18.4996 19.9784 18.4152C19.8797 18.3552 19.7779 18.2933 19.7779 18.1592C20.0912 17.9992 20.0411 17.8413 19.9834 17.6593C19.9525 17.562 19.9195 17.4578 19.9386 17.3426C19.7912 17.4033 19.7156 17.5064 19.6452 17.6026C19.5639 17.7135 19.4894 17.8152 19.3193 17.8313C19.1393 17.7234 19.1904 17.5337 19.2415 17.3437C19.2839 17.186 19.3264 17.0281 19.2369 16.9167C19.1871 16.956 19.1072 16.9271 19.0264 16.8978C18.9354 16.8649 18.8433 16.8315 18.7914 16.8945C18.9991 17.0251 18.9848 17.4014 18.922 17.5634C18.7911 17.6207 18.6379 17.5721 18.564 17.4497C18.5215 17.5551 18.4286 17.6318 18.3171 17.6536C18.2088 17.5757 18.2561 17.4419 18.3015 17.3136C18.34 17.205 18.377 17.1004 18.3171 17.0369C18.2805 17.0615 18.2541 17.0836 18.2312 17.1027C18.1765 17.1485 18.1417 17.1775 18.0349 17.1858C17.891 17.1222 17.8975 16.8815 17.9025 16.6986V16.6985C17.9034 16.6672 17.9042 16.6376 17.9042 16.6109C17.8445 16.6337 17.8223 16.6592 17.7915 16.6945C17.7657 16.7241 17.7339 16.7606 17.669 16.8082C17.6577 16.8143 17.646 16.8208 17.6339 16.8275C17.4843 16.9102 17.271 17.0282 16.8577 16.8566C17.068 16.4199 17.3191 16.3815 17.561 16.3445C17.6767 16.3268 17.7903 16.3094 17.8964 16.249C17.9185 16.1954 17.9612 16.1355 18.0054 16.0736C18.1151 15.9196 18.2341 15.7527 18.0702 15.6362C17.8456 15.6806 17.7175 15.8092 17.5931 15.934C17.4281 16.0997 17.2696 16.2588 16.9008 16.2059C16.7787 15.9412 16.9444 15.7681 17.0782 15.6283C17.192 15.5093 17.2827 15.4146 17.153 15.3083C17.153 15.3083 16.6891 15.0313 16.693 15.1985C16.7009 15.678 16.6643 15.9995 16.2645 16.1262C16.0726 16.0251 16.0814 15.7656 16.088 15.574L16.0881 15.5696C16.1496 15.4016 16.0854 15.3521 16.007 15.2918C15.919 15.2241 15.8131 15.1426 15.8477 14.864C15.8223 14.8716 15.7845 14.911 15.7375 14.9601C15.6223 15.0803 15.4515 15.2585 15.2715 15.1685C15.1513 15.1084 15.3839 14.6524 15.3839 14.6524C15.2974 14.5879 15.1845 14.5705 15.0712 14.5531C14.9552 14.5352 14.8388 14.5173 14.7502 14.4486C14.6918 14.2617 14.831 14.201 14.9763 14.1377C15.0749 14.0948 15.1762 14.0507 15.2206 13.9651C15.0719 13.8144 14.9502 13.8766 14.8233 13.9415C14.7071 14.0009 14.5865 14.0626 14.4366 13.9651C14.4433 13.947 14.4704 13.9263 14.5042 13.9005C14.5824 13.8407 14.6963 13.7536 14.6744 13.6085C14.6411 13.5407 14.523 13.558 14.4055 13.5753C14.2739 13.5947 14.1432 13.6139 14.1335 13.5131C14.1086 13.4036 14.3323 13.2699 14.4981 13.1709C14.55 13.1398 14.5962 13.1122 14.6274 13.0898L14.4118 13.0662C13.9649 13.1864 13.7846 13.0179 14.3373 12.7814C14.0142 12.4402 14.2883 12.4031 14.5585 12.3666C14.6763 12.3507 14.7933 12.3349 14.8599 12.2941C14.221 12.1477 13.8604 11.812 14.0211 11.6029C14.1818 11.3938 14.8051 11.6931 14.8051 11.6931C14.6467 11.5224 14.5033 11.3383 14.3765 11.143C14.2898 11.0013 14.4691 10.9324 14.6874 10.8486C14.8998 10.767 15.1491 10.6713 15.2258 10.4806L15.035 10.4191C14.9728 10.4253 14.9418 10.3906 14.9157 10.3613C14.8701 10.31 14.8394 10.2755 14.6822 10.5067C14.5307 10.7301 14.2511 10.6178 14.0211 10.5067C14.0211 10.1304 14.3125 9.89652 14.6822 9.72277C15.0161 9.65552 15.11 9.59422 15.1902 9.54183C15.2456 9.50566 15.2944 9.47375 15.4113 9.44706C15.4113 9.44706 15.2454 9.29027 15.1356 9.32686C15.0654 9.34977 14.9924 9.36297 14.9187 9.36606C14.336 9.44055 13.944 9.44184 13.5716 9.15309C13.6145 8.96264 13.8385 8.93579 14.0444 8.91112C14.1083 8.90346 14.1705 8.89601 14.2249 8.88394C14.0368 8.71016 14.0368 8.44755 14.1139 8.38745C14.2872 8.34315 14.4889 8.5962 14.6254 8.76742C14.6741 8.82852 14.7145 8.8792 14.7424 8.90222C14.7424 8.90222 14.6117 8.56122 14.8299 8.3992C14.9548 8.44917 15.0093 8.56822 15.0644 8.68861C15.1418 8.85782 15.2204 9.02965 15.4975 9.01591C15.1134 8.5142 15.2232 8.40966 15.7876 8.66444C15.8343 8.53624 15.6538 8.45455 15.4888 8.37986C15.3814 8.33123 15.2805 8.28557 15.2532 8.23197C15.184 8.09609 15.5877 7.93147 15.5877 7.93147C15.5877 7.93147 14.8038 7.79167 14.6457 7.21155C14.6052 6.95023 15.6739 7.19325 16.0306 7.75377C16.284 7.77358 16.3943 7.72847 16.556 7.66228C16.5969 7.64554 16.6411 7.62746 16.6917 7.60873C16.6475 7.57428 16.6061 7.54569 16.5672 7.51886C16.4043 7.40631 16.2863 7.32485 16.1913 6.97245L16.0803 7.07434C16.0803 7.07434 15.9914 7.15536 15.7223 7.05605C15.5224 6.97244 15.278 6.77513 15.3107 6.53342C15.5341 6.46811 15.9575 6.34791 16.1142 6.65494C16.1142 6.65494 16.1574 6.7438 16.1508 6.74902C16.1443 6.75425 16.2514 6.77384 16.2514 6.76078C16.4155 6.71785 16.5642 6.73765 16.7116 6.75728C16.8918 6.78125 17.07 6.80498 17.2719 6.71373C17.261 6.68412 17.2527 6.65834 17.2454 6.63541C17.2087 6.52076 17.1947 6.47703 16.9857 6.37795C16.8821 6.43797 16.7644 6.46911 16.6447 6.46813C16.2449 6.39505 15.9078 6.12752 15.7458 5.75473C15.7886 5.72152 15.8401 5.7367 15.9036 5.75541C15.97 5.77497 16.0494 5.79838 16.1456 5.77433L16.1653 5.7773C16.4979 5.82728 16.847 5.87972 16.9008 6.1872C16.9355 6.16586 16.9668 6.14074 17 6.11415C17.1129 6.02355 17.2473 5.91581 17.6089 5.88148C17.5689 5.87243 17.5304 5.86414 17.4936 5.85621L17.4936 5.85619C17.1905 5.79088 17.0002 5.74985 16.9687 5.50519C17.2431 5.20991 17.6743 5.39152 17.997 5.65414C18.0094 5.65806 17.9885 5.6218 17.9676 5.58555C17.9467 5.54929 17.9258 5.51303 17.9382 5.51695L17.7422 5.25563C17.622 5.0688 17.7096 4.85712 17.8951 4.72125C17.9905 4.74084 18.1146 4.90809 18.1564 5.09361C18.3518 5.30859 18.3683 5.21695 18.3962 5.06145C18.4244 4.90507 18.4641 4.68411 18.7091 4.64545C18.9033 4.87873 18.7831 4.9958 18.6831 5.09321C18.6291 5.14584 18.581 5.19272 18.5915 5.24909C18.6176 5.33664 18.7156 5.42286 18.9456 5.45945C18.9605 5.35871 19.0091 5.27728 19.0586 5.19444C19.1175 5.0957 19.1777 4.99496 19.1834 4.85713C18.9952 4.56969 19.1729 4.08364 19.6315 3.9752C19.8409 4.17185 19.7297 4.38434 19.6413 4.55338C19.5575 4.71343 19.4941 4.83451 19.7426 4.86628C19.9648 4.76667 19.9625 4.58874 19.9601 4.40289C19.9575 4.1987 19.9547 3.98495 20.2495 3.85498C20.3674 4.06453 20.3196 4.21664 20.2849 4.32739C20.2641 4.39341 20.248 4.44473 20.2744 4.48475C20.3717 4.56956 20.5079 4.59369 20.6284 4.54747C20.416 4.35236 20.5178 4.04601 20.5903 3.82772C20.5999 3.79899 20.6089 3.77178 20.6167 3.74655C20.7695 3.72172 20.878 4.10455 20.8401 4.24956C21.0798 4.11137 21.0976 4.16259 21.1266 4.2461C21.1565 4.33234 21.1984 4.45303 21.5091 4.43511C21.5679 4.2974 21.4963 4.20237 21.4182 4.09856C21.3228 3.97188 21.2176 3.83214 21.3274 3.58583C21.8278 3.46103 21.8138 3.73426 21.8015 3.97603C21.7996 4.01268 21.7978 4.04861 21.7978 4.08231C21.7978 4.07317 21.9742 4.33319 21.9742 4.33319L22.1336 4.25478C22.1336 4.25478 21.9899 4.17508 21.9507 3.84191C21.9167 3.53748 22.2826 3.4225 22.2826 3.4225C22.1519 2.18258 22.0382 1.26666 21.8605 0.0175781H0.528259V37.9851H17.8611C18.6608 35.8946 19.3537 33.8363 19.9399 31.8102C19.7511 31.8305 19.5614 31.8405 19.3715 31.8403H19.3768V31.8403ZM5.78848 31.6221C5.82768 30.8891 5.85381 30.3155 5.85381 29.299V25.7883C5.87156 24.73 5.78402 23.6726 5.59249 22.6316H7.87115C7.87115 22.9176 7.85827 23.2533 7.84396 23.6267L7.84395 23.6267C7.82603 24.0941 7.80584 24.6205 7.80584 25.182V28.4654C7.83204 29.5218 7.91929 30.5758 8.06715 31.6221H5.78848ZM11.5908 31.2783C12.0293 31.5418 12.5261 31.8403 13.4972 31.8403C15.2833 31.8403 16.4932 30.458 16.4919 28.5399C16.4919 26.4677 15.248 24.9939 13.4188 24.9939C12.1823 24.9939 11.6564 25.5834 11.244 26.0456C11.2346 26.0561 11.2253 26.0666 11.216 26.077C11.1811 25.9478 11.1539 25.8253 11.1276 25.7068C11.0858 25.5185 11.0462 25.3405 10.9821 25.1624L9.32929 25.2931C9.53832 26.401 9.72124 27.4332 9.72124 28.566V31.2157C9.72124 32.0962 9.54665 33.7077 9.47211 34.3956C9.46768 34.4366 9.4636 34.4742 9.45993 34.5083L11.6079 34.3776C11.5142 33.5776 11.4706 32.7725 11.4773 31.967V31.2105C11.5149 31.2327 11.5526 31.2554 11.5908 31.2783Z" fill="black"/>
<path fill-rule="evenodd" clip-rule="evenodd" d="M22.8653 28.3831C22.8653 26.337 24.2698 25.0017 26.3368 25.0017C28.3921 25.0017 29.7836 26.3749 29.7822 28.3831C29.7822 30.2907 28.4038 31.8403 26.3368 31.8403C24.3025 31.8403 22.8653 30.3913 22.8653 28.3831ZM24.6213 28.3831C24.6213 29.5695 25.2459 30.454 26.3368 30.454C27.4801 30.454 28.0262 29.559 28.0262 28.3831C28.0262 27.121 27.467 26.388 26.3368 26.388C25.1805 26.388 24.6213 27.1967 24.6213 28.3831Z" fill="black"/>
<path d="M33.8208 27.8657C33.0957 27.4737 32.4489 27.1575 32.4489 26.7669C32.4489 26.4259 32.9271 26.2612 33.6131 26.2612C34.0024 26.2806 34.3895 26.3313 34.7707 26.4128V25.1062C34.2887 25.04 33.803 25.0034 33.3165 24.9965C31.8127 24.9965 30.6942 25.6262 30.6942 26.7603C30.6942 27.7207 31.618 28.4785 32.3457 28.8508C33.148 29.3055 33.7046 29.5459 33.7046 29.9379C33.7046 30.3678 33.2394 30.582 32.7743 30.582C32.074 30.582 31.2927 30.3207 30.8144 30.1652V31.5515C31.439 31.69 31.959 31.8403 32.7116 31.8403C34.3709 31.8403 35.4632 31.136 35.4632 29.8804C35.4632 28.7424 34.5133 28.2381 33.8248 27.8579L33.8208 27.8657Z" fill="black"/>
<path d="M7.80586 25.182C7.80586 24.172 7.87117 23.2757 7.87117 22.6316H5.59253C5.78406 23.6725 5.87159 24.73 5.85384 25.7882V29.299C5.85384 30.322 5.82772 30.8904 5.78851 31.6221H8.06717C7.91931 30.5758 7.83206 29.5218 7.80586 28.4654V25.182V25.182Z" fill="white"/>
<path fill-rule="evenodd" clip-rule="evenodd" d="M11.2491 26.0507C11.6611 25.5901 12.1874 25.0017 13.4215 25.0017V25.0043C15.2454 25.0043 16.4945 26.4795 16.4945 28.5503C16.4945 30.4566 15.2846 31.8429 13.4998 31.8429C12.5287 31.8429 12.0319 31.5444 11.5935 31.281C11.5552 31.258 11.5175 31.2353 11.4799 31.2131V31.9696C11.4732 32.7751 11.5169 33.5802 11.6105 34.3802L9.46257 34.5109L9.46524 34.4866C9.53424 33.8603 9.72386 32.1391 9.72386 31.2183V28.5738C9.72386 27.4411 9.53964 26.4089 9.33191 25.3009L10.9847 25.1703C11.0479 25.3454 11.0871 25.5216 11.129 25.7098C11.1555 25.8291 11.1831 25.9531 11.2186 26.0848C11.2287 26.0736 11.2389 26.0622 11.2491 26.0507ZM11.3479 28.57C11.3479 29.8164 11.9738 30.4579 13.0687 30.4579V30.4592C14.1766 30.4592 14.7372 29.7014 14.7372 28.5647C14.7372 27.2882 14.0199 26.3919 12.9903 26.3919C11.8823 26.3919 11.3479 27.2751 11.3479 28.57Z" fill="white"/>
<path d="M17.3581 26.7656C17.3581 27.7259 18.2819 28.4837 19.0096 28.8561C19.8119 29.3107 20.3685 29.5511 20.3685 29.9431C20.3685 30.373 19.9033 30.5873 19.4369 30.5873C18.7366 30.5873 17.9552 30.3259 17.477 30.1704V31.5567C18.1016 31.6952 18.6216 31.8455 19.3755 31.8455C19.5653 31.8457 19.755 31.8357 19.9438 31.8154C21.2791 31.6691 22.1284 30.9923 22.1284 29.8921C22.1284 28.9776 21.5143 28.4719 20.9159 28.1126C20.7696 28.0251 20.6245 27.9454 20.4886 27.8709C19.7635 27.4789 19.1167 27.1627 19.1167 26.7721C19.1167 26.431 19.595 26.2664 20.2809 26.2664C20.6222 26.2788 20.9616 26.3226 21.2948 26.3971V26.3971L21.3758 25.9946L21.4124 25.8091L21.5431 25.1376V25.1376C21.0234 25.064 20.4999 25.0204 19.9752 25.0069C18.4713 25.0069 17.3529 25.6367 17.3529 26.7708L17.3581 26.7656Z" fill="white"/>
<path d="M19.9428 31.8095C21.2781 31.6632 22.1274 30.9864 22.1274 29.8862C22.1274 28.9716 21.5133 28.466 20.9149 28.1067C20.515 29.8862 20.3484 30.501 19.9428 31.8095Z" fill="black"/>
</svg>