<svg xmlns="http://www.w3.org/2000/svg" width="129" height="20" viewBox="0 0 129 20" fill="none">
<g clip-path="url(#clip0_5022_33543)">
<path d="M15.2009 1.02083V8.49875H3.92672V1.02083H0.747559V19.4867H3.92714V11.1H15.2005V19.4867H18.3796V1.02083H15.2009ZM30.0042 20C25.178 20 21.5384 16.8183 21.5384 12.5996V1.02042H24.7176V12.5996C24.7176 15.1858 26.9413 17.0629 30.0042 17.0629C33.0676 17.0629 35.2909 15.1858 35.2909 12.5996V1.02042H38.4705V12.5996C38.4705 16.8183 34.8309 20 30.0042 20ZM109.412 19.4867H106.232V8.31792C106.232 5.62542 103.86 3.43458 100.945 3.43458C98.0309 3.43458 95.6592 5.62542 95.6592 8.31792V19.4867H92.4796V8.31792C92.4796 4.00583 96.2775 0.497917 100.945 0.497917C105.614 0.497917 109.412 4.00625 109.412 8.31792V19.4867ZM75.5692 10.6767V8.56958C75.5692 5.78667 77.9901 3.43542 80.8559 3.43542C83.7217 3.43542 86.1425 5.78667 86.1425 8.56958V10.6767H75.5692ZM80.8559 0.49875C76.2667 0.49875 72.3896 4.19458 72.3896 8.56958V19.4862H75.5692V13.2779H86.1425V19.4862H89.3221V8.56958C89.3221 4.19458 85.445 0.49875 80.8559 0.49875ZM69.3592 8.3175V19.4862H66.1792V8.3175C66.1792 5.8875 64.7305 3.43542 61.493 3.43542C58.2559 3.43542 56.8067 5.8875 56.8067 8.3175V19.4862H53.6271V8.3175C53.6271 5.8875 52.178 3.43542 48.9409 3.43542C45.7046 3.43542 44.2555 5.8875 44.2555 8.3175V19.4862H41.0755V8.3175C41.0755 3.78708 44.3834 0.498333 48.9409 0.498333C51.5905 0.498333 53.8167 1.60917 55.2167 3.42958C56.6176 1.60917 58.8446 0.498333 61.493 0.498333C66.0505 0.498333 69.3592 3.78708 69.3592 8.3175ZM120.368 2.93708C122.297 2.93708 123.867 4.38708 123.867 6.16833C123.867 7.95083 122.297 9.40083 120.368 9.40083C118.439 9.40083 116.869 7.95083 116.869 6.16833C116.869 4.38708 118.439 2.93708 120.368 2.93708ZM124.942 10.6608C126.237 9.53458 127.047 7.93708 127.047 6.16833C127.047 2.76708 124.051 0 120.368 0C116.685 0 113.69 2.76708 113.69 6.16833C113.69 7.93708 114.5 9.535 115.794 10.6608C113.505 12.0433 111.988 14.4325 111.988 17.1425C111.988 17.9587 112.125 18.7467 112.381 19.4862H115.831C115.398 18.7813 115.168 17.97 115.168 17.1425C115.168 14.4942 117.501 12.34 120.368 12.34C123.235 12.34 125.568 14.4942 125.568 17.1425C125.568 17.9937 125.328 18.7933 124.905 19.4862H128.354C128.61 18.7467 128.748 17.9587 128.748 17.1425C128.748 14.4325 127.231 12.0433 124.942 10.6608Z" fill="black"/>
</g>
<defs>
<clipPath id="clip0_5022_33543">
<rect width="128.333" height="20" fill="white" transform="translate(0.539246)"/>
</clipPath>
</defs>
</svg>