<svg xmlns="http://www.w3.org/2000/svg" width="126" height="26" viewBox="0 0 126 26" fill="none">
<mask id="mask0_5022_33545" style="mask-type:luminance" maskUnits="userSpaceOnUse" x="31" y="0" width="10" height="22">
<path fill-rule="evenodd" clip-rule="evenodd" d="M31.7681 0.320557H40.1468V21.4496H31.7681V0.320557Z" fill="white"/>
</mask>
<g mask="url(#mask0_5022_33545)">
<path d="M33.733 6.52029V6.668H31.7681V10.3336H33.733V21.4496H37.2537V10.3336H40.1468V6.668H37.2537V6.52029C37.2537 4.68727 38.2086 3.8593 40.1468 4.00744V0.341412C35.8893 0.0753561 33.733 2.35151 33.733 6.52029Z" fill="black"/>
</g>
<path fill-rule="evenodd" clip-rule="evenodd" d="M47.1608 6.25421C49.071 6.25421 50.5451 6.96383 51.6093 8.41245V6.66798H55.13V21.4496H51.6093V19.706C50.5451 21.1542 49.071 21.8638 47.1608 21.8638C45.3322 21.8638 43.7764 21.1248 42.4666 19.617C41.1839 18.1092 40.5288 16.2468 40.5288 14.0592C40.5288 11.8712 41.1839 10.0382 42.4666 8.53037C43.7764 7.02258 45.3322 6.25421 47.1608 6.25421ZM47.8159 18.2276C48.9072 18.2276 49.8079 17.8432 50.5176 17.0744C51.2548 16.2762 51.6093 15.2707 51.6093 14.0592C51.6093 12.8469 51.2548 11.8414 50.5176 11.073C49.8079 10.2748 48.9072 9.89045 47.8159 9.89045C46.7242 9.89045 45.8234 10.2748 45.1137 11.073C44.404 11.8414 44.0495 12.8469 44.0495 14.0592C44.0495 15.2707 44.404 16.2762 45.1137 17.0744C45.8234 17.8432 46.7242 18.2276 47.8159 18.2276Z" fill="black"/>
<path d="M63.9457 12.4923C62.5538 12.1079 61.4621 11.6643 61.4621 10.8661C61.4621 10.1267 62.1443 9.65376 63.0454 9.65376C64.0546 9.65376 64.7918 10.1565 65.2284 11.1616L68.2304 9.38771C67.1658 7.3776 65.2559 6.25421 63.0454 6.25421C61.5714 6.25421 60.3433 6.66798 59.3333 7.52532C58.3509 8.35286 57.8596 9.50605 57.8596 10.9547C57.8596 14.0294 60.3979 14.9459 62.4174 15.5074C63.8094 15.8918 64.9011 16.3354 64.9011 17.1335C64.9011 17.9909 64.2735 18.4047 63.0179 18.4047C61.626 18.4047 60.7524 17.7546 60.3433 16.4831L57.2867 18.3455C58.2963 20.6808 60.2065 21.8638 63.0179 21.8638C64.5737 21.8638 65.8835 21.4496 66.9202 20.6514C67.9848 19.8239 68.5035 18.6413 68.5035 17.1335C68.5307 13.9702 65.9378 12.9354 63.9457 12.4923Z" fill="black"/>
<path d="M75.3465 2.52905L71.8258 3.68224V6.66803H69.4514V10.3336H71.8258V16.4831C71.8258 20.5336 73.5997 22.0414 78.4303 21.4496V17.9909C76.4111 18.1093 75.3465 18.0795 75.3465 16.4831V10.3336H78.4303V6.66803H75.3465V2.52905Z" fill="black"/>
<path fill-rule="evenodd" clip-rule="evenodd" d="M121.674 8.41245V6.66798H125.195V21.4496H121.674V19.706C120.61 21.1542 119.136 21.8638 117.226 21.8638C115.398 21.8638 113.842 21.1248 112.532 19.617C111.249 18.1092 110.594 16.2468 110.594 14.0592C110.594 11.8712 111.249 10.0382 112.532 8.53037C113.842 7.02258 115.398 6.25421 117.226 6.25421C119.136 6.25421 120.61 6.96383 121.674 8.41245ZM117.881 18.2276C118.973 18.2276 119.873 17.8432 120.583 17.0744C121.32 16.2762 121.674 15.2707 121.674 14.0592C121.674 12.8469 121.32 11.8414 120.583 11.073C119.873 10.2748 118.973 9.89045 117.881 9.89045C116.789 9.89045 115.888 10.2748 115.179 11.073C114.47 11.8414 114.115 12.8469 114.115 14.0592C114.115 15.2707 114.47 16.2762 115.179 17.0744C115.888 17.8432 116.789 18.2276 117.881 18.2276Z" fill="black"/>
<path d="M90.1391 14.9843C90.1391 19.5481 84.435 19.5481 84.435 14.9843V6.66803H80.9143V14.5961C80.9143 24.2673 93.6595 24.2673 93.6595 14.5961V6.66803H90.1391V14.9843Z" fill="black"/>
<mask id="mask1_5022_33545" style="mask-type:luminance" maskUnits="userSpaceOnUse" x="0" y="3" width="109" height="23">
<path fill-rule="evenodd" clip-rule="evenodd" d="M0.973267 14.0471V25.0901H108.831V3.00409H0.973267V14.0471Z" fill="white"/>
</mask>
<g mask="url(#mask1_5022_33545)">
<path d="M96.0857 13.522V21.4496H99.606V13.1338C99.606 8.56952 105.311 8.56952 105.311 13.1338V21.4496H108.831V13.522C108.831 3.85034 96.0857 3.85034 96.0857 13.522Z" fill="black"/>
</g>
<mask id="mask2_5022_33545" style="mask-type:luminance" maskUnits="userSpaceOnUse" x="0" y="3" width="109" height="23">
<path fill-rule="evenodd" clip-rule="evenodd" d="M0.973267 14.0471V25.0901H108.831V3.00409H0.973267V14.0471Z" fill="white"/>
</mask>
<g mask="url(#mask2_5022_33545)">
<path d="M15.6995 6.66799L13.7467 3.00409H9.83892L11.7916 6.66799H7.79621C4.02791 6.66799 0.973267 9.97687 0.973267 14.0588C0.973267 18.1407 4.02791 21.4496 7.79621 21.4496H9.92027L11.8742 25.1156H15.782L12.8507 19.6162L15.78 14.1197H11.8722L9.91948 17.784H7.79621C5.89693 17.784 4.35762 16.1162 4.35762 14.0588C4.35762 12.0014 5.89693 10.3336 7.79621 10.3336H19.7629L16.7688 15.9518H20.6766L25.6246 6.66799H15.6995Z" fill="black"/>
</g>
</svg>