<svg xmlns="http://www.w3.org/2000/svg" width="119" height="22" viewBox="0 0 119 22" fill="none">
<g clip-path="url(#clip0_5022_33541)">
<path d="M0.243088 0H8.91231C10.5636 0 11.802 0.416821 12.7194 1.11152C13.7285 1.94516 14.279 3.14931 14.279 4.63134C14.279 6.34494 13.5909 7.41015 12.2149 8.05854V8.15116C14.0496 8.75324 15.1046 10.4205 15.1046 12.412C15.1046 14.3109 14.3707 15.7929 13.1781 16.7191C12.169 17.4602 10.8847 17.7844 9.14165 17.7844H0.243088V0ZM8.0408 6.94701C8.95818 6.94701 9.64621 6.43757 9.64621 5.37236C9.64621 4.35346 8.95817 3.84401 7.99493 3.84401H5.01345V6.9007H8.0408V6.94701ZM8.45362 13.8477C9.5086 13.8477 10.2884 13.1993 10.2884 12.0415C10.2884 10.791 9.46273 10.2353 8.45362 10.2353H5.05932V13.894H8.45362V13.8477Z" fill="black"/>
<path d="M15.8844 0H20.4254V17.8307H15.8844V0Z" fill="black"/>
<path d="M21.3428 11.4857C21.3428 7.45644 23.9114 4.77026 27.902 4.77026C31.8926 4.77026 34.4154 7.50276 34.4154 11.4857C34.4154 15.515 31.8926 18.2012 27.902 18.2012C23.9114 18.2012 21.3428 15.515 21.3428 11.4857ZM29.8744 11.4857C29.8744 9.26267 29.1864 7.87326 27.8103 7.87326C26.4342 7.87326 25.7921 9.26267 25.7921 11.4857C25.7921 13.7088 26.4342 15.1445 27.8103 15.1445C29.1864 15.0982 29.8744 13.7088 29.8744 11.4857Z" fill="black"/>
<path d="M34.92 11.4857C34.92 7.45644 37.4886 4.77026 41.4792 4.77026C45.4698 4.77026 47.9467 7.45644 47.9467 11.4857C47.9467 15.515 45.424 18.2012 41.4334 18.2012C37.4886 18.2012 34.92 15.515 34.92 11.4857ZM43.4516 11.4857C43.4516 9.26267 42.7636 7.87326 41.3875 7.87326C40.0114 7.87326 39.3693 9.26267 39.3693 11.4857C39.3693 13.7088 40.0114 15.1445 41.3875 15.1445C42.7636 15.0982 43.4516 13.7088 43.4516 11.4857Z" fill="black"/>
<path d="M48.8641 5.09445H53.0841V6.9933H53.1758C54.0014 5.51127 55.1482 4.72394 56.9829 4.72394C58.5883 4.72394 59.7809 5.51127 60.3772 6.90067H60.469C61.4781 5.23339 62.8083 4.72394 64.3678 4.72394C67.3034 4.72394 68.5419 6.90067 68.5419 9.81842V17.7843H64.1385V10.6057C64.1385 9.30897 63.7257 8.47533 62.6248 8.47533C61.524 8.47533 60.9735 9.49422 60.9735 10.8836V17.7843H56.5701V10.6057C56.5701 9.30897 56.1573 8.47533 55.0564 8.47533C53.9556 8.47533 53.4052 9.49422 53.4052 10.8836V17.7843H48.8641V5.09445Z" fill="black"/>
<path d="M74.092 16.1171H74.0461V17.7844H69.8262V0H74.2296V6.39125H74.3213C75.147 5.27973 76.2937 4.67766 77.8991 4.67766C81.0641 4.67766 82.8988 7.54909 82.8988 11.3931C82.8988 15.7003 80.9265 18.2012 77.6239 18.2012C76.2478 18.2012 74.8259 17.5528 74.092 16.1171ZM78.3578 11.3468C78.3578 9.309 77.6239 7.96591 76.2937 7.96591C74.9176 7.96591 74.092 9.309 74.092 11.3468C74.092 13.3846 74.9635 14.7277 76.2937 14.7277C77.6239 14.7277 78.3578 13.4309 78.3578 11.3468Z" fill="black"/>
<path d="M83.4034 11.4394C83.4034 7.45643 86.0179 4.72394 89.7792 4.72394C91.6598 4.72394 93.0817 5.32601 94.1826 6.39122C95.6504 7.82694 96.2925 10.05 96.2467 12.6435H87.8068C87.9903 14.2182 88.7242 15.0518 90.0544 15.0518C90.8341 15.0518 91.5222 14.6813 91.7974 13.8477H96.0632C95.3293 16.7654 93.0817 18.2011 89.9168 18.2011C86.0179 18.1548 83.4034 15.4687 83.4034 11.4394ZM87.8068 10.0963H91.8433C91.7515 8.56795 90.9259 7.78062 89.8709 7.78062C88.6324 7.73431 87.9444 8.61427 87.8068 10.0963Z" fill="black"/>
<path d="M101.246 7.27114H101.338C102.255 5.51123 103.448 4.81653 104.962 4.81653C105.329 4.81653 105.558 4.86284 105.696 4.95547V8.8458H105.604C102.989 8.38266 101.476 9.63313 101.476 12.5046V17.8306H97.0264V5.09441H101.246V7.27114Z" fill="black"/>
<path d="M106.154 17.8306H110.42C110.604 18.3864 111.154 18.8958 112.209 18.8958C113.631 18.8958 114.136 18.0159 114.136 16.6728V15.7465H114.044C113.356 16.5802 112.393 17.1822 111.016 17.1822C108.31 17.1822 105.925 15.1444 105.925 11.1615C105.925 7.50273 107.852 4.67761 110.787 4.67761C112.484 4.67761 113.493 5.37231 114.181 6.43752H114.273V5.04812H118.493V16.0707C118.493 18.1085 117.805 19.6832 116.75 20.6094C115.649 21.582 114.09 21.9988 112.301 21.9988C108.907 22.0451 106.567 20.6557 106.154 17.8306ZM114.319 10.9762C114.319 9.40158 113.585 8.10481 112.301 8.10481C111.062 8.10481 110.283 9.21633 110.283 10.9762C110.283 12.6898 111.062 13.894 112.301 13.894C113.539 13.894 114.319 12.6435 114.319 10.9762Z" fill="black"/>
</g>
<defs>
<clipPath id="clip0_5022_33541">
<rect width="118.25" height="22" fill="white" transform="translate(0.243088)"/>
</clipPath>
</defs>
</svg>