<svg width="87" height="18" viewBox="0 0 87 18" fill="none" xmlns="http://www.w3.org/2000/svg">
<g clip-path="url(#clip0_8401_211)">
<path d="M8.83777 15.1687C9.79432 15.1776 10.7362 14.9331 11.5676 14.4599C12.3856 13.9986 13.0825 13.3497 13.6008 12.5666L15.6222 14.0776C14.8539 15.1251 13.8565 15.9832 12.7062 16.5866C11.6069 17.1507 10.397 17.4659 9.16226 17.5101C7.92752 17.5542 6.69819 17.3261 5.56146 16.842C3.54282 15.9704 1.93984 14.3514 1.0884 12.3242C0.651103 11.2749 0.425964 10.1495 0.425964 9.01272C0.425964 7.87598 0.651103 6.75049 1.0884 5.70123C1.94013 3.67403 3.54298 2.05485 5.56146 1.18263C6.69832 0.698989 7.92762 0.471205 9.16229 0.515406C10.397 0.559606 11.6068 0.87471 12.7062 1.4384C13.8556 2.04266 14.8527 2.90016 15.6222 3.94617L13.6008 5.45725C13.081 4.67547 12.3844 4.02702 11.5676 3.56433C10.7361 3.09143 9.79425 2.84716 8.83777 2.85636C8.05637 2.85076 7.28332 3.01737 6.57359 3.34434C5.87776 3.66244 5.25024 4.1125 4.72581 4.66958C4.19179 5.23817 3.76636 5.89969 3.47052 6.62146C2.85187 8.15688 2.85187 9.87222 3.47052 11.4076C3.76692 12.1291 4.19229 12.7905 4.72581 13.3595C5.25124 13.9147 5.87856 14.3637 6.57359 14.6819C7.2834 15.0087 8.05639 15.1753 8.83777 15.1699" fill="black"/>
<path d="M21.4644 0.923828H19.0859V17.076H21.4644V0.923828Z" fill="black"/>
<path d="M44.0424 0.923828H41.6639V17.076H44.0424V0.923828Z" fill="black"/>
<path d="M48.3727 0.925537H58.7782V3.19704H54.7525V17.0778H52.394V3.19541H48.3682L48.3727 0.925537Z" fill="black"/>
<path d="M61.6007 0.925537H72.0055V3.19704H67.9797V17.0778H65.6212V3.19541H61.5955L61.6007 0.925537Z" fill="black"/>
<path d="M78.0547 2.88147L79.3206 0L86.6726 17.0757H84.0929L78.0547 2.88147Z" fill="black"/>
<path d="M78.5057 7.49963L77.2333 4.36523L71.8425 17.076H74.4242L78.5057 7.49963Z" fill="black"/>
<path d="M32.7666 15.1173L31.5007 17.9996L24.1495 0.925537H26.73L32.7666 15.1173ZM32.3161 10.5003L33.5885 13.6343L38.9789 0.925537H36.3971L32.3161 10.5003Z" fill="black"/>
</g>
<defs>
<clipPath id="clip0_8401_211">
<rect width="86.2443" height="18" fill="white" transform="translate(0.428406)"/>
</clipPath>
</defs>
</svg>
