<svg width="112" height="30" viewBox="0 0 112 30" fill="none" xmlns="http://www.w3.org/2000/svg">
<g clip-path="url(#clip0_4379_41225)">
<path fill-rule="evenodd" clip-rule="evenodd" d="M48 0C50.2091 0 52 1.79086 52 4V26C52 28.2091 50.2091 30 48 30H4C1.79086 30 0 28.2091 0 26V4C0 1.79086 1.79086 0 4 0H48ZM13.7082 7.58594C12.5233 7.58594 11.4833 7.86425 10.5881 8.4209C9.6929 8.97754 9.00443 9.77669 8.52266 10.8184C8.04088 11.86 7.8 13.0644 7.8 14.4316V15.3008C7.8 17.4427 8.32246 19.1273 9.36738 20.3545C10.4123 21.5817 11.8462 22.1953 13.6691 22.1953C15.3358 22.1953 16.6786 21.7559 17.6975 20.877C18.7163 19.998 19.2811 18.7936 19.3918 17.2637H16.4621C16.397 18.1296 16.1415 18.7692 15.6955 19.1826C15.2495 19.596 14.5741 19.8027 13.6691 19.8027C12.6665 19.8027 11.9325 19.4479 11.467 18.7383C11.0015 18.0286 10.7688 16.9056 10.7688 15.3691V14.2949C10.7818 12.8236 11.0308 11.738 11.5158 11.0381C12.0008 10.3382 12.7316 9.98828 13.7082 9.98828C14.6066 9.98828 15.2756 10.195 15.715 10.6084C16.1545 11.0218 16.41 11.6875 16.4816 12.6055H19.4113C19.2551 11.0169 18.6757 9.78321 17.673 8.9043C16.6704 8.02539 15.3488 7.58594 13.7082 7.58594ZM26.5212 7.58594C25.512 7.58594 24.6022 7.75521 23.7917 8.09375C22.9811 8.43229 22.3594 8.90267 21.9264 9.50488C21.4935 10.1071 21.277 10.7923 21.277 11.5605C21.277 13.0384 22.0843 14.2135 23.6989 15.0859C24.2913 15.4049 25.0954 15.7288 26.111 16.0576C27.1266 16.3864 27.8298 16.6989 28.2204 16.9951C28.611 17.2913 28.8063 17.7161 28.8063 18.2695C28.8063 18.7773 28.611 19.1728 28.2204 19.4561C27.8298 19.7393 27.2861 19.8809 26.5895 19.8809C24.7145 19.8809 23.777 19.0964 23.777 17.5273H20.8376C20.8376 18.4453 21.0736 19.2526 21.5456 19.9492C22.0176 20.6458 22.7028 21.1943 23.6012 21.5947C24.4997 21.9951 25.4958 22.1953 26.5895 22.1953C28.1651 22.1953 29.4183 21.8454 30.3493 21.1455C31.2803 20.4456 31.7458 19.4805 31.7458 18.25C31.7458 17.1432 31.3649 16.2188 30.6032 15.4766C29.8415 14.7344 28.6273 14.1126 26.9606 13.6113C26.0557 13.3379 25.3704 13.0449 24.905 12.7324C24.4395 12.4199 24.2067 12.0326 24.2067 11.5703C24.2067 11.0755 24.4053 10.6768 24.8024 10.374C25.1995 10.0713 25.7562 9.91992 26.4723 9.91992C27.2145 9.91992 27.7907 10.1006 28.2008 10.4619C28.611 10.8232 28.8161 11.3294 28.8161 11.9805H31.7458C31.7458 11.1276 31.526 10.3659 31.0866 9.69531C30.6471 9.02474 30.0303 8.50554 29.236 8.1377C28.4417 7.76986 27.5368 7.58594 26.5212 7.58594ZM35.8966 7.78125H32.6447L37.5763 22H40.6329L45.5841 7.78125H42.3224L39.0997 18.4746L35.8966 7.78125Z" fill="#FA9600"/>
</g>
<g clip-path="url(#clip1_4379_41225)">
<path fill-rule="evenodd" clip-rule="evenodd" d="M64 0C61.7909 0 60 1.79086 60 4V26C60 28.2091 61.7909 30 64 30H108C110.209 30 112 28.2091 112 26V4C112 1.79086 110.209 0 108 0H64ZM88.0996 18.2793C88.0996 18.0254 88.0605 17.7975 87.9824 17.5957C87.9108 17.3874 87.7741 17.1986 87.5723 17.0293C87.3704 16.8535 87.0872 16.681 86.7227 16.5117C86.3581 16.3424 85.8861 16.1667 85.3066 15.9844C84.6621 15.776 84.0501 15.5417 83.4707 15.2812C82.8978 15.0208 82.39 14.7181 81.9473 14.373C81.5111 14.0215 81.166 13.6146 80.9121 13.1523C80.6647 12.6901 80.541 12.153 80.541 11.541C80.541 10.9486 80.6712 10.4115 80.9316 9.92969C81.1921 9.44141 81.5566 9.02474 82.0254 8.67969C82.4941 8.32812 83.0475 8.05794 83.6855 7.86914C84.3301 7.68034 85.0365 7.58594 85.8047 7.58594C86.8529 7.58594 87.7676 7.77474 88.5488 8.15234C89.3301 8.52995 89.9355 9.04753 90.3652 9.70508C90.8014 10.3626 91.0195 11.1146 91.0195 11.9609H88.1094C88.1094 11.5443 88.0215 11.1797 87.8457 10.8672C87.6764 10.5482 87.416 10.2975 87.0645 10.1152C86.7194 9.93294 86.2832 9.8418 85.7559 9.8418C85.248 9.8418 84.8249 9.91992 84.4863 10.0762C84.1478 10.2259 83.8939 10.431 83.7246 10.6914C83.5553 10.9453 83.4707 11.2318 83.4707 11.5508C83.4707 11.7917 83.5293 12.0098 83.6465 12.2051C83.7702 12.4004 83.9525 12.5827 84.1934 12.752C84.4342 12.9212 84.7305 13.0807 85.082 13.2305C85.4336 13.3802 85.8405 13.5267 86.3027 13.6699C87.0775 13.9043 87.7578 14.168 88.3438 14.4609C88.9362 14.7539 89.431 15.0827 89.8281 15.4473C90.2253 15.8118 90.5247 16.2253 90.7266 16.6875C90.9284 17.1497 91.0293 17.6738 91.0293 18.2598C91.0293 18.8783 90.9089 19.4316 90.668 19.9199C90.4271 20.4082 90.0788 20.8216 89.623 21.1602C89.1673 21.4987 88.6237 21.7559 87.9922 21.9316C87.3607 22.1074 86.6543 22.1953 85.873 22.1953C85.1699 22.1953 84.4766 22.1042 83.793 21.9219C83.1094 21.7331 82.4876 21.4499 81.9277 21.0723C81.3743 20.6947 80.9316 20.2129 80.5996 19.627C80.2676 19.041 80.1016 18.3477 80.1016 17.5469H83.041C83.041 17.9896 83.1094 18.3639 83.2461 18.6699C83.3828 18.9759 83.5749 19.2233 83.8223 19.4121C84.0762 19.6009 84.3757 19.7376 84.7207 19.8223C85.0723 19.9069 85.4564 19.9492 85.873 19.9492C86.3809 19.9492 86.7975 19.8776 87.123 19.7344C87.4551 19.5911 87.6992 19.3926 87.8555 19.1387C88.0182 18.8848 88.0996 18.5983 88.0996 18.2793ZM74.8086 10.0762V22H71.8887V10.0762H67.582V7.78125H71.8887H74.8086H79.1836V10.0762H74.8086ZM97.6602 22H96.7422L91.8203 7.78125H95.0625L98.2756 18.6042L101.498 7.78125H104.76L99.8086 22H98.9102H97.6602Z" fill="#FA9600"/>
</g>
<defs>
<clipPath id="clip0_4379_41225">
<rect width="52" height="30" fill="white"/>
</clipPath>
<clipPath id="clip1_4379_41225">
<rect width="52" height="30" fill="white" transform="translate(60)"/>
</clipPath>
</defs>
</svg>
