<svg width="125" height="69" viewBox="0 0 125 69" fill="none" xmlns="http://www.w3.org/2000/svg">
<path d="M124.323 50.3562C124.845 50.5345 125.125 51.1027 124.946 51.6254L122.042 60.1439C121.864 60.6666 121.296 60.9459 120.773 60.7676C120.25 60.5894 119.971 60.0212 120.149 59.4984L122.731 51.9265L115.159 49.3447C114.636 49.1665 114.357 48.5982 114.535 48.0755C114.713 47.5527 115.282 47.2735 115.804 47.4517L124.323 50.3562ZM124.441 52.2002C77.2644 75.3857 46.0773 71.94 26.6575 57.6559C7.31561 43.4291 0 18.6941 0 1.52588e-05H2C2 18.3059 9.18439 42.3209 27.8425 56.0448C46.4227 69.7113 76.7356 73.417 123.559 50.4052L124.441 52.2002Z" fill="#AF058F"/>
</svg>
