<svg width="258" height="213" viewBox="0 0 258 213" fill="none" xmlns="http://www.w3.org/2000/svg">
<path opacity="0.08" d="M105.176 0C109.595 0 113.176 3.58172 113.176 8V74.705C113.176 110.563 104 141.192 85.6471 166.592C68.7765 189.94 43.2904 205.082 9.1887 212.018C4.38274 212.996 0 209.232 0 204.328V174.344C0 170.334 2.98046 166.977 6.9192 166.224C25.6059 162.654 38.5936 155.306 45.8824 144.181C53.0558 132.968 56.8647 117.154 57.3089 96.7381C57.3551 94.615 59.2951 93.0214 61.3777 93.4366V93.4366C65.3666 94.2319 64.7869 100.105 60.7195 100.105H9.5294C5.11112 100.105 1.52941 96.523 1.52941 92.1047V8C1.52941 3.58172 5.11113 0 9.52941 0H105.176ZM250 0C254.418 0 258 3.58172 258 8V74.705C258 110.563 248.824 141.192 230.471 166.592C213.6 189.94 188.114 205.082 154.012 212.018C149.206 212.996 144.824 209.232 144.824 204.328V174.344C144.824 170.334 147.804 166.977 151.743 166.224C170.429 162.654 183.417 155.306 190.706 144.181C197.879 132.968 201.688 117.154 202.132 96.7381C202.179 94.615 204.119 93.0214 206.201 93.4366V93.4366C210.19 94.2319 209.61 100.105 205.543 100.105H154.353C149.935 100.105 146.353 96.523 146.353 92.1047V8C146.353 3.58172 149.935 0 154.353 0H250Z" fill="url(#paint0_linear_8403_2991)"/>
<defs>
<linearGradient id="paint0_linear_8403_2991" x1="164.273" y1="-129.679" x2="386.997" y2="69.1767" gradientUnits="userSpaceOnUse">
<stop stop-color="#069DF2"/>
<stop offset="0.375" stop-color="#4CBFFF"/>
<stop offset="0.833333" stop-color="#8FE4FF"/>
<stop offset="1" stop-color="#A6DFFF"/>
</linearGradient>
</defs>
</svg>
