<svg width="32" height="62" viewBox="0 0 32 62" fill="none" xmlns="http://www.w3.org/2000/svg">
<path d="M12.8859 61.2011C12.7749 61.7421 12.2463 62.0906 11.7053 61.9796L2.88914 60.1696C2.34814 60.0585 1.99961 59.5299 2.11068 58.9889C2.22175 58.4479 2.75036 58.0994 3.29136 58.2104L11.1279 59.8193L12.7368 51.9828C12.8479 51.4418 13.3765 51.0932 13.9175 51.2043C14.4585 51.3154 14.807 51.844 14.6959 52.385L12.8859 61.2011ZM11.0715 61.5504C-0.338804 44.2446 -2.29508 28.8887 2.31217 17.7603C6.93246 6.60042 18.0261 0 32 0V2C18.6674 2 8.41136 8.25673 4.16006 18.5254C-0.104285 28.8255 1.5459 43.4697 12.7412 60.4495L11.0715 61.5504Z" fill="#AF058F"/>
</svg>
