<svg width="32" height="55" viewBox="0 0 32 55" fill="none" xmlns="http://www.w3.org/2000/svg">
<path d="M19.1534 54.1458C19.2339 54.6922 19.7421 55.0699 20.2885 54.9893L29.1923 53.6768C29.7387 53.5963 30.1163 53.088 30.0358 52.5417C29.9552 51.9953 29.447 51.6176 28.9006 51.6982L20.9861 52.8649L19.8195 44.9504C19.7389 44.404 19.2307 44.0264 18.6843 44.1069C18.138 44.1875 17.7603 44.6957 17.8409 45.2421L19.1534 54.1458ZM20.9453 54.5964C32.3163 39.2935 34.3114 25.646 29.6802 15.72C25.0502 5.79697 13.9864 0 0.139374 0V2C13.4761 2 23.6659 7.56017 27.8677 16.5657C32.0682 25.5683 30.4731 38.4208 19.34 53.4036L20.9453 54.5964Z" fill="#AF058F"/>
</svg>
