<svg xmlns="http://www.w3.org/2000/svg" width="172" height="70" viewBox="0 0 172 70" fill="none">
<g clip-path="url(#clip0_7064_35211)">
<path d="M27.9919 61.6794V52.6315C27.9919 49.602 27.2649 46.9765 23.7103 46.9765C20.3174 46.9765 19.5499 49.804 19.5499 52.6315V61.6794H17.9342V52.6315C17.9342 49.602 17.2072 46.9765 13.6526 46.9765C11.7138 46.9765 9.65378 48.3903 9.65378 50.4907V61.6794H8.03809V45.5628H9.65378V47.2997C10.5828 46.0475 12.2389 45.3608 13.7738 45.3608C16.157 45.3608 17.8534 46.3303 18.8632 48.3095C19.7923 46.4918 21.3676 45.3608 23.7103 45.3608C28.2343 45.3608 29.6076 48.6326 29.6076 52.6315V61.6794H27.9919Z" fill="#0066CC"/>
<path d="M44.7144 54.0451H33.3237C33.4045 57.8016 34.6971 60.3463 38.8575 60.3463C40.7155 60.3463 42.0081 59.8616 43.0179 58.569L44.3104 59.5788C42.9775 61.3157 41.281 61.962 38.8979 61.962C33.5661 61.962 31.6676 58.4882 31.6676 53.6411C31.6676 49.0768 33.4045 45.3203 38.5343 45.3203C42.9371 45.3203 44.7144 48.7133 44.7144 52.6717V54.0451ZM38.5343 46.9764C35.0606 46.9764 33.5661 49.198 33.3641 52.4294H43.0583C43.0179 49.4807 41.9273 46.9764 38.5343 46.9764Z" fill="#0066CC"/>
<path d="M67.0514 61.6794V52.6315C67.0514 49.602 66.3243 46.9765 62.7698 46.9765C59.3768 46.9765 58.6093 49.804 58.6093 52.6315V61.6794H56.9937V52.6315C56.9937 49.602 56.2666 46.9765 52.7121 46.9765C50.7732 46.9765 48.7132 48.3903 48.7132 50.4907V61.6794H47.0975V45.5628H48.7132V47.2997C49.6422 46.0475 51.2983 45.3608 52.8332 45.3608C55.176 45.3608 56.9129 46.3303 57.9227 48.3095C58.8517 46.4918 60.427 45.3608 62.7698 45.3608C67.2937 45.3608 68.667 48.6326 68.667 52.6315V61.6794H67.0514Z" fill="#0066CC"/>
<path d="M77.7149 61.9619C76.0185 61.9619 74.2816 61.6387 73.1506 60.0634V61.6387H71.5349V38.1304H73.1506V47.2994C74.2008 45.9665 76.0185 45.3606 77.7149 45.3606C82.8044 45.3606 84.1373 49.3595 84.1373 53.6814C84.1373 58.0034 82.8044 61.9619 77.7149 61.9619ZM77.7149 46.9763C75.251 46.9763 73.1506 48.5516 73.1506 51.1771V56.2262C73.1506 58.7709 75.2914 60.3866 77.7149 60.3866C81.835 60.3866 82.5216 57.0744 82.5216 53.7218C82.5216 50.2885 81.835 46.9763 77.7149 46.9763Z" fill="#0066CC"/>
<path d="M98.719 54.0451H87.3283C87.4091 57.8016 88.7017 60.3463 92.8621 60.3463C94.7201 60.3463 96.0127 59.8616 97.0225 58.569L98.3151 59.5788C96.9821 61.3157 95.2856 61.962 92.8621 61.962C87.5303 61.962 85.6319 58.4882 85.6319 53.6411C85.6319 49.0768 87.3687 45.3203 92.4986 45.3203C96.9013 45.3203 98.6786 48.7133 98.6786 52.6717V54.0451H98.719ZM92.539 46.9764C89.0652 46.9764 87.5707 49.198 87.3687 52.4294H97.0629C97.0225 49.4807 95.8915 46.9764 92.539 46.9764Z" fill="#0066CC"/>
<path d="M109.504 47.4612C108.777 47.1381 107.969 46.9361 107.242 46.9361C104.899 46.9361 102.677 48.673 102.677 50.935V61.6794H101.062V45.5628H102.677V47.4612C103.808 45.9263 105.666 45.3608 107.242 45.3608C108.292 45.3608 109.342 45.5224 110.312 45.9667L109.504 47.4612Z" fill="#0066CC"/>
<path d="M133.376 0.969238H128.609L115.603 30.9H122.308C122.308 30.9 125.984 22.0945 126.186 21.6501C126.671 21.6501 135.314 21.6501 135.799 21.6501C136.001 22.1348 139.758 30.9 139.758 30.9H146.584L133.658 0.969238H133.376ZM130.992 8.72458C131.558 10.2595 133.497 15.5913 133.82 16.4395C132.931 16.4395 128.892 16.4799 128.003 16.4799C128.327 15.5913 130.427 10.2191 130.992 8.72458Z" fill="#11175E"/>
<path d="M113.745 0.969238H105.666C105.666 0.969238 98.7998 18.8227 98.1131 20.6403C97.4264 18.8227 90.6405 0.969238 90.6405 0.969238H81.9965V30.9H87.7726C87.7726 30.9 87.7726 11.8752 87.7726 8.40144C88.9844 11.7136 96.0127 30.9 96.0127 30.9H100.173C100.173 30.9 107.201 11.6732 108.413 8.40144C108.413 11.8752 108.413 30.9 108.413 30.9H114.149V0.969238H113.745Z" fill="#11175E"/>
<path d="M47.7438 15.8742C47.7438 24.6394 54.8125 31.7484 63.4564 31.7484C72.1408 31.7484 79.1691 24.6394 79.1691 15.8742C79.1691 7.10906 72.1004 0 63.4564 0C54.8125 0.0403924 47.7438 7.14945 47.7438 15.8742ZM53.6007 15.8742C53.6007 10.3808 58.0439 5.89729 63.4564 5.89729C68.9094 5.89729 73.3122 10.3808 73.3122 15.8742C73.3122 21.3676 68.869 25.8511 63.4564 25.8511C58.0439 25.8511 53.6007 21.3676 53.6007 15.8742Z" fill="#11175E"/>
<path d="M25.7703 9.61363C25.7703 15.7533 30.4559 17.2478 34.2124 18.4999C37.2418 19.429 39.5845 20.1964 39.5845 22.7008C39.5845 25.0435 37.161 26.2957 34.899 26.2957C32.7178 26.2957 30.6578 25.2051 29.4864 23.4278L29.2037 23.0239L24.6797 27.4267L24.9221 27.7094C27.7496 31.1024 31.8696 31.789 34.7778 31.789C41.483 31.789 45.8454 27.9922 45.8454 22.0949C45.8454 15.8744 41.0387 14.3395 37.2014 13.0874C34.0104 12.0372 32.0312 11.3101 32.0312 9.2097C32.0312 6.74577 34.2931 5.89753 36.3935 5.89753C38.4132 5.89753 40.1904 6.70537 41.1598 8.03832L41.4426 8.44225L45.8454 3.79712L45.5626 3.51438C42.8159 0.929263 39.3422 0.36377 36.9186 0.36377C31.3849 0.36377 25.7703 3.23163 25.7703 9.61363Z" fill="#11175E"/>
<path d="M25.7703 9.61363C25.7703 15.7533 30.4559 17.2478 34.2124 18.4999C37.2418 19.429 39.5845 20.1964 39.5845 22.7008C39.5845 25.0435 37.161 26.2957 34.899 26.2957C32.7178 26.2957 30.6578 25.2051 29.4864 23.4278L29.2037 23.0239L24.6797 27.4267L24.9221 27.7094C27.7496 31.1024 31.8696 31.789 34.7778 31.789C41.483 31.789 45.8454 27.9922 45.8454 22.0949C45.8454 15.8744 41.0387 14.3395 37.2014 13.0874C34.0104 12.0372 32.0312 11.3101 32.0312 9.2097C32.0312 6.74577 34.2931 5.89753 36.3935 5.89753C38.4132 5.89753 40.1904 6.70537 41.1598 8.03832L41.4426 8.44225L45.8454 3.79712L45.5626 3.51438C42.8159 0.929263 39.3422 0.36377 36.9186 0.36377C31.3849 0.36377 25.7703 3.23163 25.7703 9.61363Z" fill="#11175E"/>
<path d="M21.4887 0.969238H0V30.9H22.6601V25.4066C22.6601 25.4066 6.78592 25.4066 6.01846 25.4066C6.01846 24.72 6.01846 19.0246 6.01846 18.338C6.78592 18.338 20.8425 18.338 20.8425 18.338V12.8446C20.8425 12.8446 6.82631 12.8446 6.01846 12.8446C6.01846 12.1579 6.01846 7.18967 6.01846 6.503C6.78592 6.503 21.9331 6.503 21.9331 6.503V0.969238H21.4887Z" fill="#11175E"/>
<path d="M21.4887 0.969238H0V30.9H22.6601V25.4066C22.6601 25.4066 6.78592 25.4066 6.01846 25.4066C6.01846 24.72 6.01846 19.0246 6.01846 18.338C6.78592 18.338 20.8425 18.338 20.8425 18.338V12.8446C20.8425 12.8446 6.82631 12.8446 6.01846 12.8446C6.01846 12.1579 6.01846 7.18967 6.01846 6.503C6.78592 6.503 21.9331 6.503 21.9331 6.503V0.969238H21.4887Z" fill="#11175E"/>
<path d="M148.927 0.969238H148.523V30.9H154.541C154.541 30.9 154.541 22.0945 154.541 21.327C155.147 21.327 157.773 21.2866 158.136 21.2866C158.379 21.6501 164.437 30.8596 164.437 30.8596H171.708C171.708 30.8596 164.841 21.2866 164.235 20.4788C168.396 18.9842 170.335 14.6623 170.335 11.1077C170.335 5.04887 164.518 0.969238 159.065 0.969238H148.927ZM158.58 6.26064C160.641 6.26064 164.033 6.90692 164.033 11.1077C164.033 14.5411 162.135 16.1164 158.096 16.1164C158.096 16.1164 155.147 16.1164 154.46 16.1164C154.46 15.3893 154.46 6.9877 154.46 6.26064C155.188 6.26064 158.58 6.26064 158.58 6.26064Z" fill="#11175E"/>
<path d="M0 70V38.1304H0.969417V69.0305H110.231V70H0Z" fill="#0066CC"/>
</g>
<defs>
<clipPath id="clip0_7064_35211">
<rect width="171.748" height="70" fill="white"/>
</clipPath>
</defs>
</svg>