<svg width="258" height="48" viewBox="0 0 258 48" fill="none" xmlns="http://www.w3.org/2000/svg">
<mask id="mask0_3486_1178" style="mask-type:luminance" maskUnits="userSpaceOnUse" x="63" y="0" width="19" height="41">
<path d="M63.7773 0.61261H81.13V40.9936H63.7773V0.61261Z" fill="white"/>
</mask>
<g mask="url(#mask0_3486_1178)">
<path fill-rule="evenodd" clip-rule="evenodd" d="M67.8467 12.4612V12.7435H63.7773V19.7491H67.8467V40.9935H75.1382V19.7491H81.13V12.7435H75.1382V12.4612C75.1382 8.95802 77.116 7.37565 81.13 7.65877V0.652395C72.3124 0.143921 67.8467 4.49402 67.8467 12.4612Z" fill="black"/>
</g>
<path fill-rule="evenodd" clip-rule="evenodd" d="M102.608 32.6319C101.138 34.1012 99.273 34.8358 97.0129 34.8358C94.7519 34.8358 92.8865 34.1012 91.4166 32.6319C89.9468 31.1064 89.2126 29.1848 89.2126 26.8694C89.2126 24.5524 89.9468 22.6308 91.4166 21.1623C92.8865 19.6369 94.7519 18.9022 97.0129 18.9022C99.273 18.9022 101.138 19.6369 102.608 21.1623C104.135 22.6308 104.869 24.5524 104.869 26.8694C104.869 29.1848 104.135 31.1064 102.608 32.6319ZM104.869 16.0776C102.665 13.309 99.6124 11.9528 95.6561 11.9528C91.8691 11.9528 88.647 13.4213 85.9343 16.3029C83.2778 19.1845 81.9211 22.6877 81.9211 26.8694C81.9211 31.0503 83.2778 34.6096 85.9343 37.4913C88.647 40.3729 91.8691 41.7852 95.6561 41.7852C99.6124 41.7852 102.665 40.429 104.869 37.6613V40.9936H112.161V12.7436H104.869V16.0776Z" fill="black"/>
<path fill-rule="evenodd" clip-rule="evenodd" d="M130.419 23.8747C127.536 23.1401 125.275 22.2923 125.275 20.7669C125.275 19.3538 126.688 18.4499 128.554 18.4499C130.644 18.4499 132.171 19.4107 133.075 21.3315L139.292 17.9414C137.088 14.0998 133.132 11.9528 128.554 11.9528C125.501 11.9528 122.958 12.7436 120.866 14.3821C118.831 15.9637 117.814 18.1676 117.814 20.9361C117.814 26.8125 123.071 28.5641 127.253 29.6372C130.136 30.3718 132.397 31.2195 132.397 32.745C132.397 34.3835 131.097 35.1742 128.497 35.1742C125.614 35.1742 123.805 33.9319 122.958 31.5018L116.627 35.0612C118.718 39.5243 122.675 41.7852 128.497 41.7852C131.719 41.7852 134.432 40.9936 136.579 39.4682C138.784 37.8866 139.858 35.6266 139.858 32.745C139.914 26.6994 134.544 24.7216 130.419 23.8747Z" fill="black"/>
<path fill-rule="evenodd" clip-rule="evenodd" d="M154.03 4.83337L146.739 7.03731V12.7436H141.821V19.7492H146.739V31.5018C146.739 39.2429 150.412 42.1245 160.417 40.9936V34.3835C156.235 34.6096 154.03 34.5527 154.03 31.5018V19.7492H160.417V12.7436H154.03V4.83337Z" fill="black"/>
<path fill-rule="evenodd" clip-rule="evenodd" d="M247.716 32.6319C246.247 34.1012 244.381 34.8358 242.12 34.8358C239.859 34.8358 237.994 34.1012 236.524 32.6319C235.056 31.1064 234.32 29.1848 234.32 26.8694C234.32 24.5524 235.056 22.6308 236.524 21.1623C237.994 19.6369 239.859 18.9022 242.12 18.9022C244.381 18.9022 246.247 19.6369 247.716 21.1623C249.243 22.6308 249.977 24.5524 249.977 26.8694C249.977 29.1848 249.243 31.1064 247.716 32.6319ZM249.977 12.7436V16.0776C247.773 13.309 244.721 11.9528 240.764 11.9528C236.977 11.9528 233.755 13.4213 231.043 16.3029C228.385 19.1845 227.029 22.6877 227.029 26.8694C227.029 31.0503 228.385 34.6096 231.043 37.4913C233.755 40.3729 236.977 41.7852 240.764 41.7852C244.721 41.7852 247.773 40.429 249.977 37.6613V40.9936H257.268V12.7436H249.977Z" fill="black"/>
<path fill-rule="evenodd" clip-rule="evenodd" d="M184.666 28.6373C184.666 37.3595 172.853 37.3595 172.853 28.6373V12.7436H165.561V27.8953C165.561 46.3786 191.957 46.3786 191.957 27.8953V12.7436H184.666V28.6373Z" fill="black"/>
<mask id="mask1_3486_1178" style="mask-type:luminance" maskUnits="userSpaceOnUse" x="0" y="5" width="224" height="43">
<path d="M0 26.8462V47.9512H223.378V5.74127H0V26.8462Z" fill="white"/>
</mask>
<g mask="url(#mask1_3486_1178)">
<path fill-rule="evenodd" clip-rule="evenodd" d="M196.982 25.8427V40.9936H204.273V25.1007C204.273 16.3777 216.087 16.3777 216.087 25.1007V40.9936H223.378V25.8427C223.378 7.3586 196.982 7.3586 196.982 25.8427Z" fill="black"/>
</g>
<mask id="mask2_3486_1178" style="mask-type:luminance" maskUnits="userSpaceOnUse" x="0" y="5" width="224" height="43">
<path d="M0 26.8462V47.9512H223.378V5.74127H0V26.8462Z" fill="white"/>
</mask>
<g mask="url(#mask2_3486_1178)">
<path fill-rule="evenodd" clip-rule="evenodd" d="M30.4985 12.7436L26.4544 5.74127H18.3611L22.4053 12.7436H14.1306C6.32629 12.7436 0 19.0674 0 26.8686C0 34.6698 6.32629 40.9936 14.1306 40.9936H18.5296L22.5762 48H30.6694L24.5987 37.4896L30.6654 26.9849H22.5722L18.528 33.9881H14.1306C10.1971 33.9881 7.00914 30.8005 7.00914 26.8686C7.00914 22.9367 10.1971 19.7491 14.1306 19.7491H38.9141L32.7131 30.4865H40.8063L51.0539 12.7436H30.4985Z" fill="#FFCF00"/>
</g>
</svg>
