<svg xmlns="http://www.w3.org/2000/svg" width="110" height="26" viewBox="0 0 110 26" fill="none">
<path d="M3.82353 19.35L0 14.7649H13.4664C16.2605 14.7649 18.5504 12.4934 18.5504 9.675C18.5504 6.87766 16.2815 4.58511 13.4664 4.58511H3.82353L0 0H13.4664C18.7815 0 23.1092 4.33272 23.1092 9.65397C23.1092 14.9752 18.7815 19.3079 13.4664 19.3079H3.82353V19.35Z" fill="#AF058F"/>
<path d="M3.82353 11.9886L0 7.40344H10.6933L14.5168 11.9886H3.82353Z" fill="#AF058F"/>
<rect x="94.2437" y="2.67114" width="2.56303" height="14.8911" fill="black"/>
<path fill-rule="evenodd" clip-rule="evenodd" d="M48.7605 6.45703C50.1471 6.45703 51.3025 7.00388 52.1429 7.82415V6.73046H54.7059V17.5833H52.1429V16.4896C51.3025 17.3099 50.1681 17.8567 48.7605 17.8567C45.6302 17.8567 43.3193 15.3118 43.3193 12.1569C43.3193 9.00198 45.6092 6.45703 48.7605 6.45703ZM45.8824 12.1358C45.8824 13.9236 47.2899 15.3749 49.0126 15.3749C50.7353 15.3749 52.1429 13.9236 52.1429 12.1358C52.1429 10.3481 50.7353 8.89681 49.0126 8.89681C47.2899 8.89681 45.8824 10.3481 45.8824 12.1358Z" fill="black"/>
<rect x="89.3277" y="6.73047" width="2.56303" height="10.8528" fill="black"/>
<path fill-rule="evenodd" clip-rule="evenodd" d="M69.5588 6.45703C70.9454 6.45703 72.1008 7.00388 72.9412 7.82415V6.73046H75.5042V17.5833H72.9412V16.4896C72.1008 17.3099 70.9664 17.8567 69.5588 17.8567C66.4286 17.8567 64.1176 15.3118 64.1176 12.1569C64.1176 9.00198 66.4076 6.45703 69.5588 6.45703ZM66.6807 12.1358C66.6807 13.9236 68.0882 15.3749 69.8109 15.3749C71.5336 15.3749 72.9412 13.9236 72.9412 12.1358C72.9412 10.3481 71.5336 8.89681 69.8109 8.89681C68.0882 8.89681 66.6807 10.3481 66.6807 12.1358Z" fill="black"/>
<path d="M60.6302 3.93311L56.0714 7.76104V9.23332H58.0672V14.1339C58.0672 18.067 61.4496 17.8988 63.2353 17.5833V15.0804C62.1218 15.2907 60.6302 15.6693 60.6302 13.8395V9.25435H63.2353V6.75147H60.6302V3.93311Z" fill="black"/>
<path d="M104.307 6.43604C101.155 6.43604 98.6134 8.98098 98.6134 12.1359C98.6134 15.2908 101.155 17.8357 104.307 17.8357C105.798 17.8357 107.164 17.2468 108.193 16.3003L106.597 14.3864C106.008 14.9753 105.21 15.3539 104.307 15.3539C102.521 15.3539 101.071 13.9026 101.071 12.1148C101.071 10.3271 102.521 8.87582 104.307 8.87582C105.735 8.87582 106.954 9.80125 107.374 11.1053H102.668L104.412 13.1875H107.353H108.824H109.895C109.958 12.8299 110 12.4724 110 12.0938C110 9.00201 107.458 6.43604 104.307 6.43604Z" fill="black"/>
<path d="M90.6092 2.39771C89.7479 2.39771 89.0546 3.09178 89.0546 3.95412C89.0546 4.81646 89.7479 5.51053 90.6092 5.51053C91.4706 5.51053 92.1639 4.81646 92.1639 3.95412C92.1639 3.09178 91.4706 2.39771 90.6092 2.39771Z" fill="black"/>
<path fill-rule="evenodd" clip-rule="evenodd" d="M29.2017 2.67114H34.937C38.9076 2.67114 42.1429 5.91016 42.1429 10.1167C42.1429 14.3232 38.9076 17.5622 34.937 17.5622H29.2017V2.67114ZM31.8908 14.9963H34.7899C37.374 14.9963 39.4748 12.9561 39.4958 10.1377C39.4958 7.29832 37.395 5.25816 34.7899 5.25816H31.8908V14.9963Z" fill="black"/>
<path d="M75.5252 5.23712H80.5252V17.5622H83.2143V5.23712H88.2143V2.67114H75.5252V5.23712Z" fill="black"/>
<path fill-rule="evenodd" clip-rule="evenodd" d="M30.7773 21.3983H29.2017V25.0159H30.7773C31.1555 25.0159 31.5126 24.9318 31.8067 24.7846C32.1008 24.6373 32.3319 24.427 32.5 24.1536C32.6681 23.8802 32.7521 23.5647 32.7521 23.2071C32.7521 22.8496 32.6681 22.5341 32.5 22.2607C32.3319 21.9872 32.1008 21.7769 31.8067 21.6297C31.5126 21.4824 31.1555 21.3983 30.7773 21.3983ZM31.4286 24.3008C31.2395 24.406 31.0084 24.448 30.7353 24.448H29.8529V21.9662H30.7353C30.9874 21.9662 31.2185 22.0083 31.4286 22.1134C31.6177 22.2186 31.7857 22.3658 31.8908 22.5551C31.9958 22.7444 32.0588 22.9547 32.0588 23.2071C32.0588 23.4595 31.9958 23.6698 31.8908 23.8591C31.7857 24.0484 31.6387 24.1957 31.4286 24.3008Z" fill="black"/>
<path fill-rule="evenodd" clip-rule="evenodd" d="M35.6933 23.4174C35.6933 23.0178 35.5882 22.7233 35.3782 22.534C35.1681 22.3237 34.8529 22.2396 34.4538 22.2816C34.2227 22.2816 34.0126 22.3027 33.8025 22.3658C33.5924 22.4289 33.4244 22.513 33.2773 22.6182L33.5294 23.0809C33.6345 22.9757 33.7605 22.9126 33.9076 22.8705C34.0546 22.8285 34.2227 22.8074 34.3698 22.8074C34.5798 22.8074 34.7689 22.8495 34.874 22.9547C34.979 23.0598 35.042 23.2071 35.042 23.3964V23.4384H34.3277C33.9496 23.4384 33.6555 23.5226 33.4664 23.6698C33.2773 23.817 33.1933 24.0063 33.1933 24.2587C33.1933 24.4059 33.2353 24.5532 33.3193 24.6794C33.4034 24.8055 33.5294 24.9107 33.6765 24.9738C33.8445 25.0369 34.0126 25.079 34.2227 25.079C34.4328 25.079 34.6008 25.0369 34.7479 24.9738C34.895 24.9107 35 24.8266 35.084 24.7004V25.0369H35.6933V23.4174ZM35.063 24.1746C35 24.3008 34.916 24.4059 34.7899 24.4901C34.6639 24.5532 34.5168 24.5952 34.3487 24.5952C34.2017 24.5952 34.0546 24.5532 33.9706 24.4901C33.8656 24.427 33.8235 24.3428 33.8235 24.2166C33.8235 23.9853 34.0126 23.8591 34.3908 23.8591H35.063V24.1746Z" fill="black"/>
<path d="M36.7227 24.9739C36.5126 24.9108 36.3445 24.8477 36.2185 24.7425L36.4706 24.2588C36.5966 24.3429 36.7437 24.406 36.9118 24.4481C37.0798 24.4902 37.2479 24.5322 37.416 24.5322C37.7941 24.5322 38.0042 24.4271 38.0042 24.2167C38.0042 24.1116 37.9622 24.0485 37.8571 24.0064C37.7521 23.9643 37.605 23.9223 37.395 23.9012C37.1639 23.8592 36.9748 23.8171 36.8487 23.775C36.7017 23.733 36.5756 23.6488 36.4706 23.5437C36.3655 23.4385 36.3025 23.2703 36.3025 23.081C36.3025 22.8286 36.4076 22.6182 36.6387 22.45C36.8487 22.3028 37.1429 22.2186 37.521 22.2186C37.7101 22.2186 37.8992 22.2397 38.0882 22.2817C38.2773 22.3238 38.4244 22.3869 38.5504 22.45L38.2983 22.9337C38.0672 22.7865 37.7941 22.7234 37.5 22.7234C37.3109 22.7234 37.1639 22.7444 37.0588 22.8075C36.9538 22.8706 36.9118 22.9337 36.9118 23.0389C36.9118 23.1441 36.9538 23.2072 37.0798 23.2492C37.1849 23.2913 37.3529 23.3334 37.563 23.3754C37.7731 23.4175 37.9622 23.4596 38.1092 23.5016C38.2563 23.5437 38.3613 23.6278 38.4664 23.733C38.5714 23.8381 38.6134 23.9854 38.6134 24.1957C38.6134 24.4481 38.5084 24.6584 38.2773 24.8267C38.0462 24.9739 37.7521 25.058 37.3529 25.058C37.1639 25.058 36.9328 25.037 36.7227 24.9739Z" fill="black"/>
<path d="M41.5966 22.5341C41.8067 22.7444 41.9118 23.0389 41.9118 23.4385V25.016H41.2605V23.5226C41.2605 23.2913 41.1975 23.102 41.0924 22.9758C40.9874 22.8496 40.8193 22.7865 40.6092 22.7865C40.3782 22.7865 40.1891 22.8496 40.042 22.9968C39.895 23.1441 39.8319 23.3544 39.8319 23.6068V24.9949H39.1807V21.167H39.8319V22.5551C39.937 22.45 40.063 22.3448 40.2311 22.3028C40.3782 22.2397 40.5672 22.2186 40.7563 22.2186C41.1135 22.2397 41.3866 22.3448 41.5966 22.5341Z" fill="black"/>
<path fill-rule="evenodd" clip-rule="evenodd" d="M45.4832 22.9127C45.3571 22.6813 45.1891 22.5341 44.979 22.4079C44.7689 22.2817 44.5168 22.2396 44.2647 22.2396C44.0966 22.2396 43.9286 22.2607 43.7815 22.3237C43.6134 22.3868 43.4874 22.471 43.3824 22.5972V21.188H42.7311V25.0159H43.3403V24.6584C43.4454 24.7846 43.5924 24.8897 43.7395 24.9528C43.9076 25.0159 44.0756 25.058 44.2647 25.058C44.5168 25.058 44.7689 25.0159 44.979 24.8897C45.1891 24.7635 45.3571 24.5953 45.4832 24.3849C45.6092 24.1746 45.6723 23.9222 45.6723 23.6488C45.6723 23.3754 45.6092 23.123 45.4832 22.9127ZM45 23.6488C45 23.9222 44.916 24.1115 44.7689 24.2798C44.6218 24.427 44.4328 24.5111 44.1807 24.5111C44.0336 24.5111 43.8866 24.4691 43.7605 24.406C43.6345 24.3429 43.5294 24.2377 43.4664 24.1115C43.4034 23.9643 43.3613 23.8171 43.3613 23.6488C43.3613 23.4595 43.4034 23.3123 43.4664 23.1861C43.5294 23.0599 43.6345 22.9547 43.7605 22.8916C43.8866 22.8285 44.0336 22.7865 44.1807 22.7865C44.4118 22.7865 44.6218 22.8496 44.7689 23.0178C44.916 23.1861 45 23.3964 45 23.6488Z" fill="black"/>
<path fill-rule="evenodd" clip-rule="evenodd" d="M46.2395 24.385C46.3656 24.5953 46.5336 24.7636 46.7647 24.8898C46.9748 24.9949 47.2269 25.058 47.521 25.0791C47.7941 25.0791 48.0462 25.016 48.2773 24.8898C48.5084 24.7636 48.6765 24.5953 48.8025 24.385C48.9286 24.1747 48.9916 23.9223 48.9916 23.6488C48.9916 23.3754 48.9286 23.123 48.8025 22.9127C48.6765 22.7024 48.5084 22.5341 48.2773 22.4079C48.0462 22.2817 47.7941 22.2186 47.521 22.2186C47.2479 22.2186 46.9958 22.2817 46.7647 22.4079C46.5336 22.5341 46.3656 22.7024 46.2395 22.9127C46.1135 23.123 46.0504 23.3754 46.0504 23.6488C46.0504 23.9223 46.1135 24.1747 46.2395 24.385ZM48.3403 23.6489C48.3403 23.9223 48.2563 24.1116 48.1093 24.2798C47.9412 24.4271 47.7521 24.5112 47.521 24.5112C47.2899 24.5112 47.0798 24.4481 46.9328 24.2798C46.7857 24.1116 46.7017 23.9012 46.7017 23.6489C46.7017 23.3754 46.7857 23.1861 46.9328 23.0179C47.0798 22.8707 47.2899 22.7865 47.521 22.7865C47.7521 22.7865 47.9622 22.8496 48.1093 23.0179C48.2563 23.1861 48.3403 23.3965 48.3403 23.6489Z" fill="black"/>
<path fill-rule="evenodd" clip-rule="evenodd" d="M51.8698 23.4174C51.8698 23.0178 51.7647 22.7233 51.5546 22.534C51.3445 22.3237 51.0294 22.2396 50.6303 22.2816C50.3992 22.2816 50.1891 22.3027 49.979 22.3658C49.7689 22.4289 49.6008 22.513 49.4538 22.6182L49.7059 23.0809C49.8109 22.9757 49.937 22.9126 50.084 22.8705C50.2311 22.8285 50.3992 22.8074 50.5462 22.8074C50.7563 22.8074 50.9454 22.8495 51.0504 22.9547C51.1555 23.0598 51.2185 23.2071 51.2185 23.3964V23.4384H50.5042C50.1261 23.4384 49.8319 23.5226 49.6429 23.6698C49.4538 23.817 49.3698 24.0063 49.3698 24.2587C49.3698 24.4059 49.4118 24.5532 49.4958 24.6794C49.5798 24.8055 49.7059 24.9107 49.8529 24.9738C50.021 25.0369 50.1891 25.079 50.3992 25.079C50.6092 25.079 50.7773 25.0369 50.9244 24.9738C51.0714 24.9107 51.1765 24.8266 51.2605 24.7004V25.0369H51.8698V23.4174ZM51.2395 24.1746C51.1765 24.3008 51.0924 24.4059 50.9664 24.4901C50.8403 24.5532 50.6933 24.5952 50.5252 24.5952C50.3781 24.5952 50.2311 24.5532 50.147 24.4901C50.042 24.427 50 24.3428 50 24.2166C50 23.9853 50.1891 23.8591 50.5672 23.8591H51.2395V24.1746Z" fill="black"/>
<path d="M54.3067 22.2396V22.8496C54.2437 22.8496 54.2017 22.8285 54.1597 22.8285C53.9076 22.8285 53.7185 22.8916 53.5714 23.0389C53.4244 23.1861 53.3613 23.3964 53.3613 23.6698V25.0159H52.7101V22.2607H53.3193V22.6603C53.5084 22.3869 53.8235 22.2396 54.3067 22.2396Z" fill="black"/>
<path fill-rule="evenodd" clip-rule="evenodd" d="M57.521 25.0159V21.188H56.8487V22.5972C56.7437 22.471 56.6176 22.3868 56.4706 22.3237C56.3235 22.2607 56.1555 22.2396 55.9664 22.2396C55.6933 22.2396 55.4622 22.2817 55.2521 22.4079C55.042 22.5341 54.8739 22.7023 54.7479 22.9127C54.6218 23.123 54.5588 23.3754 54.5588 23.6488C54.5588 23.9222 54.6218 24.1746 54.7479 24.3849C54.8739 24.6163 55.042 24.7635 55.2521 24.8897C55.4622 24.9949 55.6933 25.058 55.9664 25.058C56.1555 25.058 56.3445 25.0159 56.4916 24.9528C56.6597 24.8897 56.7857 24.7846 56.8908 24.6584V25.0159H57.521ZM56.7857 24.1115C56.7227 24.2377 56.6176 24.3429 56.4916 24.406C56.3655 24.4691 56.2185 24.5111 56.0714 24.5111C55.9244 24.5111 55.7773 24.4691 55.6513 24.406C55.5252 24.3429 55.4202 24.2377 55.3571 24.1115C55.2941 23.9643 55.2521 23.8171 55.2521 23.6488C55.2521 23.4595 55.2941 23.3123 55.3571 23.1861C55.4202 23.0599 55.5252 22.9547 55.6513 22.8916C55.7773 22.8285 55.9244 22.7865 56.0714 22.7865C56.2185 22.7865 56.3655 22.8285 56.4916 22.8916C56.6176 22.9547 56.7227 23.0599 56.7857 23.1861C56.8487 23.3333 56.8908 23.4805 56.8908 23.6488C56.8908 23.8381 56.8487 23.9853 56.7857 24.1115Z" fill="black"/>
<path d="M58.5714 24.9739C58.3613 24.9108 58.1933 24.8477 58.0672 24.7425L58.3193 24.2588C58.4454 24.3429 58.5924 24.406 58.7605 24.4481C58.9286 24.4902 59.0966 24.5322 59.2647 24.5322C59.6428 24.5322 59.8529 24.4271 59.8529 24.2167C59.8529 24.1116 59.8109 24.0485 59.7059 24.0064C59.6008 23.9643 59.4538 23.9223 59.2437 23.9012C59.0126 23.8592 58.8235 23.8171 58.6975 23.775C58.5504 23.733 58.4244 23.6488 58.3193 23.5437C58.2143 23.4385 58.1512 23.2703 58.1512 23.081C58.1512 22.8286 58.2563 22.6182 58.4874 22.45C58.6975 22.3028 58.9916 22.2186 59.3697 22.2186C59.5588 22.2186 59.7479 22.2397 59.937 22.2817C60.126 22.3238 60.2731 22.3869 60.3991 22.45L60.147 22.9337C59.916 22.7865 59.6428 22.7234 59.3487 22.7234C59.1597 22.7234 59.0126 22.7444 58.9076 22.8075C58.8025 22.8706 58.7605 22.9337 58.7605 23.0389C58.7605 23.1441 58.8025 23.2072 58.9286 23.2492C59.0336 23.2913 59.2017 23.3334 59.4118 23.3754C59.6218 23.4175 59.8109 23.4596 59.958 23.5016C60.105 23.5437 60.2101 23.6278 60.3151 23.733C60.4202 23.8381 60.4622 23.9854 60.4622 24.1957C60.4622 24.4481 60.3571 24.6584 60.126 24.8267C59.8949 24.9739 59.6008 25.058 59.2017 25.058C58.9916 25.058 58.7815 25.037 58.5714 24.9739Z" fill="black"/>
<path fill-rule="evenodd" clip-rule="evenodd" d="M62.416 24.385C62.542 24.5953 62.7101 24.7636 62.9412 24.8898C63.1513 24.9949 63.4034 25.058 63.6975 25.0791C63.9706 25.0791 64.2227 25.016 64.4538 24.8898C64.6849 24.7636 64.853 24.5953 64.979 24.385C65.1051 24.1747 65.1681 23.9223 65.1681 23.6488C65.1681 23.3754 65.1051 23.123 64.979 22.9127C64.853 22.7024 64.6849 22.5341 64.4538 22.4079C64.2227 22.2817 63.9706 22.2186 63.6975 22.2186C63.4244 22.2186 63.1723 22.2817 62.9412 22.4079C62.7101 22.5341 62.542 22.7024 62.416 22.9127C62.2899 23.123 62.2269 23.3754 62.2269 23.6488C62.2269 23.9223 62.2899 24.1747 62.416 24.385ZM64.5168 23.6489C64.5168 23.9223 64.4328 24.1116 64.2857 24.2798C64.1176 24.4271 63.9286 24.5112 63.6975 24.5112C63.4664 24.5112 63.2563 24.4481 63.1092 24.2798C62.9622 24.1116 62.8781 23.9012 62.8781 23.6489C62.8781 23.3754 62.9622 23.1861 63.1092 23.0179C63.2563 22.8707 63.4664 22.7865 63.6975 22.7865C63.9286 22.7865 64.1387 22.8496 64.2857 23.0179C64.4328 23.1861 64.5168 23.3965 64.5168 23.6489Z" fill="black"/>
<path d="M68.1933 22.534C68.4034 22.7444 68.5084 23.0388 68.5084 23.4384V25.0159H67.8571V23.5226C67.8571 23.2912 67.7941 23.1019 67.6891 22.9757C67.584 22.8495 67.416 22.7864 67.2059 22.7864C66.9748 22.7864 66.7857 22.8495 66.6387 22.9967C66.4916 23.144 66.4286 23.3543 66.4286 23.6067V24.9948H65.7773V22.2396H66.3866V22.5971C66.4916 22.4709 66.6176 22.3658 66.7857 22.3027C66.9538 22.2396 67.1219 22.1975 67.3319 22.1975C67.6891 22.2396 67.9832 22.3447 68.1933 22.534Z" fill="black"/>
<path d="M71.1134 24.9528C70.8613 24.8686 70.6513 24.7635 70.5042 24.6373L70.7353 24.1115C70.8823 24.2377 71.0714 24.3218 71.2815 24.4059C71.4916 24.4901 71.7227 24.5111 71.9328 24.5111C72.2059 24.5111 72.395 24.469 72.542 24.3849C72.6681 24.3008 72.7311 24.1746 72.7311 24.0484C72.7311 23.9432 72.6891 23.8591 72.626 23.796C72.542 23.7329 72.458 23.6698 72.3529 23.6488C72.2479 23.6067 72.0798 23.5646 71.8908 23.5226C71.6176 23.4595 71.3866 23.3964 71.2185 23.3333C71.0504 23.2702 70.9034 23.165 70.7773 23.0178C70.6513 22.8705 70.5882 22.6813 70.5882 22.4499C70.5882 22.2606 70.6513 22.0713 70.7563 21.903C70.8613 21.7348 71.0294 21.6086 71.2395 21.5034C71.4496 21.3983 71.7227 21.3562 72.0378 21.3562C72.2479 21.3562 72.479 21.3772 72.6891 21.4403C72.8992 21.5034 73.0882 21.5665 73.2353 21.6717L73.0252 22.1975C72.8571 22.1134 72.7101 22.0292 72.521 21.9872C72.3529 21.9451 72.1849 21.9241 72.0168 21.9241C71.7437 21.9241 71.5546 21.9661 71.4286 22.0503C71.3025 22.1344 71.2395 22.2606 71.2395 22.4078C71.2395 22.513 71.2815 22.5971 71.3445 22.6602C71.4286 22.7233 71.5126 22.7864 71.6176 22.8075C71.7227 22.8495 71.8908 22.8916 72.0798 22.9336C72.3529 22.9967 72.563 23.0598 72.7311 23.1229C72.8992 23.186 73.0462 23.2912 73.1723 23.4384C73.2983 23.5857 73.3613 23.7539 73.3613 24.0063C73.3613 24.2166 73.2983 24.3849 73.1933 24.5532C73.0882 24.7214 72.9202 24.8476 72.7101 24.9317C72.5 25.0369 72.2269 25.079 71.9118 25.079C71.6597 25.079 71.3866 25.0369 71.1134 24.9528Z" fill="black"/>
<path d="M75.6513 24.8687C75.5672 24.9318 75.4832 24.9739 75.3782 25.016C75.2731 25.037 75.1471 25.058 75.042 25.058C74.7479 25.058 74.4958 24.9739 74.3488 24.8267C74.1807 24.6584 74.0967 24.4271 74.0967 24.1326V22.8076H73.6345V22.2817H74.0967V21.6508H74.7479V22.2817H75.4832V22.8076H74.7479V24.1116C74.7479 24.2378 74.7899 24.3429 74.853 24.4271C74.916 24.4902 75.021 24.5322 75.1471 24.5322C75.2941 24.5322 75.4202 24.4902 75.5042 24.4271L75.6513 24.8687Z" fill="black"/>
<path fill-rule="evenodd" clip-rule="evenodd" d="M76.5126 23.8591H78.6765C78.6765 23.775 78.6765 23.7119 78.6975 23.6277C78.6975 23.3333 78.6555 23.0809 78.5294 22.8706C78.4034 22.6602 78.2353 22.492 78.0252 22.3658C77.8152 22.2606 77.5841 22.1975 77.311 22.1975C77.0378 22.1975 76.7857 22.2606 76.5757 22.3868C76.3656 22.513 76.1975 22.6813 76.0715 22.8916C75.9454 23.1229 75.8824 23.3543 75.8824 23.6277C75.8824 23.9012 75.9454 24.1535 76.0715 24.3639C76.1975 24.5742 76.3656 24.7425 76.5967 24.8686C76.8278 24.9948 77.1009 25.0579 77.395 25.0579C77.6261 25.0579 77.8362 25.0369 78.0252 24.9528C78.2143 24.8686 78.3614 24.7635 78.4874 24.6163L78.1513 24.2166C77.9412 24.4059 77.6891 24.5111 77.395 24.5111C77.1639 24.5111 76.9748 24.469 76.8068 24.3428C76.6597 24.2166 76.5547 24.0694 76.5126 23.8591ZM76.5126 23.4174C76.5336 23.2281 76.6177 23.0598 76.7647 22.9336C76.9118 22.8075 77.0799 22.7444 77.2899 22.7444C77.5 22.7444 77.6681 22.8075 77.8152 22.9336C77.9622 23.0598 78.0462 23.2281 78.0673 23.4174H76.5126Z" fill="black"/>
<path d="M80.9034 22.2396V22.8496C80.8403 22.8496 80.7983 22.8285 80.7563 22.8285C80.5042 22.8285 80.3151 22.8916 80.1681 23.0389C80.021 23.1861 79.958 23.3964 79.958 23.6698V25.0159H79.3067V22.2607H79.916V22.6603C80.1051 22.3869 80.4412 22.2396 80.9034 22.2396Z" fill="black"/>
<path fill-rule="evenodd" clip-rule="evenodd" d="M81.3866 24.385C81.5126 24.5953 81.6807 24.7636 81.9118 24.8898C82.1218 24.9949 82.374 25.058 82.6681 25.0791C82.9412 25.0791 83.1933 25.016 83.4244 24.8898C83.6555 24.7636 83.8235 24.5953 83.9496 24.385C84.0756 24.1747 84.1387 23.9223 84.1387 23.6488C84.1387 23.3754 84.0756 23.123 83.9496 22.9127C83.8235 22.7024 83.6555 22.5341 83.4244 22.4079C83.1933 22.2817 82.9412 22.2186 82.6681 22.2186C82.395 22.2186 82.1429 22.2817 81.9118 22.4079C81.6807 22.5341 81.5126 22.7024 81.3866 22.9127C81.2605 23.123 81.1975 23.3754 81.1975 23.6488C81.1975 23.9223 81.2605 24.1747 81.3866 24.385ZM83.4874 23.6489C83.4874 23.9223 83.4034 24.1116 83.2563 24.2798C83.0883 24.4271 82.8992 24.5112 82.6681 24.5112C82.437 24.5112 82.2269 24.4481 82.0798 24.2798C81.9328 24.1116 81.8488 23.9012 81.8488 23.6489C81.8488 23.3754 81.9328 23.1861 82.0798 23.0179C82.2269 22.8707 82.437 22.7865 82.6681 22.7865C82.8992 22.7865 83.1093 22.8496 83.2563 23.0179C83.4034 23.1861 83.4874 23.3965 83.4874 23.6489Z" fill="black"/>
<path fill-rule="evenodd" clip-rule="evenodd" d="M84.6639 21.4194C84.6639 21.5245 84.7059 21.6087 84.7899 21.6928C84.853 21.7769 84.958 21.819 85.084 21.84C85.2101 21.84 85.2941 21.7979 85.3782 21.7138C85.4622 21.6297 85.5042 21.5245 85.5042 21.4194C85.5042 21.3142 85.4622 21.209 85.3782 21.1459C85.2941 21.0828 85.2101 21.0408 85.084 21.0408C84.958 21.0408 84.874 21.0618 84.7899 21.1459C84.7059 21.209 84.6639 21.3142 84.6639 21.4194ZM85.3992 22.2607H84.7479V25.0159H85.3992V22.2607Z" fill="black"/>
<path fill-rule="evenodd" clip-rule="evenodd" d="M88.9496 25.0159V21.188H88.2773V22.5972C88.1723 22.471 88.0462 22.3868 87.8992 22.3237C87.7521 22.2607 87.584 22.2396 87.395 22.2396C87.1219 22.2396 86.8908 22.2817 86.6807 22.4079C86.4706 22.5341 86.3025 22.7023 86.1765 22.9127C86.0504 23.123 85.9874 23.3754 85.9874 23.6488C85.9874 23.9222 86.0504 24.1746 86.1765 24.3849C86.3025 24.6163 86.4706 24.7635 86.6807 24.8897C86.8908 24.9949 87.1219 25.058 87.395 25.058C87.584 25.058 87.7731 25.0159 87.9202 24.9528C88.0882 24.8897 88.2143 24.7846 88.3193 24.6584V25.0159H88.9496ZM88.1933 24.1115C88.1302 24.2377 88.0252 24.3429 87.8992 24.406C87.7731 24.4691 87.6471 24.5111 87.479 24.5111C87.3319 24.5111 87.1849 24.4691 87.0588 24.406C86.9328 24.3429 86.8277 24.2377 86.7647 24.1115C86.7017 23.9643 86.6597 23.8171 86.6597 23.6488C86.6597 23.4595 86.7017 23.3123 86.7647 23.1861C86.8277 23.0599 86.9328 22.9547 87.0588 22.8916C87.1849 22.8285 87.3319 22.7865 87.479 22.7865C87.626 22.7865 87.7731 22.8285 87.8992 22.8916C88.0252 22.9547 88.1302 23.0599 88.1933 23.1861C88.2563 23.3333 88.2983 23.4805 88.2983 23.6488C88.2983 23.8381 88.2563 23.9853 88.1933 24.1115Z" fill="black"/>
<path d="M89.979 24.9739C89.7689 24.9108 89.6008 24.8477 89.4748 24.7425L89.7269 24.2588C89.8529 24.3429 90 24.406 90.168 24.4481C90.3361 24.4902 90.5042 24.5322 90.6722 24.5322C91.0504 24.5322 91.2605 24.4271 91.2605 24.2167C91.2605 24.1116 91.2185 24.0485 91.1134 24.0064C91.0084 23.9643 90.8613 23.9223 90.6512 23.9012C90.4201 23.8592 90.2311 23.8171 90.105 23.775C89.958 23.733 89.8319 23.6488 89.7269 23.5437C89.6218 23.4385 89.5588 23.2703 89.5588 23.081C89.5588 22.8286 89.6638 22.6182 89.8949 22.45C90.105 22.3028 90.3991 22.2186 90.7773 22.2186C90.9664 22.2186 91.1554 22.2397 91.3445 22.2817C91.5336 22.3238 91.6806 22.3869 91.8067 22.45L91.5546 22.9337C91.3235 22.7865 91.0504 22.7234 90.7563 22.7234C90.5672 22.7234 90.4201 22.7444 90.3151 22.8075C90.2101 22.8706 90.168 22.9337 90.168 23.0389C90.168 23.1441 90.2101 23.2072 90.3361 23.2492C90.4411 23.2913 90.6092 23.3334 90.8193 23.3754C91.0294 23.4175 91.2185 23.4596 91.3655 23.5016C91.5126 23.5437 91.6176 23.6278 91.7227 23.733C91.8277 23.8381 91.8697 23.9854 91.8697 24.1957C91.8697 24.4481 91.7647 24.6584 91.5336 24.8267C91.3025 24.9739 91.0084 25.058 90.6092 25.058C90.4201 25.058 90.2101 25.037 89.979 24.9739Z" fill="black"/>
</svg>