<svg width="90" height="132" viewBox="0 0 90 132" fill="none" xmlns="http://www.w3.org/2000/svg">
<path d="M35.1002 102.583C30.1367 102.586 26.1154 106.612 26.1175 111.575C26.1196 116.538 30.1444 120.561 35.1079 120.56C40.0713 120.559 44.0944 116.535 44.0944 111.571C44.0912 106.606 40.0653 102.583 35.1002 102.583ZM38.3367 114.808C36.7975 116.352 34.3812 116.594 32.5665 115.385C30.7518 114.176 30.0445 111.853 30.8773 109.837C31.7101 107.822 33.851 106.676 35.9899 107.101C38.1288 107.525 39.6696 109.402 39.6694 111.583C39.6706 112.792 39.1912 113.952 38.3367 114.808ZM54.7213 102.583C53.1121 102.583 51.5331 103.02 50.1521 103.846C50.1521 101.025 50.1521 98.4924 50.1521 97.2981C50.1521 93.8366 45.7213 94.1827 45.7213 94.1827V111.589C45.7245 116.552 49.7502 120.573 54.7136 120.571C59.6771 120.569 63.6993 116.544 63.6983 111.581C63.6972 106.617 59.6732 102.594 54.7098 102.594L54.7213 102.583ZM57.9521 114.808C56.4147 116.349 54.0027 116.59 52.1911 115.383C50.3795 114.176 49.6726 111.857 50.5027 109.845C51.3328 107.832 53.4688 106.686 55.6045 107.108C57.7402 107.529 59.2811 109.4 59.2848 111.577C59.2914 112.789 58.8112 113.953 57.9521 114.808ZM74.3194 102.577C70.5309 102.578 67.1499 104.955 65.866 108.519C64.5821 112.084 65.6709 116.07 68.5883 118.487C71.5057 120.904 75.6254 121.232 78.8886 119.308V120.369H83.3136V111.346C83.1946 106.466 79.2015 102.572 74.3194 102.577ZM77.5386 114.808C76.0001 116.343 73.5916 116.578 71.7851 115.37C69.9786 114.161 69.2769 111.845 70.1088 109.837C70.9406 107.829 73.0746 106.688 75.2065 107.111C77.3384 107.534 78.875 109.403 78.8771 111.577C78.8777 112.789 78.3961 113.951 77.5386 114.808ZM18.306 111.675C18.3045 109.912 17.774 108.189 16.7829 106.731C18.6175 105.577 18.2656 102.837 18.2656 102.837H9.44441C4.54554 102.837 0.574219 106.808 0.574219 111.707C0.574219 116.606 4.54554 120.577 9.44441 120.577H10.5983C12.0726 120.581 13.3688 121.554 13.7839 122.968C14.1991 124.383 13.6342 125.902 12.3958 126.702C11.1573 127.502 9.54021 127.392 8.42153 126.432C7.30286 125.471 6.9491 123.89 7.5521 122.544L3.5771 120.75C1.94251 124.371 3.32849 128.642 6.77816 130.613C10.2278 132.584 14.6107 131.61 16.9008 128.364C19.1909 125.117 18.6378 120.661 15.6233 118.073C17.3516 116.395 18.3204 114.084 18.306 111.675ZM6.25403 114.86C4.97808 113.587 4.58468 111.675 5.25426 110.002C5.92383 108.329 7.5272 107.216 9.32903 107.175H9.67518C11.685 107.277 13.3836 108.699 13.8371 110.66C14.2907 112.62 13.3891 114.644 11.6281 115.618C9.86712 116.592 7.67377 116.28 6.25403 114.854V114.86ZM85.1886 94.2808V120.531H89.6194C89.6194 120.531 89.6194 100.858 89.6194 97.402C89.6194 93.9462 85.1886 94.2808 85.1886 94.2808ZM20.0136 94.2808V120.531H24.4444V97.3962C24.4444 93.9289 20.0136 94.2808 20.0136 94.2808ZM54.8425 32.9135C52.2485 30.3079 48.7762 28.7631 45.104 28.5808H43.9502C37.154 28.7477 31.3352 33.4997 29.8139 40.1256C28.2926 46.7514 31.4557 53.5657 37.4984 56.6805C43.5411 59.7952 50.9265 58.4181 55.4406 53.335C59.9547 48.2518 60.4495 40.7554 56.6425 35.1231C56.1131 34.3318 55.5104 33.592 54.8425 32.9135Z" fill="#0059A6"/>
<path d="M61.7826 0H28.4191C13.0645 0 0.617188 12.4473 0.617188 27.8019V61.1538C0.61825 74.4643 10.0514 85.9075 23.1172 88.4481C22.8264 86.8957 22.6796 85.3198 22.6787 83.7404C22.6787 83.3365 22.6787 82.9327 22.7133 82.5288C22.7133 82.4019 22.7133 82.2808 22.7133 82.1538C22.7133 81.8577 22.7364 81.5635 22.7826 81.2712C22.7826 81.0788 22.8037 80.8865 22.846 80.6942C22.8749 80.4346 22.9095 80.175 22.9499 79.9212C22.9903 79.6673 23.0249 79.4712 23.0653 79.2462L23.1287 78.9115C23.2903 78.0769 23.4826 77.2558 23.7056 76.4481C24.0193 75.3659 24.4048 74.3059 24.8595 73.275L33.0922 76.9962L37.996 79.2115C37.3597 80.6322 37.0332 82.1722 37.0383 83.7288C37.0376 85.5499 37.4854 87.3431 38.3422 88.95H57.8768C60.1775 84.6695 59.399 79.3868 55.9614 75.9519C55.748 75.7442 55.5287 75.5481 55.298 75.375C55.0672 75.2019 54.8595 75.0231 54.6287 74.8558C52.7501 73.4779 50.4796 72.7379 48.1499 72.7442C48.1499 72.7442 45.623 72.7442 44.3595 72.7442C28.1701 72.7442 15.046 59.6201 15.046 43.4308C15.046 27.2414 28.1701 14.1173 44.3595 14.1173C44.6191 14.1173 44.8903 14.1173 45.1441 14.1173H73.5056C73.5056 14.1173 74.6595 23.2269 68.6191 26.9769C69.0345 27.5923 69.4191 28.2231 69.773 28.8692C76.4008 40.4845 74.329 55.1128 64.7364 64.4308C65.3133 64.9096 65.8153 65.4115 66.3287 65.9308L66.5883 66.1904C66.7787 66.3923 66.9633 66.6 67.1653 66.8077L67.4826 67.1596C67.6499 67.3558 67.8114 67.5577 67.9787 67.7365L68.3076 68.1462C68.4576 68.3423 68.6076 68.5442 68.7518 68.7231L69.0807 69.1788C69.2191 69.375 69.3518 69.5769 69.4845 69.7558L69.8018 70.2519C69.9287 70.4538 70.0441 70.6558 70.1653 70.8288L70.4653 71.3596C70.5749 71.5615 70.6845 71.7635 70.7883 71.9712C70.8922 72.1788 70.9787 72.3462 71.071 72.5481C71.1633 72.75 71.2672 72.9577 71.3595 73.1596C71.4518 73.3615 71.5326 73.5577 71.6191 73.7365C71.7056 73.9154 71.7922 74.1462 71.873 74.3538C71.9537 74.5615 72.0287 74.7692 72.1095 74.9827C72.1903 75.1962 72.2595 75.3923 72.3287 75.6C72.398 75.8077 72.4672 76.0385 72.5364 76.2577C72.6056 76.4769 72.6576 76.6673 72.7153 76.8692C72.773 77.0712 72.8364 77.3308 72.8941 77.5673C72.9518 77.8038 72.9922 77.9712 73.0383 78.1731C73.0845 78.375 73.1364 78.6635 73.1826 78.9115C73.2287 79.1596 73.2576 79.3038 73.2922 79.4885C73.3268 79.6731 73.3672 80.0192 73.4018 80.2846C73.4364 80.55 73.4537 80.6538 73.4768 80.8615C73.5114 81.1615 73.5287 81.4673 73.5518 81.7731C73.5518 81.9288 73.5518 82.0846 73.5864 82.2404C73.6133 82.7019 73.6268 83.1673 73.6268 83.6365C73.626 84.5191 73.5798 85.401 73.4883 86.2788C83.2742 81.7364 89.5486 71.9426 89.5845 61.1538V27.8019C89.5845 12.4473 77.1371 0 61.7826 0Z" fill="#0059A6"/>
</svg>
