<svg width="32" height="32" viewBox="0 0 32 32" fill="none" xmlns="http://www.w3.org/2000/svg">
<path fill-rule="evenodd" clip-rule="evenodd" d="M23.2929 10.3071C23.6834 9.91658 23.6834 9.28342 23.2929 8.89289L23.1071 8.70711C22.7166 8.31658 22.0834 8.31658 21.6929 8.70711L16 14.4L10.3071 8.70711C9.91658 8.31658 9.28342 8.31658 8.89289 8.70711L8.70711 8.89289C8.31658 9.28342 8.31658 9.91658 8.70711 10.3071L14.4 16L8.70711 21.6929C8.31658 22.0834 8.31658 22.7166 8.70711 23.1071L8.89289 23.2929C9.28342 23.6834 9.91658 23.6834 10.3071 23.2929L16 17.6L21.6929 23.2929C22.0834 23.6834 22.7166 23.6834 23.1071 23.2929L23.2929 23.1071C23.6834 22.7166 23.6834 22.0834 23.2929 21.6929L17.6 16L23.2929 10.3071Z" fill="black"/>
</svg>
