<svg width="24" height="24" viewBox="0 0 24 24" fill="none" xmlns="http://www.w3.org/2000/svg">
<path fill-rule="evenodd" clip-rule="evenodd" d="M12 22C17.5228 22 22 17.5228 22 12C22 6.47715 17.5228 2 12 2C6.47715 2 2 6.47715 2 12C2 17.5228 6.47715 22 12 22ZM14.7005 7.87512C14.7005 8.91072 13.861 9.75023 12.8254 9.75023C11.7898 9.75023 10.9503 8.91072 10.9503 7.87512C10.9503 6.83952 11.7898 6 12.8254 6C13.861 6 14.7005 6.83952 14.7005 7.87512ZM13.4547 16.5187C13.4502 16.5202 13.0354 16.6582 12.6754 16.6582C12.4767 16.6582 12.3964 16.6169 12.3709 16.5989C12.2449 16.5112 12.0109 16.3469 12.4114 15.5488L13.1615 14.0533C13.6062 13.1652 13.6722 12.3064 13.3452 11.6344C13.0782 11.0846 12.5659 10.7073 11.9051 10.5723C11.6674 10.5235 11.4258 10.4995 11.1866 10.4995C9.79974 10.4995 8.86593 11.3096 8.82693 11.3441C8.69267 11.4626 8.66117 11.6591 8.75043 11.8136C8.84043 11.9681 9.02569 12.0386 9.1967 11.9801C9.20045 11.9786 9.61598 11.8399 9.976 11.8399C10.1733 11.8399 10.2528 11.8811 10.2775 11.8984C10.4043 11.9869 10.639 12.1534 10.2393 12.9499L9.48922 14.4463C9.04369 15.3351 8.97844 16.1939 9.30546 16.8652C9.57248 17.415 10.084 17.7922 10.7463 17.9272C10.9818 17.9745 11.2233 18 11.4618 18C12.8494 18 13.784 17.1899 13.823 17.1554C13.9573 17.0377 13.9888 16.8404 13.8995 16.6859C13.8095 16.5322 13.6227 16.4632 13.4547 16.5187Z" fill="#D7D7DC"/>
</svg>
