<svg xmlns="http://www.w3.org/2000/svg" width="36" height="36" viewBox="0 0 36 36" fill="none">
<path fill-rule="evenodd" clip-rule="evenodd" d="M28.1022 26.4822V19.455C28.1022 15.69 26.0922 13.938 23.4126 13.938C21.2502 13.938 20.2812 15.1278 19.7412 15.9624V14.226H15.6672C15.7212 15.3762 15.6672 26.4822 15.6672 26.4822H19.7412V19.6374C19.7412 19.272 19.7676 18.906 19.8756 18.6444C20.1696 17.9124 20.8398 17.1546 21.9648 17.1546C23.4396 17.1546 24.0288 18.2784 24.0288 19.9254V26.4828H28.1022V26.4822ZM11.3754 12.5532C12.7956 12.5532 13.6806 11.6112 13.6806 10.4346C13.6542 9.2328 12.7956 8.3178 11.4024 8.3178C10.0092 8.3178 9.0978 9.2322 9.0978 10.4346C9.0978 11.6112 9.9822 12.5532 11.3496 12.5532H11.3754ZM18 36C8.0592 36 0 27.9408 0 18C0 8.0586 8.0592 0 18 0C27.9408 0 36 8.0586 36 18C36 27.9408 27.9408 36 18 36ZM13.4124 26.4822V14.226H9.339V26.4822H13.4124Z" fill="#D7D7DC"/>
</svg>