<svg xmlns="http://www.w3.org/2000/svg" width="158" height="36" viewBox="0 0 158 36" fill="none">
<path d="M5.48832 27.7751L0 21.1936H19.3297C23.3404 21.1936 26.6274 17.9331 26.6274 13.8876C26.6274 9.87224 23.3706 6.5815 19.3297 6.5815H5.48832L0 0H19.3297C26.9591 0 33.1712 6.21921 33.1712 13.8574C33.1712 21.4955 26.9591 27.7147 19.3297 27.7147H5.48832V27.7751Z" fill="white"/>
<path d="M5.48832 17.2085L0 10.627H15.3492L20.8375 17.2085H5.48832Z" fill="white"/>
<rect x="135.278" y="3.83417" width="3.67899" height="21.3748" fill="white"/>
<path fill-rule="evenodd" clip-rule="evenodd" d="M69.9911 9.26844C71.9814 9.26844 73.64 10.0534 74.8462 11.2308V9.66092H78.5252V25.2391H74.8462V23.6692C73.64 24.8467 72.0116 25.6316 69.9911 25.6316C65.498 25.6316 62.1808 21.9786 62.1808 17.45C62.1808 12.9215 65.4678 9.26844 69.9911 9.26844ZM65.8598 17.4198C65.8598 19.986 67.8803 22.0691 70.353 22.0691C72.8258 22.0691 74.8462 19.986 74.8462 17.4198C74.8462 14.8537 72.8258 12.7705 70.353 12.7705C67.8803 12.7705 65.8598 14.8537 65.8598 17.4198Z" fill="white"/>
<rect x="128.222" y="9.66092" width="3.67899" height="15.5782" fill="white"/>
<path fill-rule="evenodd" clip-rule="evenodd" d="M99.8452 9.26844C101.835 9.26844 103.494 10.0534 104.7 11.2308V9.66092H108.379V25.2391H104.7V23.6692C103.494 24.8467 101.866 25.6316 99.8452 25.6316C95.352 25.6316 92.0349 21.9786 92.0349 17.45C92.0349 12.9215 95.3218 9.26844 99.8452 9.26844ZM95.7139 17.4198C95.7139 19.986 97.7343 22.0691 100.207 22.0691C102.68 22.0691 104.7 19.986 104.7 17.4198C104.7 14.8537 102.68 12.7705 100.207 12.7705C97.7343 12.7705 95.7139 14.8537 95.7139 17.4198Z" fill="white"/>
<path d="M87.0291 5.64559L80.4853 11.1402V13.2536H83.3501V20.2879C83.3501 25.9335 88.2051 25.692 90.7683 25.2391V21.6465C89.1701 21.9484 87.0291 22.4918 87.0291 19.8652V13.2837H90.7683V9.6911H87.0291V5.64559V5.64559Z" fill="white"/>
<path d="M149.723 9.23825C145.199 9.23825 141.55 12.8913 141.55 17.4198C141.55 21.9484 145.199 25.6014 149.723 25.6014C151.864 25.6014 153.824 24.7561 155.301 23.3975L153.01 20.6502C152.165 21.4955 151.019 22.039 149.723 22.039C147.159 22.039 145.079 19.9558 145.079 17.3896C145.079 14.8235 147.159 12.7403 149.723 12.7403C151.773 12.7403 153.522 14.0687 154.125 15.9405H147.37L149.873 18.9293H154.095H156.206H157.744C157.834 18.4161 157.895 17.9029 157.895 17.3594C157.895 12.9215 154.246 9.23825 149.723 9.23825" fill="white"/>
<path d="M130.061 3.44169C128.825 3.44169 127.83 4.43797 127.83 5.67578C127.83 6.91358 128.825 7.90986 130.061 7.90986C131.297 7.90986 132.293 6.91358 132.293 5.67578C132.293 4.43797 131.297 3.44169 130.061 3.44169" fill="white"/>
<path fill-rule="evenodd" clip-rule="evenodd" d="M41.9163 3.83417H50.1488C55.8482 3.83417 60.4921 8.48348 60.4921 14.5215C60.4921 20.5596 55.8482 25.2089 50.1488 25.2089H41.9163V3.83417ZM45.7762 21.5257H49.9377C53.6468 21.5257 56.6624 18.5972 56.6925 14.5517C56.6925 10.476 53.677 7.54758 49.9377 7.54758H45.7762V21.5257Z" fill="white"/>
<path d="M108.409 7.51739H115.586V25.2089H119.446V7.51739H126.623V3.83417H108.409V7.51739Z" fill="white"/>
<path fill-rule="evenodd" clip-rule="evenodd" d="M44.178 30.7153H41.9163V35.9081H44.178C44.7208 35.9081 45.2334 35.7873 45.6556 35.576C46.0778 35.3647 46.4095 35.0628 46.6507 34.6703C46.892 34.2778 47.0126 33.8249 47.0126 33.3117C47.0126 32.7985 46.892 32.3456 46.6507 31.9531C46.4095 31.5607 46.0778 31.2588 45.6556 31.0474C45.2334 30.8361 44.7208 30.7153 44.178 30.7153ZM45.1128 34.8816C44.8414 35.0326 44.5097 35.0929 44.1177 35.0929H42.8511V31.5305H44.1177C44.4795 31.5305 44.8112 31.5909 45.1128 31.7418C45.3842 31.8928 45.6254 32.1041 45.7762 32.3758C45.927 32.6475 46.0175 32.9494 46.0175 33.3117C46.0175 33.674 45.927 33.9759 45.7762 34.2476C45.6254 34.5193 45.4143 34.7307 45.1128 34.8816Z" fill="white"/>
<path fill-rule="evenodd" clip-rule="evenodd" d="M51.2344 33.6136C51.2344 33.04 51.0836 32.6173 50.782 32.3456C50.4805 32.0437 50.0281 31.9229 49.4552 31.9833C49.1235 31.9833 48.8219 32.0135 48.5204 32.1041C48.2188 32.1947 47.9776 32.3154 47.7665 32.4664L48.1283 33.1306C48.2791 32.9796 48.4601 32.889 48.6711 32.8286C48.8822 32.7683 49.1235 32.7381 49.3346 32.7381C49.6361 32.7381 49.9075 32.7985 50.0583 32.9494C50.2091 33.1004 50.2995 33.3117 50.2995 33.5834V33.6438H49.2743C48.7315 33.6438 48.3093 33.7645 48.0379 33.9759C47.7665 34.1872 47.6459 34.4589 47.6459 34.8212C47.6459 35.0325 47.7062 35.2439 47.8268 35.425C47.9474 35.6062 48.1283 35.7571 48.3394 35.8477C48.5807 35.9383 48.8219 35.9986 49.1235 35.9986C49.425 35.9986 49.6663 35.9383 49.8774 35.8477C50.0885 35.7571 50.2392 35.6363 50.3599 35.4552V35.9383H51.2344V33.6136ZM50.3297 34.7005C50.2392 34.8816 50.1186 35.0325 49.9377 35.1533C49.7567 35.2439 49.5457 35.3043 49.3044 35.3043C49.0933 35.3043 48.8822 35.2439 48.7616 35.1533C48.6108 35.0627 48.5505 34.942 48.5505 34.7608C48.5505 34.4287 48.8219 34.2476 49.3647 34.2476H50.3297V34.7005Z" fill="white"/>
<path d="M52.712 35.8477C52.4104 35.7571 52.1692 35.6665 51.9883 35.5156L52.3501 34.8212C52.5311 34.942 52.7422 35.0325 52.9834 35.0929C53.2246 35.1533 53.4659 35.2137 53.7071 35.2137C54.2499 35.2137 54.5515 35.0627 54.5515 34.7608C54.5515 34.6099 54.4912 34.5193 54.3404 34.4589C54.1896 34.3985 53.9785 34.3382 53.677 34.308C53.3453 34.2476 53.0739 34.1872 52.8929 34.1268C52.6818 34.0665 52.5009 33.9457 52.3501 33.7947C52.1994 33.6438 52.1089 33.4023 52.1089 33.1306C52.1089 32.7683 52.2597 32.4664 52.5914 32.2248C52.8929 32.0135 53.3151 31.8927 53.8579 31.8927C54.1293 31.8927 54.4007 31.9229 54.6721 31.9833C54.9435 32.0437 55.1546 32.1343 55.3355 32.2248L54.9737 32.9192C54.642 32.7079 54.2499 32.6173 53.8278 32.6173C53.5564 32.6173 53.3453 32.6475 53.1945 32.7381C53.0437 32.8286 52.9834 32.9192 52.9834 33.0702C52.9834 33.2211 53.0437 33.3117 53.2246 33.3721C53.3754 33.4325 53.6167 33.4928 53.9182 33.5532C54.2198 33.6136 54.4912 33.674 54.7023 33.7344C54.9134 33.7947 55.0641 33.9155 55.2149 34.0665C55.3657 34.2174 55.426 34.4287 55.426 34.7306C55.426 35.0929 55.2752 35.3948 54.9435 35.6364C54.6118 35.8477 54.1896 35.9684 53.6167 35.9684C53.3453 35.9684 53.0136 35.9383 52.712 35.8477" fill="white"/>
<path d="M59.7081 32.3456C60.0097 32.6475 60.1604 33.0702 60.1604 33.6438V35.9081H59.2256V33.7646C59.2256 33.4325 59.1351 33.1608 58.9844 32.9796C58.8336 32.7985 58.5923 32.7079 58.2908 32.7079C57.9591 32.7079 57.6877 32.7985 57.4766 33.0098C57.2655 33.2211 57.175 33.523 57.175 33.8853V35.8779H56.2402V30.3832H57.175V32.3758C57.3258 32.2249 57.5067 32.0739 57.748 32.0135C57.9591 31.923 58.2305 31.8928 58.5019 31.8928C59.0145 31.923 59.4065 32.0739 59.7081 32.3456" fill="white"/>
<path fill-rule="evenodd" clip-rule="evenodd" d="M65.2869 32.889C65.1059 32.5569 64.8647 32.3456 64.5631 32.1645C64.2616 31.9833 63.8997 31.9229 63.5378 31.9229C63.2966 31.9229 63.0554 31.9531 62.8443 32.0437C62.603 32.1343 62.4221 32.255 62.2713 32.4362V30.4134H61.3365V35.9081H62.211V35.3948C62.3618 35.576 62.5729 35.7269 62.784 35.8175C63.0252 35.9081 63.2664 35.9685 63.5378 35.9685C63.8997 35.9685 64.2616 35.9081 64.5631 35.7269C64.8647 35.5458 65.1059 35.3043 65.2869 35.0024C65.4678 34.7005 65.5583 34.3382 65.5583 33.9457C65.5583 33.5532 65.4678 33.1909 65.2869 32.889ZM64.5933 33.9457C64.5933 34.3382 64.4727 34.6099 64.2616 34.8514C64.0505 35.0627 63.7791 35.1835 63.4172 35.1835C63.2061 35.1835 62.995 35.1231 62.8141 35.0326C62.6332 34.942 62.4824 34.791 62.3919 34.6099C62.3015 34.3986 62.2412 34.1872 62.2412 33.9457C62.2412 33.674 62.3015 33.4627 62.3919 33.2815C62.4824 33.1004 62.6332 32.9494 62.8141 32.8589C62.995 32.7683 63.2061 32.7079 63.4172 32.7079C63.7489 32.7079 64.0505 32.7985 64.2616 33.04C64.4727 33.2815 64.5933 33.5834 64.5933 33.9457Z" fill="white"/>
<path fill-rule="evenodd" clip-rule="evenodd" d="M66.3725 35.0024C66.5534 35.3043 66.7947 35.5458 67.1264 35.7269C67.4279 35.8779 67.7898 35.9684 68.212 35.9986C68.604 35.9986 68.9659 35.9081 69.2976 35.7269C69.6293 35.5458 69.8705 35.3043 70.0515 35.0024C70.2324 34.7004 70.3229 34.3382 70.3229 33.9457C70.3229 33.5532 70.2324 33.1909 70.0515 32.889C69.8705 32.5871 69.6293 32.3456 69.2976 32.1645C68.9659 31.9833 68.604 31.8927 68.212 31.8927C67.82 31.8927 67.4581 31.9833 67.1264 32.1645C66.7947 32.3456 66.5534 32.5871 66.3725 32.889C66.1916 33.1909 66.1011 33.5532 66.1011 33.9457C66.1011 34.3382 66.1916 34.7004 66.3725 35.0024ZM69.3881 33.9457C69.3881 34.3382 69.2674 34.6099 69.0563 34.8514C68.8151 35.0627 68.5437 35.1835 68.212 35.1835C67.8803 35.1835 67.5787 35.0929 67.3676 34.8514C67.1565 34.6099 67.0359 34.308 67.0359 33.9457C67.0359 33.5532 67.1565 33.2815 67.3676 33.04C67.5787 32.8287 67.8803 32.7079 68.212 32.7079C68.5437 32.7079 68.8453 32.7985 69.0563 33.04C69.2674 33.2815 69.3881 33.5834 69.3881 33.9457Z" fill="white"/>
<path fill-rule="evenodd" clip-rule="evenodd" d="M74.4542 33.6136C74.4542 33.04 74.3034 32.6173 74.0018 32.3456C73.7003 32.0437 73.248 31.9229 72.675 31.9833C72.3433 31.9833 72.0417 32.0135 71.7402 32.1041C71.4386 32.1947 71.1974 32.3154 70.9863 32.4664L71.3482 33.1306C71.4989 32.9796 71.6799 32.889 71.891 32.8286C72.102 32.7683 72.3433 32.7381 72.5544 32.7381C72.8559 32.7381 73.1273 32.7985 73.2781 32.9494C73.4289 33.1004 73.5194 33.3117 73.5194 33.5834V33.6438H72.4941C71.9513 33.6438 71.5291 33.7645 71.2577 33.9759C70.9863 34.1872 70.8657 34.4589 70.8657 34.8212C70.8657 35.0325 70.926 35.2439 71.0466 35.425C71.1672 35.6062 71.3482 35.7571 71.5592 35.8477C71.8005 35.9383 72.0417 35.9986 72.3433 35.9986C72.6448 35.9986 72.8861 35.9383 73.0972 35.8477C73.3083 35.7571 73.459 35.6363 73.5797 35.4552V35.9383H74.4542V33.6136ZM73.5495 34.7005C73.459 34.8816 73.3384 35.0325 73.1575 35.1533C72.9765 35.2439 72.7654 35.3043 72.5242 35.3043C72.3131 35.3043 72.102 35.2439 71.9814 35.1533C71.8306 35.0627 71.7703 34.942 71.7703 34.7608C71.7703 34.4287 72.0417 34.2476 72.5845 34.2476H73.5495V34.7005Z" fill="white"/>
<path d="M77.9522 31.9229V32.7985C77.8618 32.7985 77.8014 32.7683 77.7411 32.7683C77.3793 32.7683 77.1079 32.8588 76.8968 33.0702C76.6857 33.2815 76.5952 33.5834 76.5952 33.9759V35.9081H75.6604V31.9531H76.5349V32.5268C76.8063 32.1343 77.2586 31.9229 77.9522 31.9229" fill="white"/>
<path fill-rule="evenodd" clip-rule="evenodd" d="M82.566 35.9081V30.4134H81.6011V32.4362C81.4503 32.255 81.2693 32.1343 81.0583 32.0437C80.8472 31.9531 80.6059 31.9229 80.3345 31.9229C79.9425 31.9229 79.6108 31.9833 79.3092 32.1645C79.0077 32.3456 78.7664 32.5871 78.5855 32.889C78.4046 33.1909 78.3141 33.5532 78.3141 33.9457C78.3141 34.3382 78.4046 34.7005 78.5855 35.0024C78.7664 35.3345 79.0077 35.5458 79.3092 35.7269C79.6108 35.8779 79.9425 35.9685 80.3345 35.9685C80.6059 35.9685 80.8773 35.9081 81.0884 35.8175C81.3297 35.7269 81.5106 35.576 81.6614 35.3948V35.9081H82.566ZM81.5106 34.6099C81.4201 34.791 81.2693 34.942 81.0884 35.0326C80.9075 35.1231 80.6964 35.1835 80.4853 35.1835C80.2742 35.1835 80.0631 35.1231 79.8822 35.0326C79.7013 34.942 79.5505 34.791 79.46 34.6099C79.3695 34.3986 79.3092 34.1872 79.3092 33.9457C79.3092 33.674 79.3695 33.4627 79.46 33.2815C79.5505 33.1004 79.7013 32.9494 79.8822 32.8589C80.0631 32.7683 80.2742 32.7079 80.4853 32.7079C80.6964 32.7079 80.9075 32.7683 81.0884 32.8589C81.2693 32.9494 81.4201 33.1004 81.5106 33.2815C81.6011 33.4928 81.6614 33.7042 81.6614 33.9457C81.6614 34.2174 81.6011 34.4287 81.5106 34.6099Z" fill="white"/>
<path d="M84.0738 35.8477C83.7722 35.7571 83.531 35.6665 83.3501 35.5156L83.7119 34.8212C83.8929 34.942 84.104 35.0325 84.3452 35.0929C84.5864 35.1533 84.8277 35.2137 85.0689 35.2137C85.6117 35.2137 85.9133 35.0627 85.9133 34.7608C85.9133 34.6099 85.853 34.5193 85.7022 34.4589C85.5514 34.3985 85.3403 34.3382 85.0388 34.308C84.7071 34.2476 84.4357 34.1872 84.2547 34.1268C84.0436 34.0665 83.8627 33.9457 83.7119 33.7947C83.5612 33.6438 83.4707 33.4023 83.4707 33.1306C83.4707 32.7683 83.6215 32.4664 83.9532 32.2248C84.2547 32.0135 84.6769 31.8927 85.2197 31.8927C85.4911 31.8927 85.7625 31.9229 86.0339 31.9833C86.3053 32.0437 86.5164 32.1343 86.6973 32.2248L86.3355 32.9192C86.0038 32.7079 85.6117 32.6173 85.1896 32.6173C84.9182 32.6173 84.7071 32.6475 84.5563 32.7381C84.4055 32.8286 84.3452 32.9192 84.3452 33.0702C84.3452 33.2211 84.4055 33.3117 84.5864 33.3721C84.7372 33.4325 84.9785 33.4928 85.28 33.5532C85.5816 33.6136 85.853 33.674 86.0641 33.7344C86.2752 33.7947 86.4259 33.9155 86.5767 34.0665C86.7275 34.2174 86.7878 34.4287 86.7878 34.7306C86.7878 35.0929 86.637 35.3948 86.3053 35.6364C85.9736 35.8477 85.5514 35.9684 84.9785 35.9684C84.6769 35.9684 84.3754 35.9383 84.0738 35.8477" fill="white"/>
<path fill-rule="evenodd" clip-rule="evenodd" d="M89.5923 35.0024C89.7733 35.3043 90.0145 35.5458 90.3462 35.7269C90.6478 35.8779 91.0096 35.9684 91.4318 35.9986C91.8238 35.9986 92.1857 35.9081 92.5174 35.7269C92.8491 35.5458 93.0904 35.3043 93.2713 35.0024C93.4522 34.7004 93.5427 34.3382 93.5427 33.9457C93.5427 33.5532 93.4522 33.1909 93.2713 32.889C93.0904 32.5871 92.8491 32.3456 92.5174 32.1645C92.1857 31.9833 91.8238 31.8927 91.4318 31.8927C91.0398 31.8927 90.6779 31.9833 90.3462 32.1645C90.0145 32.3456 89.7733 32.5871 89.5923 32.889C89.4114 33.1909 89.3209 33.5532 89.3209 33.9457C89.3209 34.3382 89.4114 34.7004 89.5923 35.0024ZM92.6078 33.9457C92.6078 34.3382 92.4872 34.6099 92.2761 34.8514C92.0349 35.0627 91.7635 35.1835 91.4318 35.1835C91.1001 35.1835 90.7985 35.0929 90.5874 34.8514C90.3763 34.6099 90.2557 34.308 90.2557 33.9457C90.2557 33.5532 90.3763 33.2815 90.5874 33.04C90.7985 32.8287 91.1001 32.7079 91.4318 32.7079C91.7635 32.7079 92.065 32.7985 92.2761 33.04C92.4872 33.2815 92.6078 33.5834 92.6078 33.9457Z" fill="white"/>
<path d="M97.8851 32.3456C98.1866 32.6475 98.3374 33.0702 98.3374 33.6438V35.9081H97.4026V33.7646C97.4026 33.4325 97.3121 33.1607 97.1613 32.9796C97.0106 32.7985 96.7693 32.7079 96.4678 32.7079C96.1361 32.7079 95.8647 32.7985 95.6536 33.0098C95.4425 33.2211 95.352 33.523 95.352 33.8853V35.8779H94.4172V31.9229H95.2917V32.4362C95.4425 32.255 95.6234 32.1041 95.8647 32.0135C96.1059 31.9229 96.3471 31.8626 96.6487 31.8626C97.1613 31.9229 97.5835 32.0739 97.8851 32.3456" fill="white"/>
<path d="M102.077 35.8175C101.715 35.6967 101.413 35.5458 101.202 35.3646L101.534 34.6099C101.745 34.791 102.016 34.9118 102.318 35.0326C102.62 35.1533 102.951 35.1835 103.253 35.1835C103.645 35.1835 103.916 35.1231 104.127 35.0024C104.308 34.8816 104.399 34.7005 104.399 34.5193C104.399 34.3684 104.338 34.2476 104.248 34.157C104.127 34.0665 104.007 33.9759 103.856 33.9457C103.705 33.8853 103.464 33.8249 103.192 33.7646C102.8 33.674 102.469 33.5834 102.227 33.4928C101.986 33.4023 101.775 33.2513 101.594 33.04C101.413 32.8287 101.323 32.5569 101.323 32.2249C101.323 31.9531 101.413 31.6814 101.564 31.4399C101.715 31.1984 101.956 31.0172 102.258 30.8663C102.559 30.7153 102.951 30.655 103.404 30.655C103.705 30.655 104.037 30.6851 104.338 30.7757C104.64 30.8663 104.911 30.9569 105.122 31.1078L104.821 31.8626C104.58 31.7418 104.369 31.621 104.097 31.5607C103.856 31.5003 103.615 31.4701 103.373 31.4701C102.981 31.4701 102.71 31.5305 102.529 31.6512C102.348 31.772 102.258 31.9531 102.258 32.1645C102.258 32.3154 102.318 32.4362 102.408 32.5268C102.529 32.6173 102.65 32.7079 102.8 32.7381C102.951 32.7985 103.192 32.8588 103.464 32.9192C103.856 33.0098 104.157 33.1004 104.399 33.1909C104.64 33.2815 104.851 33.4325 105.032 33.6438C105.213 33.8551 105.303 34.0967 105.303 34.4589C105.303 34.7608 105.213 35.0024 105.062 35.2439C104.911 35.4854 104.67 35.6666 104.369 35.7873C104.067 35.9383 103.675 35.9986 103.223 35.9986C102.861 35.9986 102.469 35.9383 102.077 35.8175" fill="white"/>
<path d="M108.59 35.6967C108.47 35.7873 108.349 35.8477 108.198 35.9081C108.048 35.9383 107.867 35.9685 107.716 35.9685C107.294 35.9685 106.932 35.8477 106.721 35.6364C106.479 35.3948 106.359 35.0627 106.359 34.6401V32.7381H105.695V31.9833H106.359V31.0776H107.294V31.9833H108.349V32.7381H107.294V34.6099C107.294 34.791 107.354 34.942 107.444 35.0627C107.535 35.1533 107.686 35.2137 107.867 35.2137C108.078 35.2137 108.259 35.1533 108.379 35.0627L108.59 35.6967Z" fill="white"/>
<path fill-rule="evenodd" clip-rule="evenodd" d="M109.827 34.2476H112.933C112.933 34.1268 112.933 34.0363 112.963 33.9155C112.963 33.4928 112.903 33.1306 112.722 32.8287C112.541 32.5268 112.299 32.2852 111.998 32.1041C111.696 31.9531 111.365 31.8626 110.973 31.8626C110.581 31.8626 110.219 31.9531 109.917 32.1343C109.616 32.3154 109.374 32.5569 109.193 32.8588C109.013 33.1909 108.922 33.523 108.922 33.9155C108.922 34.308 109.013 34.6703 109.193 34.9722C109.374 35.2741 109.616 35.5156 109.947 35.6967C110.279 35.8779 110.671 35.9684 111.093 35.9684C111.425 35.9684 111.727 35.9383 111.998 35.8175C112.269 35.6967 112.48 35.5458 112.661 35.3345L112.179 34.7608C111.877 35.0325 111.515 35.1835 111.093 35.1835C110.762 35.1835 110.49 35.1231 110.249 34.942C110.038 34.7608 109.887 34.5495 109.827 34.2476ZM109.827 33.6136C109.857 33.3419 109.978 33.1004 110.189 32.9192C110.4 32.7381 110.641 32.6475 110.942 32.6475C111.244 32.6475 111.485 32.7381 111.696 32.9192C111.907 33.1004 112.028 33.3419 112.058 33.6136H109.827Z" fill="white"/>
<path d="M116.129 31.9229V32.7985C116.039 32.7985 115.978 32.7683 115.918 32.7683C115.556 32.7683 115.285 32.8588 115.074 33.0702C114.863 33.2815 114.772 33.5834 114.772 33.9759V35.9081H113.837V31.9531H114.712V32.5268C114.983 32.1343 115.466 31.9229 116.129 31.9229" fill="white"/>
<path fill-rule="evenodd" clip-rule="evenodd" d="M116.823 35.0024C117.004 35.3043 117.245 35.5458 117.577 35.7269C117.878 35.8779 118.24 35.9684 118.662 35.9986C119.054 35.9986 119.416 35.9081 119.748 35.7269C120.08 35.5458 120.321 35.3043 120.502 35.0024C120.683 34.7004 120.773 34.3382 120.773 33.9457C120.773 33.5532 120.683 33.1909 120.502 32.889C120.321 32.5871 120.08 32.3456 119.748 32.1645C119.416 31.9833 119.054 31.8927 118.662 31.8927C118.27 31.8927 117.908 31.9833 117.577 32.1645C117.245 32.3456 117.004 32.5871 116.823 32.889C116.642 33.1909 116.551 33.5532 116.551 33.9457C116.551 34.3382 116.642 34.7004 116.823 35.0024ZM119.838 33.9457C119.838 34.3382 119.718 34.6099 119.507 34.8514C119.265 35.0627 118.994 35.1835 118.662 35.1835C118.331 35.1835 118.029 35.0929 117.818 34.8514C117.607 34.6099 117.486 34.308 117.486 33.9457C117.486 33.5532 117.607 33.2815 117.818 33.04C118.029 32.8287 118.331 32.7079 118.662 32.7079C118.994 32.7079 119.296 32.7985 119.507 33.04C119.718 33.2815 119.838 33.5834 119.838 33.9457Z" fill="white"/>
<path fill-rule="evenodd" clip-rule="evenodd" d="M121.527 30.7455C121.527 30.8965 121.587 31.0172 121.708 31.138C121.798 31.2588 121.949 31.3191 122.13 31.3493C122.311 31.3493 122.432 31.289 122.552 31.1682C122.673 31.0474 122.733 30.8965 122.733 30.7455C122.733 30.5946 122.673 30.4436 122.552 30.3531C122.432 30.2625 122.311 30.2021 122.13 30.2021C121.949 30.2021 121.829 30.2323 121.708 30.3531C121.587 30.4436 121.527 30.5946 121.527 30.7455ZM122.583 31.9531H121.648V35.9081H122.583V31.9531Z" fill="white"/>
<path fill-rule="evenodd" clip-rule="evenodd" d="M127.679 35.9081V30.4134H126.714V32.4362C126.563 32.255 126.382 32.1343 126.171 32.0437C125.96 31.9531 125.719 31.9229 125.447 31.9229C125.055 31.9229 124.724 31.9833 124.422 32.1645C124.12 32.3456 123.879 32.5871 123.698 32.889C123.517 33.1909 123.427 33.5532 123.427 33.9457C123.427 34.3382 123.517 34.7005 123.698 35.0024C123.879 35.3345 124.12 35.5458 124.422 35.7269C124.724 35.8779 125.055 35.9685 125.447 35.9685C125.719 35.9685 125.99 35.9081 126.201 35.8175C126.442 35.7269 126.623 35.576 126.774 35.3948V35.9081H127.679ZM126.593 34.6099C126.503 34.791 126.352 34.942 126.171 35.0326C125.99 35.1231 125.809 35.1835 125.568 35.1835C125.357 35.1835 125.146 35.1231 124.965 35.0326C124.784 34.942 124.633 34.791 124.543 34.6099C124.452 34.3986 124.392 34.1872 124.392 33.9457C124.392 33.674 124.452 33.4627 124.543 33.2815C124.633 33.1004 124.784 32.9494 124.965 32.8589C125.146 32.7683 125.357 32.7079 125.568 32.7079C125.779 32.7079 125.99 32.7683 126.171 32.8589C126.352 32.9494 126.503 33.1004 126.593 33.2815C126.684 33.4928 126.744 33.7042 126.744 33.9457C126.744 34.2174 126.684 34.4287 126.593 34.6099Z" fill="white"/>
<path d="M129.156 35.8477C128.855 35.7571 128.614 35.6665 128.433 35.5156L128.795 34.8212C128.975 34.942 129.187 35.0325 129.428 35.0929C129.669 35.1533 129.91 35.2137 130.152 35.2137C130.694 35.2137 130.996 35.0627 130.996 34.7608C130.996 34.6099 130.936 34.5193 130.785 34.4589C130.634 34.3985 130.423 34.3382 130.121 34.308C129.79 34.2476 129.518 34.1872 129.337 34.1268C129.126 34.0665 128.945 33.9457 128.795 33.7947C128.644 33.6438 128.553 33.4023 128.553 33.1306C128.553 32.7683 128.704 32.4664 129.036 32.2248C129.337 32.0135 129.76 31.8927 130.302 31.8927C130.574 31.8927 130.845 31.9229 131.117 31.9833C131.388 32.0437 131.599 32.1343 131.78 32.2248L131.418 32.9192C131.086 32.7079 130.694 32.6173 130.272 32.6173C130.001 32.6173 129.79 32.6475 129.639 32.7381C129.488 32.8286 129.428 32.9192 129.428 33.0702C129.428 33.2211 129.488 33.3117 129.669 33.3721C129.82 33.4325 130.061 33.4928 130.363 33.5532C130.664 33.6136 130.936 33.674 131.147 33.7344C131.358 33.7947 131.509 33.9155 131.659 34.0665C131.81 34.2174 131.87 34.4287 131.87 34.7306C131.87 35.0929 131.72 35.3948 131.388 35.6364C131.056 35.8477 130.634 35.9684 130.061 35.9684C129.79 35.9684 129.488 35.9383 129.156 35.8477" fill="white"/>
</svg>