<svg width="151" height="50" viewBox="0 0 151 50" fill="none" xmlns="http://www.w3.org/2000/svg">
<path d="M5.60934 35.1294L0.375732 28.562H18.8084C22.6329 28.562 25.7673 25.3085 25.7673 21.2717C25.7673 17.265 22.6617 13.9813 18.8084 13.9813H5.60934L0.375732 7.414H18.8084C26.0837 7.414 32.0074 13.6198 32.0074 21.2416C32.0074 28.8633 26.0837 35.0691 18.8084 35.0691H5.60934V35.1294Z" fill="#AF058F"/>
<path d="M5.60934 24.5855L0.375732 18.0181H15.0126L20.2462 24.5855H5.60934Z" fill="#AF058F"/>
<rect x="129.375" y="11.2399" width="3.50824" height="21.3288" fill="black"/>
<path fill-rule="evenodd" clip-rule="evenodd" d="M67.1186 16.6625C69.0165 16.6625 70.5981 17.4458 71.7483 18.6207V17.0541H75.2566V32.5989H71.7483V31.0323C70.5981 32.2072 69.0453 32.9905 67.1186 32.9905C62.8339 32.9905 59.6708 29.3453 59.6708 24.8265C59.6708 20.3077 62.8052 16.6625 67.1186 16.6625ZM63.179 24.7964C63.179 27.357 65.1057 29.4357 67.4637 29.4357C69.8217 29.4357 71.7483 27.357 71.7483 24.7964C71.7483 22.2357 69.8217 20.157 67.4637 20.157C65.1057 20.157 63.179 22.2357 63.179 24.7964Z" fill="black"/>
<rect x="122.646" y="17.0541" width="3.50823" height="15.5447" fill="black"/>
<path fill-rule="evenodd" clip-rule="evenodd" d="M95.5871 16.6625C97.485 16.6625 99.0666 17.4458 100.217 18.6207V17.0541H103.725V32.5989H100.217V31.0323C99.0666 32.2072 97.5138 32.9905 95.5871 32.9905C91.3025 32.9905 88.1393 29.3453 88.1393 24.8265C88.1393 20.3077 91.2737 16.6625 95.5871 16.6625ZM91.6475 24.7964C91.6475 27.357 93.5742 29.4357 95.9322 29.4357C98.2902 29.4357 100.217 27.357 100.217 24.7964C100.217 22.2357 98.2902 20.157 95.9322 20.157C93.5742 20.157 91.6475 22.2357 91.6475 24.7964Z" fill="black"/>
<path d="M83.3658 13.0475L77.1257 18.5303V20.6391H79.8576V27.6583C79.8576 33.2917 84.4873 33.0507 86.9315 32.5988V29.0139C85.4075 29.3152 83.3658 29.8574 83.3658 27.2365V20.6692H86.9315V17.0843H83.3658V13.0475Z" fill="black"/>
<path d="M143.15 16.6324C138.836 16.6324 135.357 20.2776 135.357 24.7964C135.357 29.3152 138.836 32.9604 143.15 32.9604C145.191 32.9604 147.06 32.1168 148.469 30.7612L146.284 28.0198C145.479 28.8633 144.386 29.4056 143.15 29.4056C140.705 29.4056 138.721 27.3269 138.721 24.7662C138.721 22.2056 140.705 20.1269 143.15 20.1269C145.105 20.1269 146.773 21.4524 147.348 23.3202H140.907L143.293 26.3026H147.319H149.332H150.799C150.885 25.7905 150.942 25.2784 150.942 24.7361C150.942 20.3077 147.463 16.6324 143.15 16.6324Z" fill="black"/>
<path d="M124.401 10.8483C123.222 10.8483 122.273 11.8424 122.273 13.0776C122.273 14.3127 123.222 15.3069 124.401 15.3069C125.58 15.3069 126.529 14.3127 126.529 13.0776C126.529 11.8424 125.58 10.8483 124.401 10.8483Z" fill="black"/>
<path fill-rule="evenodd" clip-rule="evenodd" d="M40.3467 11.2399H48.1971C53.632 11.2399 58.0604 15.8792 58.0604 21.9043C58.0604 27.9294 53.632 32.5687 48.1971 32.5687H40.3467V11.2399ZM44.0275 28.8934H47.9958C51.5328 28.8934 54.4084 25.9712 54.4372 21.9344C54.4372 17.8675 51.5616 14.9453 47.9958 14.9453H44.0275V28.8934Z" fill="black"/>
<path d="M103.754 14.9152H110.598V32.5687H114.279V14.9152H121.122V11.2399H103.754V14.9152Z" fill="black"/>
<path fill-rule="evenodd" clip-rule="evenodd" d="M42.5034 37.9612H40.3467V43.1427H42.5034C43.021 43.1427 43.5099 43.0222 43.9124 42.8113C44.315 42.6005 44.6313 42.2992 44.8614 41.9076C45.0914 41.5159 45.2065 41.0641 45.2065 40.5519C45.2065 40.0398 45.0914 39.5879 44.8614 39.1963C44.6313 38.8047 44.315 38.5034 43.9124 38.2925C43.5099 38.0817 43.021 37.9612 42.5034 37.9612ZM43.3948 42.1185C43.136 42.2691 42.8197 42.3293 42.4459 42.3293H41.2381V38.7745H42.4459C42.7909 38.7745 43.1072 38.8348 43.3948 38.9854C43.6536 39.136 43.8837 39.3469 44.0274 39.6181C44.1712 39.8892 44.2575 40.1904 44.2575 40.5519C44.2575 40.9134 44.1712 41.2147 44.0274 41.4858C43.8837 41.757 43.6824 41.9678 43.3948 42.1185Z" fill="black"/>
<path fill-rule="evenodd" clip-rule="evenodd" d="M49.2323 40.8532C49.2323 40.2808 49.0885 39.8591 48.8009 39.5879C48.5134 39.2867 48.082 39.1662 47.5357 39.2264C47.2194 39.2264 46.9318 39.2566 46.6442 39.3469C46.3567 39.4373 46.1266 39.5578 45.9253 39.7084L46.2704 40.3712C46.4142 40.2206 46.5867 40.1302 46.788 40.0699C46.9893 40.0097 47.2194 39.9796 47.4206 39.9796C47.7082 39.9796 47.967 40.0398 48.1108 40.1904C48.2546 40.3411 48.3408 40.5519 48.3408 40.8231V40.8833H47.3631C46.8455 40.8833 46.4429 41.0038 46.1841 41.2147C45.9253 41.4256 45.8103 41.6967 45.8103 42.0582C45.8103 42.2691 45.8678 42.48 45.9828 42.6607C46.0979 42.8415 46.2704 42.9921 46.4717 43.0825C46.7017 43.1729 46.9318 43.2331 47.2194 43.2331C47.5069 43.2331 47.737 43.1729 47.9383 43.0825C48.1395 42.9921 48.2833 42.8716 48.3984 42.6908V43.1729H49.2323V40.8532ZM48.3696 41.9377C48.2833 42.1185 48.1683 42.2691 47.9958 42.3896C47.8232 42.48 47.6219 42.5402 47.3919 42.5402C47.1906 42.5402 46.9893 42.48 46.8743 42.3896C46.7305 42.2992 46.673 42.1787 46.673 41.998C46.673 41.6666 46.9318 41.4858 47.4494 41.4858H48.3696V41.9377Z" fill="black"/>
<path d="M50.6413 43.0825C50.3538 42.9921 50.1237 42.9017 49.9512 42.7511L50.2962 42.0582C50.4688 42.1787 50.6701 42.2691 50.9001 42.3293C51.1302 42.3896 51.3602 42.4498 51.5903 42.4498C52.1079 42.4498 52.3954 42.2992 52.3954 41.998C52.3954 41.8473 52.3379 41.757 52.1941 41.6967C52.0504 41.6365 51.8491 41.5762 51.5615 41.5461C51.2452 41.4858 50.9864 41.4256 50.8139 41.3653C50.6126 41.3051 50.44 41.1846 50.2962 41.0339C50.1525 40.8833 50.0662 40.6423 50.0662 40.3712C50.0662 40.0097 50.21 39.7084 50.5263 39.4674C50.8139 39.2565 51.2164 39.136 51.734 39.136C51.9929 39.136 52.2517 39.1662 52.5105 39.2264C52.7693 39.2867 52.9706 39.3771 53.1431 39.4674L52.798 40.1603C52.4817 39.9494 52.1079 39.8591 51.7053 39.8591C51.4465 39.8591 51.2452 39.8892 51.1014 39.9796C50.9576 40.0699 50.9001 40.1603 50.9001 40.3109C50.9001 40.4616 50.9576 40.5519 51.1302 40.6122C51.274 40.6724 51.504 40.7327 51.7916 40.7929C52.0791 40.8532 52.3379 40.9134 52.5392 40.9737C52.7405 41.0339 52.8843 41.1545 53.0281 41.3051C53.1719 41.4557 53.2294 41.6666 53.2294 41.9678C53.2294 42.3293 53.0856 42.6306 52.7693 42.8716C52.453 43.0825 52.0504 43.203 51.504 43.203C51.2452 43.203 50.9289 43.1729 50.6413 43.0825Z" fill="black"/>
<path d="M57.3127 39.5879C57.6002 39.8892 57.744 40.311 57.744 40.8833V43.1427H56.8526V41.0038C56.8526 40.6725 56.7663 40.4013 56.6225 40.2206C56.4788 40.0398 56.2487 39.9494 55.9612 39.9494C55.6448 39.9494 55.386 40.0398 55.1847 40.2507C54.9834 40.4616 54.8972 40.7628 54.8972 41.1243V43.1126H54.0057V37.6298H54.8972V39.6181C55.041 39.4674 55.2135 39.3168 55.4435 39.2566C55.6448 39.1662 55.9036 39.1361 56.1624 39.1361C56.6513 39.1662 57.0251 39.3168 57.3127 39.5879Z" fill="black"/>
<path fill-rule="evenodd" clip-rule="evenodd" d="M62.6326 40.1302C62.4601 39.7988 62.2301 39.5879 61.9425 39.4072C61.6549 39.2264 61.3099 39.1662 60.9648 39.1662C60.7347 39.1662 60.5047 39.1963 60.3034 39.2867C60.0734 39.3771 59.9008 39.4976 59.757 39.6783V37.6599H58.8656V43.1427H59.6995V42.6306C59.8433 42.8114 60.0446 42.962 60.2459 43.0524C60.4759 43.1427 60.706 43.203 60.9648 43.203C61.3099 43.203 61.6549 43.1427 61.9425 42.962C62.2301 42.7812 62.4601 42.5402 62.6326 42.239C62.8052 41.9377 62.8914 41.5762 62.8914 41.1846C62.8914 40.793 62.8052 40.4314 62.6326 40.1302ZM61.9713 41.1846C61.9713 41.5762 61.8562 41.8473 61.6549 42.0884C61.4536 42.2992 61.1948 42.4197 60.8498 42.4197C60.6485 42.4197 60.4472 42.3595 60.2746 42.2691C60.1021 42.1787 59.9583 42.0281 59.8721 41.8473C59.7858 41.6365 59.7283 41.4256 59.7283 41.1846C59.7283 40.9135 59.7858 40.7026 59.8721 40.5218C59.9583 40.3411 60.1021 40.1904 60.2746 40.1001C60.4472 40.0097 60.6485 39.9494 60.8498 39.9494C61.1661 39.9494 61.4536 40.0398 61.6549 40.2808C61.8562 40.5218 61.9713 40.8231 61.9713 41.1846Z" fill="black"/>
<path fill-rule="evenodd" clip-rule="evenodd" d="M63.6679 42.239C63.8404 42.5402 64.0704 42.7812 64.3868 42.962C64.6743 43.1126 65.0194 43.203 65.422 43.2331C65.7958 43.2331 66.1409 43.1427 66.4572 42.962C66.7735 42.7812 67.0036 42.5402 67.1761 42.239C67.3486 41.9377 67.4349 41.5762 67.4349 41.1846C67.4349 40.7929 67.3486 40.4314 67.1761 40.1302C67.0036 39.8289 66.7735 39.5879 66.4572 39.4072C66.1409 39.2264 65.7958 39.136 65.422 39.136C65.0482 39.136 64.7031 39.2264 64.3868 39.4072C64.0704 39.5879 63.8404 39.8289 63.6679 40.1302C63.4953 40.4314 63.4091 40.7929 63.4091 41.1846C63.4091 41.5762 63.4953 41.9377 63.6679 42.239ZM66.5435 41.1846C66.5435 41.5762 66.4284 41.8473 66.2271 42.0883C65.9971 42.2992 65.7383 42.4197 65.422 42.4197C65.1057 42.4197 64.8181 42.3293 64.6168 42.0883C64.4155 41.8473 64.3005 41.5461 64.3005 41.1846C64.3005 40.7929 64.4155 40.5218 64.6168 40.2808C64.8181 40.0699 65.1057 39.9494 65.422 39.9494C65.7383 39.9494 66.0258 40.0398 66.2271 40.2808C66.4284 40.5218 66.5435 40.8231 66.5435 41.1846Z" fill="black"/>
<path fill-rule="evenodd" clip-rule="evenodd" d="M71.3745 40.8532C71.3745 40.2808 71.2307 39.8591 70.9431 39.5879C70.6556 39.2867 70.2242 39.1662 69.6779 39.2264C69.3616 39.2264 69.074 39.2566 68.7864 39.3469C68.4989 39.4373 68.2688 39.5578 68.0675 39.7084L68.4126 40.3712C68.5564 40.2206 68.7289 40.1302 68.9302 40.0699C69.1315 40.0097 69.3616 39.9796 69.5629 39.9796C69.8504 39.9796 70.1092 40.0398 70.253 40.1904C70.3968 40.3411 70.483 40.5519 70.483 40.8231V40.8833H69.5053C68.9877 40.8833 68.5851 41.0038 68.3263 41.2147C68.0675 41.4256 67.9525 41.6967 67.9525 42.0582C67.9525 42.2691 68.01 42.48 68.1251 42.6607C68.2401 42.8415 68.4126 42.9921 68.6139 43.0825C68.844 43.1729 69.074 43.2331 69.3616 43.2331C69.6491 43.2331 69.8792 43.1729 70.0805 43.0825C70.2818 42.9921 70.4255 42.8716 70.5406 42.6908V43.1729H71.3745V40.8532ZM70.5118 41.9377C70.4255 42.1185 70.3105 42.2691 70.138 42.3896C69.9654 42.48 69.7642 42.5402 69.5341 42.5402C69.3328 42.5402 69.1315 42.48 69.0165 42.3896C68.8727 42.2992 68.8152 42.1787 68.8152 41.998C68.8152 41.6666 69.074 41.4858 69.5916 41.4858H70.5118V41.9377Z" fill="black"/>
<path d="M74.7102 39.1662V40.0398C74.624 40.0398 74.5665 40.0097 74.509 40.0097C74.1639 40.0097 73.9051 40.1001 73.7038 40.3109C73.5025 40.5218 73.4162 40.8231 73.4162 41.2147V43.1427H72.5248V39.1963H73.3587V39.7687C73.6175 39.377 74.0489 39.1662 74.7102 39.1662Z" fill="black"/>
<path fill-rule="evenodd" clip-rule="evenodd" d="M79.1099 43.1427V37.6599H78.1897V39.6783C78.0459 39.4976 77.8734 39.3771 77.6721 39.2867C77.4708 39.1963 77.2408 39.1662 76.982 39.1662C76.6081 39.1662 76.2918 39.2264 76.0042 39.4072C75.7167 39.5879 75.4866 39.8289 75.3141 40.1302C75.1416 40.4314 75.0553 40.793 75.0553 41.1846C75.0553 41.5762 75.1416 41.9377 75.3141 42.239C75.4866 42.5704 75.7167 42.7812 76.0042 42.962C76.2918 43.1126 76.6081 43.203 76.982 43.203C77.2408 43.203 77.4996 43.1427 77.7009 43.0524C77.9309 42.962 78.1034 42.8114 78.2472 42.6306V43.1427H79.1099ZM78.1034 41.8473C78.0172 42.0281 77.8734 42.1787 77.7008 42.2691C77.5283 42.3595 77.327 42.4197 77.1257 42.4197C76.9244 42.4197 76.7231 42.3595 76.5506 42.2691C76.3781 42.1787 76.2343 42.0281 76.148 41.8473C76.0617 41.6365 76.0042 41.4256 76.0042 41.1846C76.0042 40.9135 76.0617 40.7026 76.148 40.5218C76.2343 40.3411 76.3781 40.1904 76.5506 40.1001C76.7231 40.0097 76.9244 39.9494 77.1257 39.9494C77.327 39.9494 77.5283 40.0097 77.7008 40.1001C77.8734 40.1904 78.0172 40.3411 78.1034 40.5218C78.1897 40.7327 78.2472 40.9436 78.2472 41.1846C78.2472 41.4557 78.1897 41.6666 78.1034 41.8473Z" fill="black"/>
<path d="M80.5477 43.0825C80.2601 42.9921 80.0301 42.9017 79.8575 42.7511L80.2026 42.0582C80.3752 42.1787 80.5764 42.2691 80.8065 42.3293C81.0365 42.3896 81.2666 42.4498 81.4966 42.4498C82.0142 42.4498 82.3018 42.2992 82.3018 41.998C82.3018 41.8473 82.2443 41.757 82.1005 41.6967C81.9567 41.6365 81.7554 41.5762 81.4679 41.5461C81.1516 41.4858 80.8928 41.4256 80.7202 41.3653C80.5189 41.3051 80.3464 41.1846 80.2026 41.0339C80.0588 40.8833 79.9726 40.6423 79.9726 40.3712C79.9726 40.0097 80.1163 39.7084 80.4327 39.4674C80.7202 39.2565 81.1228 39.136 81.6404 39.136C81.8992 39.136 82.158 39.1662 82.4168 39.2264C82.6756 39.2867 82.8769 39.3771 83.0495 39.4674L82.7044 40.1603C82.3881 39.9494 82.0142 39.8591 81.6117 39.8591C81.3529 39.8591 81.1516 39.8892 81.0078 39.9796C80.864 40.0699 80.8065 40.1603 80.8065 40.3109C80.8065 40.4616 80.864 40.5519 81.0365 40.6122C81.1803 40.6724 81.4104 40.7327 81.6979 40.7929C81.9855 40.8532 82.2443 40.9134 82.4456 40.9737C82.6469 41.0339 82.7907 41.1545 82.9344 41.3051C83.0782 41.4557 83.1357 41.6666 83.1357 41.9678C83.1357 42.3293 82.992 42.6306 82.6756 42.8716C82.3593 43.0825 81.9567 43.203 81.4104 43.203C81.1228 43.203 80.8352 43.1729 80.5477 43.0825Z" fill="black"/>
<path fill-rule="evenodd" clip-rule="evenodd" d="M85.8101 42.239C85.9826 42.5402 86.2127 42.7812 86.529 42.962C86.8165 43.1126 87.1616 43.203 87.5642 43.2331C87.938 43.2331 88.2831 43.1427 88.5994 42.962C88.9157 42.7812 89.1458 42.5402 89.3183 42.239C89.4908 41.9377 89.5771 41.5762 89.5771 41.1846C89.5771 40.7929 89.4908 40.4314 89.3183 40.1302C89.1458 39.8289 88.9157 39.5879 88.5994 39.4072C88.2831 39.2264 87.938 39.136 87.5642 39.136C87.1904 39.136 86.8453 39.2264 86.529 39.4072C86.2127 39.5879 85.9826 39.8289 85.8101 40.1302C85.6375 40.4314 85.5513 40.7929 85.5513 41.1846C85.5513 41.5762 85.6375 41.9377 85.8101 42.239ZM88.6857 41.1846C88.6857 41.5762 88.5706 41.8473 88.3693 42.0883C88.1393 42.2992 87.8805 42.4197 87.5642 42.4197C87.2479 42.4197 86.9603 42.3293 86.759 42.0883C86.5577 41.8473 86.4427 41.5461 86.4427 41.1846C86.4427 40.7929 86.5577 40.5218 86.759 40.2808C86.9603 40.0699 87.2479 39.9494 87.5642 39.9494C87.8805 39.9494 88.1681 40.0398 88.3693 40.2808C88.5706 40.5218 88.6857 40.8231 88.6857 41.1846Z" fill="black"/>
<path d="M93.718 39.5879C94.0055 39.8892 94.1493 40.3109 94.1493 40.8833V43.1427H93.2579V41.0038C93.2579 40.6724 93.1716 40.4013 93.0278 40.2206C92.884 40.0398 92.654 39.9494 92.3664 39.9494C92.0501 39.9494 91.7913 40.0398 91.59 40.2507C91.3887 40.4616 91.3024 40.7628 91.3024 41.1243V43.1126H90.411V39.1662H91.2449V39.6783C91.3887 39.4976 91.5613 39.3469 91.7913 39.2566C92.0214 39.1662 92.2514 39.1059 92.539 39.1059C93.0278 39.1662 93.4304 39.3168 93.718 39.5879Z" fill="black"/>
<path d="M97.715 43.0524C97.37 42.9319 97.0824 42.7812 96.8811 42.6005L97.1974 41.8473C97.3987 42.0281 97.6575 42.1486 97.9451 42.2691C98.2326 42.3896 98.549 42.4197 98.8365 42.4197C99.2103 42.4197 99.4691 42.3595 99.6704 42.239C99.843 42.1185 99.9292 41.9377 99.9292 41.757C99.9292 41.6063 99.8717 41.4858 99.7855 41.3955C99.6704 41.3051 99.5554 41.2147 99.4116 41.1846C99.2679 41.1243 99.0378 41.0641 98.779 41.0038C98.4052 40.9135 98.0889 40.8231 97.8588 40.7327C97.6288 40.6423 97.4275 40.4917 97.2549 40.2808C97.0824 40.0699 96.9961 39.7988 96.9961 39.4674C96.9961 39.1963 97.0824 38.9252 97.2262 38.6842C97.37 38.4432 97.6 38.2624 97.8876 38.1118C98.1751 37.9612 98.549 37.9009 98.9803 37.9009C99.2679 37.9009 99.5842 37.931 99.8717 38.0214C100.159 38.1118 100.418 38.2022 100.619 38.3528L100.332 39.1059C100.102 38.9854 99.9005 38.8649 99.6417 38.8047C99.4116 38.7444 99.1816 38.7143 98.9515 38.7143C98.5777 38.7143 98.3189 38.7745 98.1464 38.895C97.9738 39.0155 97.8876 39.1963 97.8876 39.4072C97.8876 39.5578 97.9451 39.6783 98.0313 39.7687C98.1464 39.8591 98.2614 39.9494 98.4052 39.9796C98.549 40.0398 98.779 40.1001 99.0378 40.1603C99.4116 40.2507 99.6992 40.3411 99.9292 40.4314C100.159 40.5218 100.361 40.6724 100.533 40.8833C100.706 41.0942 100.792 41.3352 100.792 41.6967C100.792 41.998 100.706 42.239 100.562 42.48C100.418 42.721 100.188 42.9017 99.9005 43.0222C99.6129 43.1729 99.2391 43.2331 98.8078 43.2331C98.4627 43.2331 98.0889 43.1729 97.715 43.0524Z" fill="black"/>
<path d="M103.926 42.9319C103.811 43.0222 103.696 43.0825 103.553 43.1427C103.409 43.1729 103.236 43.203 103.092 43.203C102.69 43.203 102.345 43.0825 102.143 42.8716C101.913 42.6306 101.798 42.2992 101.798 41.8775V39.9796H101.166V39.2264H101.798V38.3227H102.69V39.2264H103.696V39.9796H102.69V41.8473C102.69 42.0281 102.747 42.1787 102.834 42.2992C102.92 42.3896 103.064 42.4498 103.236 42.4498C103.438 42.4498 103.61 42.3896 103.725 42.2992L103.926 42.9319Z" fill="black"/>
<path fill-rule="evenodd" clip-rule="evenodd" d="M105.105 41.4858H108.067C108.067 41.3653 108.067 41.275 108.096 41.1545C108.096 40.7327 108.038 40.3712 107.866 40.0699C107.693 39.7687 107.463 39.5277 107.176 39.3469C106.888 39.1963 106.572 39.1059 106.198 39.1059C105.824 39.1059 105.479 39.1963 105.192 39.3771C104.904 39.5578 104.674 39.7988 104.501 40.1001C104.329 40.4314 104.243 40.7628 104.243 41.1545C104.243 41.5461 104.329 41.9076 104.501 42.2088C104.674 42.5101 104.904 42.7511 105.22 42.9319C105.537 43.1126 105.911 43.203 106.313 43.203C106.629 43.203 106.917 43.1729 107.176 43.0524C107.435 42.9319 107.636 42.7812 107.808 42.5703L107.348 41.998C107.061 42.2691 106.716 42.4197 106.313 42.4197C105.997 42.4197 105.738 42.3595 105.508 42.1787C105.307 41.998 105.163 41.7871 105.105 41.4858ZM105.105 40.8532C105.134 40.5821 105.249 40.3411 105.45 40.1603C105.652 39.9796 105.882 39.8892 106.169 39.8892C106.457 39.8892 106.687 39.9796 106.888 40.1603C107.09 40.3411 107.205 40.5821 107.233 40.8532H105.105Z" fill="black"/>
<path d="M111.115 39.1662V40.0398C111.029 40.0398 110.972 40.0097 110.914 40.0097C110.569 40.0097 110.31 40.1001 110.109 40.3109C109.908 40.5218 109.821 40.8231 109.821 41.2147V43.1427H108.93V39.1963H109.764V39.7687C110.023 39.377 110.483 39.1662 111.115 39.1662Z" fill="black"/>
<path fill-rule="evenodd" clip-rule="evenodd" d="M111.777 42.239C111.949 42.5402 112.179 42.7812 112.496 42.962C112.783 43.1126 113.128 43.203 113.531 43.2331C113.905 43.2331 114.25 43.1427 114.566 42.962C114.882 42.7812 115.112 42.5402 115.285 42.239C115.458 41.9377 115.544 41.5762 115.544 41.1846C115.544 40.7929 115.458 40.4314 115.285 40.1302C115.112 39.8289 114.882 39.5879 114.566 39.4072C114.25 39.2264 113.905 39.136 113.531 39.136C113.157 39.136 112.812 39.2264 112.496 39.4072C112.179 39.5879 111.949 39.8289 111.777 40.1302C111.604 40.4314 111.518 40.7929 111.518 41.1846C111.518 41.5762 111.604 41.9377 111.777 42.239ZM114.652 41.1846C114.652 41.5762 114.537 41.8473 114.336 42.0883C114.106 42.2992 113.847 42.4197 113.531 42.4197C113.215 42.4197 112.927 42.3293 112.726 42.0883C112.524 41.8473 112.409 41.5461 112.409 41.1846C112.409 40.7929 112.524 40.5218 112.726 40.2808C112.927 40.0699 113.215 39.9494 113.531 39.9494C113.847 39.9494 114.135 40.0398 114.336 40.2808C114.537 40.5218 114.652 40.8231 114.652 41.1846Z" fill="black"/>
<path fill-rule="evenodd" clip-rule="evenodd" d="M116.263 37.9913C116.263 38.1419 116.32 38.2624 116.435 38.3829C116.521 38.5034 116.665 38.5637 116.838 38.5938C117.01 38.5938 117.125 38.5336 117.24 38.4131C117.355 38.2925 117.413 38.1419 117.413 37.9913C117.413 37.8407 117.355 37.69 117.24 37.5997C117.125 37.5093 117.01 37.449 116.838 37.449C116.665 37.449 116.55 37.4792 116.435 37.5997C116.32 37.69 116.263 37.8407 116.263 37.9913ZM117.269 39.1963H116.378V43.1427H117.269V39.1963Z" fill="black"/>
<path fill-rule="evenodd" clip-rule="evenodd" d="M122.129 43.1427V37.6599H121.209V39.6783C121.065 39.4976 120.892 39.3771 120.691 39.2867C120.49 39.1963 120.26 39.1662 120.001 39.1662C119.627 39.1662 119.311 39.2264 119.023 39.4072C118.736 39.5879 118.506 39.8289 118.333 40.1302C118.161 40.4314 118.074 40.793 118.074 41.1846C118.074 41.5762 118.161 41.9377 118.333 42.239C118.506 42.5704 118.736 42.7812 119.023 42.962C119.311 43.1126 119.627 43.203 120.001 43.203C120.26 43.203 120.519 43.1427 120.72 43.0524C120.95 42.962 121.122 42.8114 121.266 42.6306V43.1427H122.129ZM121.094 41.8473C121.007 42.0281 120.864 42.1787 120.691 42.2691C120.519 42.3595 120.346 42.4197 120.116 42.4197C119.915 42.4197 119.713 42.3595 119.541 42.2691C119.368 42.1787 119.225 42.0281 119.138 41.8473C119.052 41.6365 118.995 41.4256 118.995 41.1846C118.995 40.9135 119.052 40.7026 119.138 40.5218C119.225 40.3411 119.368 40.1904 119.541 40.1001C119.713 40.0097 119.915 39.9494 120.116 39.9494C120.317 39.9494 120.519 40.0097 120.691 40.1001C120.864 40.1904 121.007 40.3411 121.094 40.5218C121.18 40.7327 121.238 40.9436 121.238 41.1846C121.238 41.4557 121.18 41.6666 121.094 41.8473Z" fill="black"/>
<path d="M123.538 43.0825C123.25 42.9921 123.02 42.9017 122.848 42.7511L123.193 42.0582C123.366 42.1787 123.567 42.2691 123.797 42.3293C124.027 42.3896 124.257 42.4498 124.487 42.4498C125.005 42.4498 125.292 42.2992 125.292 41.998C125.292 41.8473 125.235 41.757 125.091 41.6967C124.947 41.6365 124.746 41.5762 124.458 41.5461C124.142 41.4858 123.883 41.4256 123.711 41.3653C123.509 41.3051 123.337 41.1846 123.193 41.0339C123.049 40.8833 122.963 40.6423 122.963 40.3712C122.963 40.0097 123.107 39.7084 123.423 39.4674C123.711 39.2565 124.113 39.136 124.631 39.136C124.89 39.136 125.148 39.1662 125.407 39.2264C125.666 39.2867 125.867 39.3771 126.04 39.4674L125.695 40.1603C125.378 39.9494 125.005 39.8591 124.602 39.8591C124.343 39.8591 124.142 39.8892 123.998 39.9796C123.854 40.0699 123.797 40.1603 123.797 40.3109C123.797 40.4616 123.854 40.5519 124.027 40.6122C124.171 40.6724 124.401 40.7327 124.688 40.7929C124.976 40.8532 125.235 40.9134 125.436 40.9737C125.637 41.0339 125.781 41.1545 125.925 41.3051C126.069 41.4557 126.126 41.6666 126.126 41.9678C126.126 42.3293 125.982 42.6306 125.666 42.8716C125.35 43.0825 124.947 43.203 124.401 43.203C124.142 43.203 123.854 43.1729 123.538 43.0825Z" fill="black"/>
</svg>
