<svg width="36" height="29" viewBox="0 0 36 29" fill="none" xmlns="http://www.w3.org/2000/svg">
<path d="M16.4851 27.4565C15.1336 25.9185 15.0933 25.8521 15.3364 25.561C15.7215 25.1001 32.1473 9.06393 32.3788 8.91695C32.5828 8.79131 34.5962 9.82823 35.0366 10.2856C35.2053 10.461 33.8968 11.953 26.7579 19.7218C22.0944 24.7985 18.1871 28.9757 18.0824 28.9992C17.974 29.0248 17.2551 28.3284 16.4851 27.4518V27.4565ZM12.8015 23.3697C12.0729 22.5883 11.6121 21.9745 11.6584 21.847C11.7415 21.6161 21.1828 13.4749 21.3591 13.4808C21.5767 13.4895 23.7986 15.2904 23.7986 15.458C23.7986 15.6344 14.3074 24.6766 14.12 24.6766C14.0647 24.6766 13.4707 24.0875 12.7993 23.3679L12.8015 23.3697ZM9.36276 19.6131C8.79229 18.9334 8.43402 18.3843 8.51119 18.3079C8.90908 17.9117 13.0143 14.875 13.1499 14.8768C13.3706 14.8797 15.3519 16.6917 15.3519 16.891C15.3519 17.1357 10.9061 20.786 10.6079 20.786C10.4643 20.786 9.90401 20.2582 9.36276 19.6131ZM6.53357 16.5159C5.71672 15.6346 5.61916 15.47 5.80435 15.2866C6.07019 15.0231 19.1208 6.03854 19.3854 5.93272C19.5942 5.85188 21.4016 7.0192 21.4016 7.23497C21.4016 7.38912 8.0245 17.3825 7.6993 17.4707C7.57 17.5061 7.08088 17.1049 6.53357 16.5141V16.5159ZM15.2367 15.0967C14.6979 14.6196 14.26 14.1472 14.2633 14.0466C14.2666 13.9462 14.7426 13.5095 15.3204 13.076C15.8986 12.6427 18.4897 10.6655 21.0802 8.68184C23.6691 6.69819 25.8942 5.07494 26.0243 5.07494C26.3727 5.07494 28.137 6.1626 28.0802 6.34309C27.9984 6.60483 16.6763 15.9615 16.4393 15.9615C16.3164 15.9627 15.7757 15.5738 15.2367 15.0967ZM3.90445 13.6956C3.26122 12.9701 3.16807 12.7949 3.33618 12.6315C3.48191 12.4898 11.5653 7.39664 12.5408 6.83106C12.7023 6.73758 14.4159 8.05629 14.3614 8.23149C14.2905 8.45837 5.17326 14.5634 4.90318 14.5634C4.77443 14.5635 4.32279 14.173 3.89949 13.6956H3.90445ZM23.4492 13.7537C22.8578 13.3009 22.3507 12.8571 22.3226 12.7677C22.2828 12.64 27.6453 7.88621 28.8596 6.97081C29.0961 6.79285 29.2821 6.85211 30.2965 7.42857C30.9375 7.79279 31.4606 8.16465 31.4595 8.25519C31.4565 8.48665 25.0713 14.4754 24.7737 14.5342C24.637 14.5592 24.0412 14.2092 23.4492 13.7564V13.7537ZM1.7273 11.235L0.949585 10.3949L1.29479 10.1562C1.48467 10.025 5.33878 7.78279 9.86009 5.173L18.0781 0.428467L18.8641 0.839603C19.2964 1.06572 19.6501 1.32734 19.6501 1.42094C19.6501 1.54905 2.751 12.0741 2.54706 12.0741C2.52463 12.0741 2.15628 11.6961 1.72856 11.234L1.7273 11.235ZM14.3658 6.99962C13.9848 6.69461 13.6735 6.36408 13.6741 6.2653C13.6745 6.16653 15.2152 5.11827 17.0974 3.93537L20.5197 1.78534L21.3983 2.28489C21.8815 2.55969 22.2768 2.83754 22.2768 2.90221C22.2768 3.08664 15.5635 7.56385 15.2989 7.55856C15.1674 7.55621 14.748 7.30428 14.3669 6.99921L14.3658 6.99962ZM21.2224 6.06953C20.7613 5.76551 20.3852 5.43516 20.3869 5.33462C20.3896 5.16507 22.7205 3.49972 23.1031 3.39389C23.2789 3.34532 24.8475 4.22815 24.9743 4.44686C25.0125 4.51283 24.9305 4.67439 24.792 4.8059C24.3184 5.25567 22.374 6.63082 22.2175 6.6267C22.1315 6.62441 21.6837 6.37354 21.2224 6.06953Z" fill="#50ABF1"/>
</svg>
