<svg width="24" height="24" viewBox="0 0 24 24" fill="none" xmlns="http://www.w3.org/2000/svg">
<path fill-rule="evenodd" clip-rule="evenodd" d="M12.7 4.7C12.3134 4.3134 11.6866 4.3134 11.3 4.7C10.9134 5.0866 10.9134 5.7134 11.3 6.1L16.2 11H5C4.44771 11 4 11.4477 4 12C4 12.5523 4.44772 13 5 13H16.2L11.3 17.9C10.9134 18.2866 10.9134 18.9134 11.3 19.3C11.6866 19.6866 12.3134 19.6866 12.7 19.3L19.2929 12.7071C19.6834 12.3166 19.6834 11.6834 19.2929 11.2929L12.7 4.7Z" fill="url(#paint0_linear_5070_598)"/>
<defs>
<linearGradient id="paint0_linear_5070_598" x1="14.1875" y1="-5.71123" x2="30.2366" y2="6.15517" gradientUnits="userSpaceOnUse">
<stop stop-color="#790C65"/>
<stop offset="0.605" stop-color="#AF058F"/>
<stop offset="1" stop-color="#C447AD"/>
</linearGradient>
</defs>
</svg>
