<svg width="135" height="87" viewBox="0 0 135 87" fill="none" xmlns="http://www.w3.org/2000/svg">
<path d="M133.491 26C134.043 26.0048 134.495 25.561 134.5 25.0088L134.579 16.0091C134.584 15.4569 134.14 15.0052 133.588 15.0004C133.035 14.9955 132.584 15.4393 132.579 15.9916L132.509 23.9913L124.509 23.9211C123.957 23.9163 123.505 24.36 123.5 24.9123C123.496 25.4646 123.939 25.9162 124.492 25.921L133.491 26ZM134.213 24.2991C119.944 9.77755 104.394 2.49234 89.0736 0.754656C73.762 -0.981991 58.7536 2.83034 45.5658 10.3775C19.2225 25.4534 0 55.5183 0 86.5H2C2 56.303 20.7775 26.8678 46.5592 12.1134C59.4339 4.74541 74.0192 1.06 88.8482 2.74192C103.668 4.42279 118.806 11.4724 132.787 25.7009L134.213 24.2991Z" fill="#AF058F"/>
</svg>
