<svg width="40" height="118" viewBox="0 0 40 118" fill="none" xmlns="http://www.w3.org/2000/svg">
<path d="M1 29C0.447716 29 0 28.5523 0 28C0 27.4477 0.447716 27 1 27V29ZM20.2004 117.992C19.6524 118.061 19.1522 117.673 19.0831 117.125L17.957 108.196C17.8879 107.648 18.2761 107.148 18.824 107.079C19.372 107.009 19.8722 107.398 19.9413 107.946L20.9423 115.883L28.8794 114.882C29.4274 114.813 29.9276 115.201 29.9967 115.749C30.0658 116.297 29.6776 116.797 29.1297 116.866L20.2004 117.992ZM1 27C13.359 27 22.5462 30.4963 28.9012 36.3919C35.2497 42.2814 38.6637 50.4648 39.675 59.6404C41.6934 77.9543 34.1788 100.457 20.8653 117.613L19.2852 116.387C32.3563 99.5432 39.6362 77.5457 37.687 59.8596C36.7144 51.0352 33.454 43.3436 27.541 37.8581C21.6345 32.3787 12.9732 29 1 29V27Z" fill="#AF058F"/>
</svg>
