<svg width="277" height="82" viewBox="0 0 277 82" fill="none" xmlns="http://www.w3.org/2000/svg">
<path d="M1.17465 43.5545C0.652405 43.7342 0.374725 44.3032 0.554413 44.8255L3.48251 53.3358C3.6622 53.8581 4.23123 54.1358 4.75345 53.9561C5.2757 53.7764 5.55341 53.2074 5.37372 52.6851L2.77094 45.1204L10.3357 42.5176C10.8579 42.3379 11.1356 41.7689 10.956 41.2467C10.7763 40.7244 10.2072 40.4467 9.685 40.6264L1.17465 43.5545ZM1.06143 45.3988C84.743 86.2373 153.506 88.3778 201.419 73.6224C225.369 66.2467 244.115 54.646 256.888 41.5417C269.65 28.4479 276.5 13.7941 276.5 0.333206H274.5C274.5 13.1224 267.975 27.302 255.456 40.1457C242.947 52.9789 224.506 64.42 200.831 71.711C153.494 86.2889 85.257 84.2628 1.93857 43.6014L1.06143 45.3988Z" fill="#AF058F"/>
</svg>
