<svg width="310" height="108" viewBox="0 0 310 108" fill="none" xmlns="http://www.w3.org/2000/svg">
<path d="M1.70679 22.3114C1.16644 22.4255 0.635864 22.08 0.521698 21.5396C0.407562 20.9993 0.753082 20.4687 1.29346 20.3546L1.70679 22.3114ZM301.474 107.214C300.988 107.475 300.381 107.293 300.119 106.807L295.853 98.8829C295.591 98.3967 295.773 97.7902 296.259 97.5284C296.745 97.2665 297.352 97.4485 297.614 97.9348L301.406 104.979L308.45 101.186C308.936 100.924 309.543 101.106 309.805 101.592C310.066 102.078 309.885 102.685 309.398 102.947L301.474 107.214ZM1.29346 20.3546C112.578 -3.15268 194.786 -5.70037 245.663 9.62555C271.12 17.294 288.85 29.4737 298.38 45.8616C307.918 62.263 309.136 82.6925 301.958 106.62L300.042 106.046C307.114 82.4736 305.832 62.6531 296.651 46.867C287.463 31.0674 270.255 19.1221 245.087 11.5406C194.714 -3.63352 112.922 -1.1812 1.70679 22.3114L1.29346 20.3546Z" fill="#AF058F"/>
</svg>
