<svg width="34" height="30" viewBox="0 0 34 30" fill="none" xmlns="http://www.w3.org/2000/svg">
<g clip-path="url(#clip0_4379_41203)">
<path d="M21.125 14.25L8.375 12V28.6253C8.375 29.3845 8.99049 30 9.74975 30H31.7503C32.5095 30 33.125 29.3845 33.125 28.6253V22.5L21.125 14.25Z" fill="#185C37"/>
<path d="M21.125 0H9.74975C8.99049 0 8.375 0.615493 8.375 1.37475V7.5L21.125 15L27.875 17.25L33.125 15V7.5L21.125 0Z" fill="#21A366"/>
<path d="M8.375 7.5H21.125V15H8.375V7.5Z" fill="#107C41"/>
<path opacity="0.1" d="M17.5003 6H8.375V24.75H17.5003C18.2585 24.7475 18.8725 24.1335 18.875 23.3753V7.37475C18.8725 6.61652 18.2585 6.00246 17.5003 6Z" fill="black"/>
<path opacity="0.2" d="M16.7503 6.75H8.375V25.5H16.7503C17.5085 25.4975 18.1225 24.8835 18.125 24.1253V8.12475C18.1225 7.36652 17.5085 6.75246 16.7503 6.75Z" fill="black"/>
<path opacity="0.2" d="M16.7503 6.75H8.375V24H16.7503C17.5085 23.9975 18.1225 23.3835 18.125 22.6253V8.12475C18.1225 7.36652 17.5085 6.75246 16.7503 6.75Z" fill="black"/>
<path opacity="0.2" d="M16.0003 6.75H8.375V24H16.0003C16.7585 23.9975 17.3725 23.3835 17.375 22.6253V8.12475C17.3725 7.36652 16.7585 6.75246 16.0003 6.75Z" fill="black"/>
<path d="M2.24975 6.75H16.0002C16.7595 6.75 17.375 7.36549 17.375 8.12475V21.8752C17.375 22.6345 16.7595 23.25 16.0002 23.25H2.24975C1.49049 23.25 0.875 22.6345 0.875 21.8753V8.12475C0.875 7.36549 1.49049 6.75 2.24975 6.75Z" fill="url(#paint0_linear_4379_41203)"/>
<path d="M5.13275 19.4685L8.02475 14.9873L5.37501 10.5308H7.5065L8.9525 13.3808C9.08601 13.6515 9.1775 13.8525 9.22701 13.9853H9.24575C9.34075 13.7693 9.44075 13.5595 9.54575 13.356L11.0915 10.5323H13.0482L10.331 14.9625L13.1173 19.4685H11.0353L9.36501 16.3403C9.28633 16.2072 9.21957 16.0674 9.16551 15.9225H9.14077C9.09184 16.0644 9.02692 16.2003 8.94726 16.3275L7.22751 19.4685H5.13275Z" fill="white"/>
<path d="M31.7503 0H21.125V7.5H33.125V1.37475C33.125 0.615493 32.5095 0 31.7503 0Z" fill="#33C481"/>
<path d="M21.125 15H33.125V22.5H21.125V15Z" fill="#107C41"/>
</g>
<defs>
<linearGradient id="paint0_linear_4379_41203" x1="3.74138" y1="5.6758" x2="14.5086" y2="24.3242" gradientUnits="userSpaceOnUse">
<stop stop-color="#18884F"/>
<stop offset="0.5" stop-color="#117E43"/>
<stop offset="1" stop-color="#0B6631"/>
</linearGradient>
<clipPath id="clip0_4379_41203">
<rect width="32.25" height="30" fill="white" transform="translate(0.875)"/>
</clipPath>
</defs>
</svg>
