<svg width="84" height="28" viewBox="0 0 84 28" fill="none" xmlns="http://www.w3.org/2000/svg">
<path fill-rule="evenodd" clip-rule="evenodd" d="M81.4562 4.6665C80.32 4.6665 79.4822 5.5043 79.4822 6.58111C79.4822 7.65792 80.32 8.49571 81.4562 8.49571C82.5335 8.49571 83.3713 7.6584 83.3713 6.58111C83.3713 5.50381 82.5335 4.6665 81.4562 4.6665ZM81.3973 4.96589H81.4562C82.294 4.96589 82.9526 5.68393 82.9526 6.58111C82.9526 7.47877 82.2935 8.19632 81.4562 8.19632C80.5595 8.19632 79.9018 7.47877 79.9018 6.58111C79.9018 5.68393 80.5001 5.02528 81.3973 4.96589ZM80.6788 5.50429V7.71779H81.038V6.76074H81.3973L81.9956 7.71779H82.3539L81.7556 6.70086C82.1149 6.70086 82.2935 6.46135 82.2935 6.10258C82.2935 5.68393 82.055 5.50429 81.5156 5.50429H80.6788ZM81.038 6.46184V5.74332H81.5161C81.8155 5.74332 81.9951 5.86307 81.9951 6.10258C81.9951 6.3416 81.8155 6.46135 81.576 6.46135L81.038 6.46184ZM20.8506 13.1622C19.8336 12.3843 18.5772 11.7266 16.9021 11.2476C14.7485 10.5291 11.6972 9.81154 10.4403 9.3924C9.66283 9.0935 9.30406 8.61449 9.30406 7.95681C9.30406 7.05963 10.3809 6.52123 11.6977 6.46135C13.8513 6.52123 14.5095 7.71779 14.6287 8.61497H20.8511L20.8506 13.1622ZM28.6282 18.9659H33.2349C37.2432 18.906 40.4741 16.8721 42.0893 14C42.2091 13.7605 42.3288 13.5215 42.4476 13.282C42.6871 13.5809 42.9266 13.7605 43.1666 14C44.3028 14.9571 45.6785 15.6751 47.174 16.1541C49.5681 16.9919 51.4223 17.5897 52.08 17.8292C53.2771 18.3671 54.055 18.7259 54.055 19.8032C54.055 21.0591 52.6194 21.5985 51.1828 21.6584C49.2089 21.5985 47.1745 20.641 47.2344 18.6071H39.3374C39.7561 23.8115 44.9011 27.8802 51.0042 28C54.7131 27.9401 58.1237 26.8628 60.3372 24.2302C62.5507 26.5036 65.1234 27.9401 68.7735 28C74.5163 27.9401 80.4996 25.1279 80.5595 19.0253C80.5595 17.1102 80.0206 15.3752 78.8245 13.9995C77.7472 12.7431 76.1919 11.8454 74.0383 11.2476C71.8837 10.5291 68.8329 9.81154 67.5769 9.3924C66.799 9.0935 66.4398 8.61449 66.4398 7.95681C66.4398 7.05963 67.5171 6.52123 68.8329 6.46135C70.9875 6.52123 71.6452 7.71779 71.7649 8.61497H79.2427C79.3026 3.46994 74.9954 0 68.8324 0C64.2258 0 61.1146 1.73497 59.6192 4.24785C57.9441 1.61521 54.5934 0 50.4059 0C45.9779 0 42.987 1.67509 41.3713 4.06822C39.576 1.73546 36.5846 0.239023 32.9949 0.239023H20.8506V4.18798C19.1755 1.55534 15.8248 0 11.6972 0C5.29523 0 1.82529 3.52982 1.46603 7.59804C1.46603 10.1109 2.66259 12.3843 4.57719 13.9995C5.654 14.9566 6.97081 15.6746 8.46627 16.1536C10.8594 16.9914 12.7141 17.5892 13.3723 17.8287C14.5688 18.3666 15.3468 18.7254 15.3468 19.8027C15.3468 21.0587 13.8508 21.598 12.4751 21.6579C10.5006 21.598 8.46676 20.6405 8.52663 18.6066H0.628723C1.04737 23.811 6.19289 27.8798 12.2955 27.9995C15.6457 27.9396 18.7568 27.042 20.8511 25.0675V27.5804H28.6287L28.6282 18.9659ZM28.6282 6.70086H32.8162C34.372 6.70086 35.6879 8.01718 35.6879 9.63239C35.6879 11.2476 34.372 12.5634 32.8162 12.5634H28.6282V6.70086ZM60.3976 14C59.3203 12.7436 57.7649 11.8459 55.6113 11.2481C53.4577 10.5296 50.4069 9.81202 49.2098 9.39288C48.372 9.09399 48.0128 8.61497 48.0128 7.9573C48.0128 7.06012 49.0901 6.52172 50.4069 6.46184C52.6204 6.52172 53.2182 7.71828 53.3379 8.61546H58.6022C58.9016 10.7097 59.9779 12.5639 61.6535 14.0005C62.7907 14.9575 64.1065 15.6756 65.602 16.1546C67.9951 16.9924 69.8503 17.5902 70.4481 17.8297C71.705 18.3676 72.4829 18.7264 72.4829 19.8037C72.4829 21.0596 70.9875 21.599 69.6108 21.6589C67.6368 21.599 65.6025 20.6415 65.6623 18.6076H62.133C62.0128 16.8123 61.4744 15.2564 60.3976 14Z" fill="#CC1E4C"/>
</svg>
