<svg width="108" height="88" viewBox="0 0 108 88" fill="none" xmlns="http://www.w3.org/2000/svg">
<path d="M65.5349 88C63.3258 88 61.5349 86.2091 61.5349 84V57.2308C61.5349 42.4615 65.3023 29.8461 72.8372 19.3846C79.628 9.95613 89.819 3.77667 103.41 0.846231C105.808 0.329219 108 2.21363 108 4.66659V15.5759C108 17.5803 106.51 19.2535 104.547 19.6577C97.2031 21.1699 92.075 24.1558 89.1628 28.6154C86.2178 33.2335 84.654 39.7468 84.4716 48.1554C84.4526 49.0299 83.6532 49.6861 82.7955 49.5145V49.5145C81.1539 49.1862 81.3932 46.7692 83.0674 46.7692H103.921C105.827 46.7692 107.372 48.3144 107.372 50.2204V84C107.372 86.2091 105.581 88 103.372 88H65.5349ZM4 88C1.79086 88 0 86.2091 0 84V57.2308C0 42.4615 3.76744 29.8461 11.3023 19.3846C18.0932 9.95613 28.2841 3.77667 41.8752 0.846231C44.2731 0.329219 46.4651 2.21363 46.4651 4.66659V15.5759C46.4651 17.5803 44.9754 19.2535 43.0123 19.6577C35.6682 21.1699 30.5401 24.1558 27.6279 28.6154C24.6829 33.2335 23.1191 39.7468 22.9367 48.1554C22.9177 49.0299 22.1184 49.6861 21.2606 49.5145V49.5145C19.619 49.1862 19.8583 46.7692 21.5325 46.7692H42.3861C44.2921 46.7692 45.8372 48.3144 45.8372 50.2204V84C45.8372 86.2091 44.0463 88 41.8372 88H4Z" fill="url(#paint0_linear_8403_2990)"/>
<defs>
<linearGradient id="paint0_linear_8403_2990" x1="68.7656" y1="-53.4118" x2="160.656" y2="29.9717" gradientUnits="userSpaceOnUse">
<stop stop-color="#061161"/>
<stop offset="0.375" stop-color="#001896"/>
<stop offset="0.833333" stop-color="#0062BB"/>
<stop offset="1" stop-color="#0188E9"/>
</linearGradient>
</defs>
</svg>
