<svg width="111" height="55" viewBox="0 0 111 55" fill="none" xmlns="http://www.w3.org/2000/svg">
<path d="M109.413 19.4772C109.952 19.3597 110.295 18.827 110.177 18.2874L108.263 9.49322C108.146 8.95357 107.613 8.6113 107.074 8.72874C106.534 8.84618 106.192 9.37886 106.309 9.91852L108.01 17.7355L100.193 19.4367C99.6535 19.5542 99.3113 20.0869 99.4287 20.6265C99.5462 21.1662 100.079 21.5084 100.618 21.391L109.413 19.4772ZM109.741 17.6587C75.6491 -4.24644 48.1943 -2.96774 29.214 7.94556C10.3245 18.8067 0 39.1326 0 54.9998H2C2 39.8672 11.9255 20.1932 30.211 9.67939C48.4057 -0.782269 75.0509 -2.25355 108.659 19.3413L109.741 17.6587Z" fill="#AF058F"/>
</svg>
