<svg width="52" height="30" viewBox="0 0 52 30" fill="none" xmlns="http://www.w3.org/2000/svg">
<path fill-rule="evenodd" clip-rule="evenodd" d="M4 0C1.79086 0 0 1.79086 0 4V26C0 28.2091 1.79086 30 4 30H48C50.2091 30 52 28.2091 52 26V4C52 1.79086 50.2091 0 48 0H4ZM22.3398 19.7148V22H13.5605H12.2617H11.5V20.3203L18.6087 10.0762H11.5098V7.78125H20.2012H21.1875H22.1934V9.41211L15.1277 19.7148H22.3398ZM27.3203 7.78125V22H24.4004V7.78125H27.3203ZM32.9941 16.9316H35.6016C36.7148 16.9316 37.6686 16.7493 38.4629 16.3848C39.2637 16.0202 39.8757 15.5026 40.2988 14.832C40.722 14.1615 40.9336 13.3672 40.9336 12.4492C40.9336 11.5443 40.722 10.7402 40.2988 10.0371C39.8757 9.33398 39.2637 8.78385 38.4629 8.38672C37.6686 7.98307 36.7148 7.78125 35.6016 7.78125H30.0645V22H32.9941V16.9316ZM32.9941 14.6465V10.0762H35.6016C36.1615 10.0762 36.6172 10.1868 36.9688 10.4082C37.3203 10.6296 37.5775 10.9225 37.7402 11.2871C37.903 11.6517 37.9844 12.0456 37.9844 12.4688C37.9844 12.8854 37.903 13.2598 37.7402 13.5918C37.5775 13.9238 37.3203 14.1842 36.9688 14.373C36.6172 14.5553 36.1615 14.6465 35.6016 14.6465H32.9941Z" fill="#C447AD"/>
</svg>
